<svg width="60" height="31" viewBox="0 0 60 31" fill="none" xmlns="http://www.w3.org/2000/svg">
<path d="M7.59506 0H4.79012H0V4.36543V26.5086V30.8741H4.79012H7.59506C12.316 30.8741 14.6667 28.2963 14.7457 23.5457V7.32839C14.6667 2.57778 12.316 0 7.59506 0ZM9.94567 23.5457C9.94567 25.679 9.05679 26.4691 7.58518 26.5086H4.79012V4.36543H7.59506C9.06666 4.39506 9.95555 5.18518 9.95555 7.32839V23.5457H9.94567Z" fill="#F1F1F2"/>
<path d="M52.8396 0C50.7754 0 49.1656 0.493827 48.0001 1.44197C46.8347 0.493827 45.2248 0 43.1606 0C38.4396 0 36.089 2.57778 36.01 7.32839V30.8741H40.8001V7.32839C40.8001 5.19506 41.689 4.40494 43.1606 4.36543C44.6322 4.39506 45.5211 5.18518 45.5211 7.32839V30.8741H50.4495V7.32839H50.489C50.489 5.19506 51.3779 4.40494 52.8495 4.36543C54.3211 4.39506 55.21 5.18518 55.21 7.32839V30.8741H60.0001V7.32839C59.9211 2.57778 57.5705 0 52.8396 0Z" fill="#F1F1F2"/>
<path d="M25.8962 13.2444H25.4616C23.99 13.2148 23.1012 12.4247 23.1012 10.2815V7.31852C23.1012 5.18518 23.99 4.39506 25.4616 4.35555C26.9333 4.38518 27.8221 5.17531 27.8221 7.31852H32.6123C32.5333 2.57778 30.1826 0 25.4616 0C20.7407 0 18.39 2.57778 18.311 7.32839V10.2914C18.3802 15.0321 20.7308 17.6197 25.4616 17.6197H25.8962C27.3678 17.6494 28.2567 18.4395 28.2567 20.5827V23.5654C28.2567 25.6988 27.3678 26.4889 25.8962 26.5284C24.4246 26.4988 23.5357 25.7086 23.5357 23.5654H18.7456C18.8147 28.3062 21.1654 30.8938 25.8962 30.8938C30.6172 30.8938 32.9678 28.316 33.0468 23.5654V20.5827C32.9678 15.8222 30.6172 13.2444 25.8962 13.2444Z" fill="#F1F1F2"/>
</svg>
