<svg width="120" height="35" viewBox="0 0 120 35" fill="none" xmlns="http://www.w3.org/2000/svg">
<g clip-path="url(#clip0_1_361)">
<path d="M26.68 17.3543H34.8681V14.6569H26.68V11.1077H35.4782V8.39648H23.3865V24.4112H35.792V21.7138H26.68V17.3543Z" fill="#F1F1F2"/>
<path d="M41.9664 8.5293H38.6729V24.4124H50.1545V21.715H41.9664V8.5293Z" fill="#F1F1F2"/>
<path d="M55.6944 8.39648H52.4009V24.4112H55.6944V8.39648Z" fill="#F1F1F2"/>
<path d="M68.0328 8.63931C67.424 8.48003 66.1181 8.40039 64.1151 8.40039H58.8257V24.4151H62.1192V18.3728H64.2668C65.4175 18.4002 66.5684 18.3237 67.7049 18.1443C68.3193 18.0047 68.8993 17.747 69.4116 17.386C69.9959 16.9764 70.4712 16.4348 70.7975 15.807C71.1843 15.0372 71.372 14.1857 71.344 13.3277C71.3936 12.2143 71.0608 11.1168 70.399 10.2114C69.8171 9.43655 68.9817 8.88156 68.0328 8.63931ZM67.5603 14.6158C67.3077 14.9757 66.9481 15.2502 66.5306 15.4019C66.0934 15.5704 65.2259 15.6546 63.9282 15.6546H62.1263V11.1082H63.7167C64.5083 11.087 65.3004 11.124 66.0863 11.219C66.5964 11.3014 67.0627 11.5517 67.4087 11.9288C67.7628 12.3264 67.9494 12.8414 67.9306 13.3693C67.9407 13.8123 67.8114 14.2476 67.5603 14.6158Z" fill="#F1F1F2"/>
<path d="M81.2495 8.12295C80.0426 8.09858 78.8432 8.31412 77.7232 8.75662C76.9252 9.0898 76.2051 9.58004 75.6075 10.1971C74.9726 10.8348 74.458 11.5781 74.0876 12.3924C73.5545 13.6976 73.3024 15.097 73.3471 16.5026C73.3471 19.0418 74.0629 21.0432 75.4946 22.5068C76.9263 23.9703 78.8552 24.6963 81.2813 24.6848C83.6768 24.6848 85.5904 23.9542 87.0221 22.4929C88.4538 21.0317 89.1696 19.0084 89.1696 16.4229C89.1696 13.8167 88.4479 11.7807 87.0045 10.3148C85.561 8.84895 83.6427 8.11834 81.2495 8.12295ZM84.5149 20.5296C84.103 20.9706 83.6022 21.3228 83.0443 21.5637C82.4864 21.8045 81.8837 21.9289 81.2742 21.9289C80.6648 21.9289 80.062 21.8045 79.5041 21.5637C78.9463 21.3228 78.4455 20.9706 78.0336 20.5296C77.1802 19.5947 76.7535 18.22 76.7535 16.4056C76.7535 14.5912 77.1684 13.213 77.9983 12.2712C78.4231 11.8401 78.9319 11.4973 79.4944 11.2631C80.0569 11.029 80.6615 10.9084 81.2725 10.9084C81.8834 10.9084 82.4881 11.029 83.0506 11.2631C83.613 11.4973 84.1218 11.8401 84.5466 12.2712C85.3671 13.1738 85.7773 14.5427 85.7773 16.3779C85.7773 18.2131 85.3565 19.597 84.5149 20.5296Z" fill="#F1F1F2"/>
<path d="M102.562 18.6987C102.044 18.169 101.45 17.7164 100.799 17.3552C102.231 17.1521 103.306 16.6581 104.026 15.8732C104.76 15.0523 105.146 13.9869 105.105 12.8953C105.123 12.0047 104.878 11.128 104.4 10.3711C103.961 9.66495 103.292 9.12458 102.502 8.83713C101.713 8.54857 100.447 8.4043 98.7046 8.4043H91.7649V24.4156H95.0585V17.7292H95.7249C96.2835 17.705 96.8426 17.7658 97.3823 17.9093C97.7659 18.0481 98.1096 18.2762 98.3838 18.5741C99.0128 19.3216 99.5924 20.1081 100.119 20.9287L102.499 24.4121H106.438L104.445 21.2957C103.896 20.3778 103.266 19.5088 102.562 18.6987ZM97.4916 15.1703H95.0549V11.1086H97.6256C98.9609 11.1086 99.7614 11.1271 100.027 11.164C100.502 11.2161 100.943 11.4321 101.272 11.7735C101.578 12.1403 101.735 12.6052 101.713 13.0789C101.729 13.5036 101.612 13.923 101.378 14.2804C101.158 14.6072 100.833 14.8513 100.454 14.9729C100.059 15.1045 99.0714 15.1703 97.4916 15.1703Z" fill="#F1F1F2"/>
<path d="M107.041 8.39648V11.1077H111.879V24.4112H115.172V11.1077H120V8.39648H107.041Z" fill="#F1F1F2"/>
<path d="M6.94336 8.39648V24.4112H10.2369V17.4097H16.6901V24.4112H19.9836V8.39648H16.6901V14.702H10.2369V8.39648H6.94336Z" fill="#F1F1F2"/>
<path d="M31.2185 32.0571C31.0375 32.5742 30.9047 32.9666 30.82 33.2344C30.7448 33.0035 30.6273 32.6411 30.4674 32.1471L28.7042 26.9531H27.2056V34.2801H28.1577V28.0473L30.3263 34.2801H31.2185L33.3907 28.1374V34.2801H34.3428V26.9531H33.0063L31.2185 32.0571Z" fill="#F1F1F2"/>
<path d="M38.0135 28.8536C37.3962 28.8363 36.7939 29.042 36.3209 29.4318C35.7637 29.905 35.4851 30.6345 35.4851 31.6202C35.458 31.995 35.5062 32.3714 35.6273 32.7279C35.7483 33.0844 35.9396 33.414 36.1904 33.6978C36.4285 33.9369 36.7151 34.1242 37.0315 34.2477C37.348 34.3711 37.6874 34.428 38.0276 34.4146C38.485 34.4187 38.9357 34.3065 39.3359 34.0891C39.7267 33.8811 40.0449 33.5626 40.2492 33.1749C40.4821 32.669 40.5897 32.116 40.563 31.5613C40.5847 31.2013 40.5335 30.8406 40.4125 30.5C40.2914 30.1595 40.1029 29.8459 39.8578 29.5772C39.6196 29.3359 39.3322 29.1466 39.0144 29.0219C38.6966 28.8972 38.3555 28.8398 38.0135 28.8536ZM39.1419 33.1576C39.0003 33.3176 38.8253 33.4459 38.6288 33.5339C38.4323 33.6218 38.2189 33.6673 38.0029 33.6673C37.787 33.6673 37.5736 33.6218 37.3771 33.5339C37.1806 33.4459 37.0056 33.3176 36.8639 33.1576C36.5284 32.7185 36.3667 32.1746 36.409 31.6271C36.3666 31.0807 36.5283 30.5379 36.8639 30.1001C37.0077 29.9421 37.1842 29.8161 37.3816 29.7306C37.579 29.6451 37.7928 29.602 38.0085 29.6043C38.2243 29.6066 38.4371 29.6542 38.6325 29.7439C38.828 29.8336 39.0017 29.9633 39.1419 30.1243C39.4743 30.5505 39.6361 31.0814 39.5968 31.6167C39.6369 32.1672 39.4756 32.7136 39.1419 33.1576Z" fill="#F1F1F2"/>
<path d="M44.9285 31.4857C44.4855 31.318 44.032 31.1781 43.5709 31.0667C43.1219 30.9467 42.8516 30.8694 42.7599 30.8347C42.6226 30.7877 42.5007 30.7052 42.4072 30.5958C42.3336 30.5068 42.2937 30.3954 42.2944 30.2807C42.2969 30.185 42.3229 30.0912 42.3702 30.0074C42.4174 29.9236 42.4846 29.8523 42.5659 29.7994C42.8373 29.6394 43.1533 29.5679 43.4687 29.5951C43.7637 29.5775 44.0561 29.6593 44.2973 29.8271C44.4958 29.9871 44.6224 30.2171 44.65 30.4677L45.5456 30.3465C45.5069 30.0512 45.3982 29.769 45.2283 29.5224C45.046 29.2963 44.8011 29.1268 44.523 29.0342C44.1647 28.9078 43.7859 28.8468 43.4052 28.8541C43.1368 28.8521 42.8696 28.8882 42.6118 28.9614C42.404 29.0159 42.2072 29.105 42.0299 29.2246C41.8418 29.3553 41.6873 29.5272 41.5786 29.7267C41.4687 29.9291 41.4117 30.1552 41.4128 30.3846C41.4089 30.6417 41.482 30.8944 41.6231 31.1111C41.7641 31.3277 41.9669 31.499 42.2063 31.6034C42.6628 31.7874 43.1347 31.9323 43.6168 32.0363C43.9411 32.0993 44.2561 32.2017 44.5548 32.341C44.6393 32.3905 44.7089 32.4611 44.7566 32.5457C44.8043 32.6302 44.8284 32.7257 44.8263 32.8223C44.8245 32.9374 44.796 33.0506 44.7428 33.1533C44.6896 33.2559 44.6132 33.3452 44.5195 33.4144C44.2465 33.6036 43.9146 33.693 43.5815 33.6672C43.232 33.6889 42.8859 33.5883 42.6047 33.3832C42.3509 33.1731 42.1913 32.8734 42.1604 32.5487L41.2542 32.6872C41.3182 33.1848 41.5699 33.6407 41.9594 33.965C42.4311 34.2814 42.9975 34.4327 43.5674 34.3943C43.9595 34.4004 44.3487 34.3261 44.7099 34.1762C45.0222 34.058 45.2928 33.8536 45.4892 33.5875C45.663 33.3374 45.7563 33.0419 45.7572 32.7392C45.7677 32.4658 45.6913 32.1959 45.5386 31.967C45.3869 31.7521 45.175 31.5849 44.9285 31.4857Z" fill="#F1F1F2"/>
<path d="M49.9149 33.3456C49.6681 33.5646 49.3446 33.6812 49.0121 33.6711C48.8049 33.6771 48.599 33.6366 48.4102 33.5525C48.2213 33.4685 48.0545 33.3433 47.9225 33.1863C47.6033 32.7302 47.455 32.1796 47.5029 31.6281C47.4558 31.0791 47.6096 30.5315 47.9366 30.0838C48.0744 29.9243 48.2472 29.7975 48.442 29.713C48.6368 29.6284 48.8486 29.5883 49.0615 29.5956C49.3473 29.5884 49.6259 29.6845 49.8443 29.8656C50.0796 30.0797 50.2379 30.3627 50.2957 30.6724L51.1879 30.5374C51.1152 30.0524 50.8643 29.6103 50.4826 29.2943C50.0613 28.9833 49.542 28.8276 49.0157 28.8546C48.5644 28.8511 48.1199 28.962 47.725 29.1766C47.3275 29.393 47.0157 29.7345 46.8399 30.1461C46.6374 30.6228 46.5389 31.136 46.5508 31.6524C46.5012 32.3934 46.7436 33.1248 47.2278 33.6953C47.4561 33.9337 47.7339 34.121 48.0423 34.2447C48.3508 34.3684 48.6827 34.4255 49.0157 34.4121C49.5624 34.4268 50.0952 34.2417 50.5108 33.8927C50.9318 33.5206 51.2011 33.0113 51.269 32.4592L50.3662 32.3449C50.3388 32.7198 50.1792 33.0737 49.9149 33.3456Z" fill="#F1F1F2"/>
<path d="M54.2591 28.8533C53.6334 28.83 53.0213 29.0361 52.5418 29.4316C51.9847 29.9048 51.7061 30.6343 51.7061 31.62C51.6789 31.9948 51.7272 32.3712 51.8482 32.7277C51.9692 33.0842 52.1606 33.4138 52.4114 33.6976C52.6495 33.9367 52.936 34.124 53.2525 34.2475C53.569 34.3709 53.9083 34.4278 54.2486 34.4144C54.7059 34.4185 55.1566 34.3063 55.5568 34.0889C55.9477 33.8809 56.2659 33.5624 56.4701 33.1747C56.7031 32.6688 56.8106 32.1158 56.784 31.5611C56.8056 31.2011 56.7544 30.8404 56.6334 30.4998C56.5123 30.1593 56.3238 29.8457 56.0787 29.577C55.8434 29.3388 55.56 29.1513 55.2467 29.0267C54.9334 28.9021 54.597 28.843 54.2591 28.8533ZM55.3946 33.1574C55.2529 33.3174 55.0779 33.4457 54.8815 33.5337C54.685 33.6216 54.4715 33.6671 54.2556 33.6671C54.0397 33.6671 53.8263 33.6216 53.6298 33.5337C53.4333 33.4457 53.2583 33.3174 53.1166 33.1574C52.7811 32.7183 52.6194 32.1744 52.6617 31.6269C52.6193 31.0805 52.781 30.5377 53.1166 30.0999C53.2586 29.941 53.4335 29.8136 53.6296 29.7264C53.8257 29.6391 54.0385 29.594 54.2538 29.594C54.4691 29.594 54.682 29.6391 54.8781 29.7264C55.0742 29.8136 55.2491 29.941 55.3911 30.0999C55.7234 30.526 55.8852 31.057 55.846 31.5923C55.8931 32.1504 55.7328 32.7064 55.3946 33.1574Z" fill="#F1F1F2"/>
<path d="M63.7414 28.9752L62.814 32.0501L62.5037 33.0889L62.2321 32.0743L61.4211 28.9925H60.4796L59.6192 32.1089C59.4452 32.783 59.3523 33.1489 59.3406 33.2066L59.0197 32.0639L58.1593 28.996H57.2107L58.8645 34.28H59.8237L60.9204 30.1906L61.1284 31.0978L61.9888 34.28H62.9409L64.6336 28.9648L63.7414 28.9752Z" fill="#F1F1F2"/>
<path d="M13.4387 3.24482e-06C10.782 -0.00166483 8.16588 0.639824 5.82185 1.86769C3.47781 3.09555 1.4782 4.87192 0 7.03956H3.56862C4.82071 5.69099 6.34554 4.61374 8.04566 3.87665C9.74578 3.13957 11.5838 2.75886 13.4423 2.75886C15.3007 2.75886 17.1387 3.13957 18.8389 3.87665C20.539 4.61374 22.0638 5.69099 23.3159 7.03956H26.8775C25.3993 4.87192 23.3996 3.09555 21.0556 1.86769C18.7116 0.639824 16.0954 -0.00166483 13.4387 3.24482e-06Z" fill="#F1F1F2"/>
<path d="M13.4386 29.0065C10.254 29.01 7.17361 27.892 4.75686 25.8555H0.846191C2.36152 27.7025 4.27904 29.1927 6.45786 30.2165C8.63667 31.2403 11.0214 31.7717 13.4368 31.7717C15.8523 31.7717 18.237 31.2403 20.4158 30.2165C22.5946 29.1927 24.5122 27.7025 26.0275 25.8555H22.1204C19.7038 27.8923 16.6233 29.0103 13.4386 29.0065Z" fill="#F1F1F2"/>
</g>
<defs>
<clipPath id="clip0_1_361">
<rect width="120" height="34.4118" fill="white"/>
</clipPath>
</defs>
</svg>
