<svg width="85" height="53" viewBox="0 0 85 53" fill="none" xmlns="http://www.w3.org/2000/svg">
<g clip-path="url(#clip0_1_235)">
<path d="M0 52.7215V13.4585L25.2809 0V52.7215H0Z" fill="#F1F1F2"/>
<path d="M6.96655 29.1055H9.98303V42.8152H6.96655V29.1055Z" fill="#4A4A4A"/>
<path d="M13.1072 29.1055H15.8723L22.3002 37.5395V29.1055H25.2808V42.8152H22.7312L16.0877 34.0941V42.8152H13.1072V29.1055Z" fill="#4A4A4A"/>
<path d="M27.6868 35.9608C27.6868 32.0489 30.7392 28.8906 34.8689 28.8906C37.3467 28.8906 38.819 29.5725 40.2554 30.7569L38.3522 33.0538C37.3108 32.1566 36.3412 31.6541 34.7611 31.6541C32.5706 31.6541 30.811 33.5921 30.811 35.9608C30.811 38.4731 32.5347 40.3035 34.9766 40.3035C36.0898 40.3035 37.0594 40.0163 37.8135 39.478V37.5041H34.7611V34.8842H40.7223V40.8418C39.3218 42.0261 37.3826 43.031 34.8689 43.031C30.5955 43.031 27.6868 40.0522 27.6868 35.9608Z" fill="#F1F1F2"/>
<path d="M43.3438 29.1055H49.5922C51.3518 29.1055 52.6805 29.6079 53.5783 30.5052C54.3324 31.2588 54.7633 32.3355 54.7633 33.6634C54.7633 35.8886 53.5783 37.2524 51.8186 37.8984L55.1583 42.7793H51.6391L48.6585 38.4008H46.3243V42.7793H43.3079V29.1055H43.3438ZM49.4126 35.745C50.885 35.745 51.7109 34.9554 51.7109 33.7711C51.7109 32.4791 50.8131 31.7972 49.3408 31.7972H46.3603V35.745H49.4126Z" fill="#F1F1F2"/>
<path d="M61.9096 28.998H64.6747L70.564 42.7796H67.4039L66.147 39.6931H60.3654L59.1086 42.7796H56.0203L61.9096 28.998ZM65.0697 37.0732L63.2383 32.6229L61.4068 37.0732H65.0697Z" fill="#F1F1F2"/>
<path d="M72.3594 29.1055H77.71C82.0193 29.1055 84.9998 32.0484 84.9998 35.9603C84.9998 39.8005 82.0193 42.8152 77.71 42.8152H72.3594V29.1055ZM77.71 40.0876C80.1878 40.0876 81.8397 38.4367 81.8397 35.9603C81.8397 33.5199 80.1878 31.8331 77.71 31.8331H75.3758V40.0876H77.71Z" fill="#F1F1F2"/>
</g>
<defs>
<clipPath id="clip0_1_235">
<rect width="85" height="52.7215" fill="white"/>
</clipPath>
</defs>
</svg>
