<svg width="90" height="71" viewBox="0 0 90 71" fill="none" xmlns="http://www.w3.org/2000/svg">
<path d="M4.30362 63.2143C4.30362 62.8769 4.26184 62.666 4.13649 62.5817C4.01114 62.4974 3.80223 62.4552 3.42618 62.4552H3.21727V61.7383H7.89694V62.4552H7.68802C7.31198 62.4552 7.06128 62.4974 6.97772 62.5817C6.85237 62.666 6.81059 62.8769 6.81059 63.2143V67.1783C6.81059 68.3169 6.51811 69.1604 5.97493 69.7086C5.43175 70.2568 4.93036 70.5942 3.34262 70.5942C0.626741 70.5942 0 69.0338 0 68.2748C0 67.7687 0.417827 66.841 1.54596 66.841C2.67409 66.841 3.05014 67.6844 3.05014 67.9796C3.05014 68.7386 2.21448 68.6543 2.21448 69.076C2.25627 69.4134 2.4234 69.6664 3.1337 69.6664C4.3454 69.6664 4.3454 68.3169 4.3454 67.6V63.2143H4.30362Z" fill="#F1F1F2"/>
<path d="M16.2951 63.8477V68.9925C16.2951 69.2455 16.3369 69.4142 16.4204 69.4986C16.504 69.5829 16.6711 69.6251 16.9636 69.6251H17.3397V70.2576H14.0806V69.4564C13.7046 70.342 12.4929 70.4263 11.9915 70.4263C10.9051 70.4263 9.23381 70.1311 9.23381 68.0647V65.1128C9.23381 64.8598 9.19203 64.6911 9.10846 64.6067C9.0249 64.5224 8.85777 64.4802 8.56529 64.4802H8.14746V63.8477H11.6572V68.0647C11.6572 68.4443 11.7408 68.7395 11.9079 68.9082C12.075 69.119 12.3257 69.2034 12.6182 69.2034C12.9943 69.2034 13.245 69.0768 13.4539 68.8238C13.6628 68.5708 13.7463 68.2334 13.7463 67.7695V65.1128C13.7463 64.8598 13.7046 64.6911 13.621 64.6067C13.5374 64.5224 13.0778 64.4802 12.7853 64.4802H12.66V63.8477H16.2951Z" fill="#F1F1F2"/>
<path d="M21.4345 61.8223V68.9913C21.4345 69.2865 21.4763 69.4552 21.5598 69.5395C21.6434 69.6239 21.8105 69.6661 22.0612 69.6661H22.4373V70.2986H18.0083V69.6661H18.3843C18.635 69.6661 18.844 69.6239 18.9275 69.5395C19.0111 69.4552 19.0529 69.2865 19.0529 69.0335V63.2982C19.0529 62.9609 19.0111 62.7079 18.9275 62.6235C18.844 62.5392 18.6768 62.497 18.4261 62.497H18.0083V61.8644H21.4345V61.8223Z" fill="#F1F1F2"/>
<path d="M24.0251 62.0324C24.0251 61.7794 24.1922 61.5264 24.4847 61.3577C24.7772 61.189 25.1532 61.0625 25.571 61.0625C25.9889 61.0625 26.3649 61.1468 26.6574 61.3577C26.9499 61.5264 27.117 61.7794 27.117 62.0324C27.117 62.2855 26.9499 62.5385 26.6574 62.7072C26.3649 62.8759 25.9889 63.0024 25.571 63.0024C25.1532 63.0024 24.7772 62.918 24.4847 62.7072C24.1922 62.5385 24.0251 62.2855 24.0251 62.0324ZM24.61 65.2796V65.1952C24.61 64.8579 24.5682 64.647 24.4847 64.5627C24.4011 64.4783 24.234 64.4362 23.9833 64.4362H23.5237V63.8036H26.9081V68.9485C26.9081 69.2015 26.9499 69.3702 27.0334 69.4545C27.117 69.5388 27.2841 69.581 27.5348 69.581H28.078V70.2136H23.5237V69.581H23.9415C24.1922 69.581 24.4011 69.5388 24.4847 69.4545C24.5682 69.3702 24.61 69.2015 24.61 68.9485V65.2796Z" fill="#F1F1F2"/>
<path d="M36.7272 63.8477V68.9925C36.7272 69.2455 36.769 69.4142 36.8526 69.4986C36.9361 69.5829 37.1033 69.6251 37.3957 69.6251H37.7718V70.2576H34.5127V69.4564C34.1367 70.342 32.925 70.4263 32.4236 70.4263C31.3372 70.4263 29.6659 70.1311 29.6659 68.0647V65.1128C29.6659 64.8598 29.6242 64.6911 29.5406 64.6067C29.457 64.5224 29.2899 64.4802 28.9974 64.4802H28.5796V63.8477H32.0893V68.0647C32.0893 68.4443 32.1729 68.7395 32.34 68.9082C32.5072 69.119 32.7579 69.2034 33.0503 69.2034C33.4264 69.2034 33.6771 69.0768 33.886 68.8238C34.0949 68.5708 34.1785 68.2334 34.1785 67.7695V65.1128C34.1785 64.8598 34.1367 64.6911 34.0531 64.6067C33.9696 64.5224 33.5099 64.4802 33.2175 64.4802H33.0921V63.8477H36.7272Z" fill="#F1F1F2"/>
<path d="M38.8998 70.1721V68.3587H39.4012C39.443 68.6539 39.6101 69.0756 39.6519 69.1178C39.7355 69.1599 39.8608 69.3286 40.9471 69.2865C42.0335 69.2865 42.2842 69.0334 42.2842 68.5696C42.2842 67.5575 40.1115 67.684 39.3594 67.1357C38.6073 66.5875 38.6491 65.9971 38.6491 65.7019C38.6491 64.1416 40.2786 63.6777 41.6157 63.6777C42.0335 63.6777 43.8719 63.7199 44.248 63.8886V65.5754H43.7048C43.7048 65.3224 43.5795 64.9429 43.4959 64.9429C43.3288 64.8585 42.5349 64.732 41.8246 64.732C41.1143 64.732 40.8636 65.1959 40.8636 65.4067C40.9054 65.9971 41.1561 66.0815 42.2424 66.3345C43.287 66.5875 44.5405 66.8405 44.5405 68.2322C44.5405 68.8648 43.8302 70.2986 41.9499 70.2986C40.0697 70.2986 38.8998 70.1721 38.8998 70.1721Z" fill="#F1F1F2"/>
<path d="M52.3954 68.866C52.3954 69.2033 52.4372 69.372 52.5626 69.4563C52.6461 69.5407 52.8968 69.5829 53.2729 69.5829H53.5236V70.2154H50.4316V69.5829H50.6823C51.0584 69.5829 51.3091 69.5407 51.3926 69.4563C51.4762 69.372 51.5598 69.1611 51.5598 68.866V63.1307C51.5598 62.7933 51.518 62.6247 51.3926 62.5403C51.3091 62.456 51.0584 62.4138 50.6823 62.4138H50.4316V61.7812H53.9414L56.1559 66.5044L58.4539 61.7812H61.8383V62.4138H61.5458C61.1698 62.4138 60.9191 62.456 60.8355 62.5403C60.7102 62.6247 60.6684 62.8355 60.6684 63.1307V68.866C60.6684 69.2033 60.7102 69.372 60.8355 69.4563C60.9609 69.5407 61.1698 69.5829 61.5458 69.5829H61.8383V70.2154H57.2004V69.5829H57.4929C57.869 69.5829 58.0779 69.5407 58.2032 69.4563C58.2868 69.372 58.3704 69.1611 58.3704 68.866V64.0585L55.4456 70.2154H55.2367L52.3954 64.2272V68.866Z" fill="#F1F1F2"/>
<path d="M68.7327 68.149H69.3177C69.3177 68.9502 69.3594 69.4985 69.1923 69.9624C68.3149 70.2575 66.9778 70.4684 66.0586 70.4684C64.9723 70.4684 64.1366 70.1732 63.4681 69.5406C62.7996 68.9081 62.5071 68.1068 62.5071 67.0947C62.5071 66.0405 62.8413 65.197 63.4681 64.5645C64.0948 63.9319 64.9305 63.6367 66.0168 63.6367C67.145 63.6367 67.9806 63.9319 68.6074 64.5223C69.2341 65.1127 69.443 65.9561 69.443 67.0526V67.3056H64.8051V67.4321C64.8051 68.0225 64.9305 68.4442 65.1394 68.7394C65.3483 69.0346 65.6408 69.372 66.8107 69.372C67.2285 69.372 68.106 69.2876 68.3567 69.0768C68.6491 68.9081 68.6909 68.5285 68.7327 68.149ZM64.8469 66.2091H67.3121V66.167C67.3121 65.7031 67.2285 65.3657 67.0196 65.1549C66.8525 64.944 66.4764 64.8175 66.1004 64.8175C65.7661 64.8175 65.3065 64.944 65.1394 65.197C64.9305 65.4079 64.8469 65.7453 64.8469 66.2091Z" fill="#F1F1F2"/>
<path d="M71.0724 62.0324C71.0724 61.7794 71.2396 61.5264 71.532 61.3577C71.8245 61.189 72.2006 61.0625 72.6184 61.0625C73.0362 61.0625 73.4123 61.1468 73.7048 61.3577C73.9972 61.5264 74.1644 61.7794 74.1644 62.0324C74.1644 62.2855 73.9972 62.5385 73.7048 62.7072C73.4123 62.8759 73.0362 63.0024 72.6184 63.0024C72.2006 63.0024 71.8245 62.918 71.532 62.7072C71.1978 62.5385 71.0724 62.2855 71.0724 62.0324ZM71.6156 65.2796V65.1952C71.6156 64.8579 71.5738 64.647 71.4903 64.5627C71.4067 64.4783 71.2396 64.4362 70.9889 64.4362H70.571V63.8036H73.9555V68.9485C73.9555 69.2015 73.9972 69.3702 74.0808 69.4545C74.1644 69.5388 74.3315 69.581 74.5822 69.581H75.1254V70.2136H70.571V69.581H70.9889C71.2396 69.581 71.4485 69.5388 71.532 69.4545C71.6156 69.3702 71.6574 69.2015 71.6574 68.9485V65.2796H71.6156Z" fill="#F1F1F2"/>
<path d="M75.7939 70.2564V69.6238H76.17C76.4207 69.6238 76.6296 69.5817 76.7132 69.4973C76.7967 69.413 76.8385 69.2443 76.8385 68.9913V65.1115C76.8385 64.8585 76.7967 64.6898 76.7132 64.6055C76.6296 64.5212 76.4625 64.479 76.17 64.479H75.7939V63.8464H79.053V64.6477C79.429 63.7621 80.6407 63.6777 81.1421 63.6777C82.2285 63.6777 83.8998 63.9729 83.8998 66.0393V68.9913C83.8998 69.2443 83.9416 69.413 84.0251 69.4973C84.1087 69.5817 84.2758 69.6238 84.5683 69.6238H84.9861V70.2564H81.4764V66.0393C81.4764 65.6598 81.3928 65.3646 81.2257 65.1959C81.0586 64.985 80.8079 64.9007 80.5154 64.9007C80.1393 64.9007 79.8887 65.0272 79.6797 65.2802C79.4708 65.5332 79.3873 65.8706 79.3873 66.3345V68.9913C79.3873 69.2443 79.429 69.413 79.5126 69.4973C79.5962 69.5817 80.0558 69.6238 80.3483 69.6238H80.4736V70.2564H75.7939Z" fill="#F1F1F2"/>
<path d="M88.9972 61.8223V68.9913C88.9972 69.2865 89.039 69.4552 89.1226 69.5395C89.2061 69.6239 89.3733 69.6661 89.624 69.6661H90V70.2986H85.571V69.6661H85.9471C86.1978 69.6661 86.4067 69.6239 86.4903 69.5395C86.5738 69.4552 86.6156 69.2865 86.6156 69.0335V63.2982C86.6156 62.9609 86.5738 62.7079 86.4903 62.6235C86.4067 62.5392 86.2396 62.497 85.9889 62.497H85.571V61.8644H88.9972V61.8223Z" fill="#F1F1F2"/>
<path fill-rule="evenodd" clip-rule="evenodd" d="M68.3984 7.80161C68.5237 5.86175 68.3566 4.17492 67.4374 2.95196C66.56 1.72901 64.1783 1.22296 62.7995 2.36157C62.0892 1.89769 61.1282 2.40374 60.7939 2.95196C59.4987 1.77118 57.9527 0.843418 56.365 0C54.9026 2.3194 52.897 4.51228 50.8079 6.40997C48.8441 8.13898 46.6296 9.6993 44.2898 11.4705C40.6547 14.1694 36.8107 17.7961 33.8023 21.2963C33.3427 21.8445 32.6742 22.8988 32.4653 22.8988C32.4235 22.8988 32.0474 22.4771 32.0056 22.4349C30.3761 21.465 29.3315 24.0374 30.6686 25.0917C30.1672 25.2604 29.9583 25.6821 30.0001 26.1459C30.0419 26.7363 30.585 26.7785 30.7522 27.2002C30.2925 28.381 30.209 29.3509 30.2925 30.2365C30.5015 32.5559 32.507 34.0741 33.1338 35.7609C33.7605 37.5321 32.2563 38.0803 31.7132 39.3876C32.0892 40.0623 32.9666 40.231 33.7187 40.5262C33.7187 40.9479 33.468 41.201 33.4263 41.5805C34.053 41.6227 34.2201 41.6227 34.8469 41.7913C34.7215 42.1709 34.5962 42.5083 34.7633 42.93H36.2675C37.1867 43.436 37.0196 44.7433 37.9806 45.1228C39.3176 45.6711 40.4875 44.659 41.741 44.3638C42.4931 45.0385 42.8691 46.0506 42.8691 47.2314C42.8691 50.5629 40.1951 53.3883 38.8162 55.5391C39.6101 56.256 40.78 56.4668 42.1171 56.509C48.0502 56.5512 50.0976 50.9846 53.6491 48.117C54.819 47.147 56.1143 46.5567 57.6185 45.9241C55.404 45.2072 52.6463 43.9842 51.0168 42.2974C49.9722 41.2431 49.0948 39.5985 49.5962 37.7008C50.7661 38.1646 52.1031 37.7008 51.9778 36.267C53.3566 36.4356 53.6909 34.538 52.8134 33.8632C52.5627 33.6524 51.9778 33.9054 51.8524 33.7789C52.0196 28.2967 54.1087 24.1639 56.2814 20.5372C58.2034 17.3744 60.6268 14.2959 63.1756 11.9344C63.5098 11.6392 63.9276 11.1331 64.3873 11.0909C62.7995 15.0128 60.7522 19.4408 61.4625 25.0073C62.8831 25.2604 64.5544 25.2182 66.1839 25.2182C65.8497 23.4048 65.6407 21.718 65.7243 19.989C65.9332 15.7297 68.1477 11.7235 68.3984 7.80161ZM65.4736 8.34984C64.5962 7.21122 63.8441 5.90392 62.8413 4.93399C63.3427 4.55446 63.7187 4.09058 63.5934 3.12065C66.6017 2.06637 66.4346 6.53649 65.4736 8.34984Z" fill="#F1F1F2"/>
</svg>
