<svg width="120" height="37" viewBox="0 0 120 37" fill="none" xmlns="http://www.w3.org/2000/svg">
<path d="M5.10843 11.4591H6.44652V13.8026H0V11.4591H1.42311V2.93153H0V0.588008H6.44652V2.93153H5.10843V11.4591ZM12.1316 11.3778L13.9798 11.5441V13.5661C13.7963 13.6586 13.5968 13.7151 13.3921 13.7324C13.1407 13.8137 12.9744 13.8137 12.723 13.8987C12.4717 13.8987 12.3053 13.9838 12.1353 13.9838H11.64C11.1309 14.0332 10.6171 13.9753 10.1318 13.8137C9.70443 13.6261 9.35098 13.3025 9.12641 12.8933L5.61114 7.71836V6.53182L8.79004 1.67475C9.00878 1.26734 9.32658 0.921567 9.71414 0.669329C10.1068 0.489742 10.5357 0.403701 10.9672 0.417973C11.8147 0.393637 12.6532 0.596568 13.3958 1.0057L13.2294 3.01285L11.5549 3.18288L8.87136 6.8645L12.1316 11.3778Z" fill="#F1F1F2"/>
<path d="M26.041 8.87141C26.0661 9.55754 25.9517 10.2416 25.7047 10.8823C25.4694 11.469 25.1287 12.0077 24.6993 12.4717C24.2153 12.9834 23.6102 13.3648 22.9398 13.5806C22.1622 13.8606 21.3414 14.002 20.5149 13.9983C19.6601 13.9944 18.8115 13.8534 18.0014 13.5806C17.364 13.3958 16.7865 13.0465 16.3269 12.5678C15.8704 12.1239 15.5258 11.5778 15.3215 10.9747C15.0756 10.3055 14.9626 9.59488 14.9888 8.8825C14.9626 8.19662 15.0758 7.51255 15.3215 6.87166C15.5567 6.28488 15.8975 5.74616 16.3269 5.2822C16.8131 4.77832 17.4181 4.40464 18.0864 4.19546C18.8909 3.90539 19.7411 3.76265 20.5963 3.77407C21.4514 3.77762 22.3003 3.91993 23.1098 4.19546C23.7373 4.43767 24.3075 4.80776 24.7843 5.2822C25.2137 5.74616 25.5545 6.28488 25.7897 6.87166C25.9644 7.52364 26.0489 8.19648 26.041 8.87141ZM22.4408 8.87141C22.4548 8.4789 22.4263 8.08602 22.3557 7.69965C22.2956 7.37628 22.1819 7.06521 22.0194 6.77925C21.8725 6.52081 21.6751 6.29455 21.439 6.1139C21.1591 5.94873 20.84 5.86162 20.5149 5.86162C20.1899 5.86162 19.8708 5.94873 19.5908 6.1139C19.353 6.29525 19.1544 6.52283 19.0068 6.78294C18.8457 7.06958 18.7321 7.3804 18.6704 7.70335C18.6031 8.06146 18.5758 8.42595 18.5891 8.79009C18.564 9.53791 18.7067 10.2819 19.0068 10.9673C19.279 11.3364 19.6786 11.5911 20.1281 11.682C20.5776 11.7728 21.0449 11.6933 21.439 11.4589C21.6739 11.309 21.8732 11.1097 22.0231 10.8749C22.1812 10.5964 22.2935 10.2944 22.3557 9.98033C22.4347 9.61633 22.4633 9.2432 22.4408 8.87141Z" fill="#F1F1F2"/>
<path d="M33.8258 13.8143V11.7221H34.5651V5.94465H32.898V6.53237C32.898 7.53779 32.813 8.4582 32.7317 9.3786C32.5838 10.1614 32.3353 10.9218 31.9924 11.6408C31.6245 12.3074 31.1055 12.8783 30.4769 13.3079C29.6756 13.7824 28.8013 14.1209 27.8894 14.3096L26.969 11.7221C27.4648 11.5479 27.9416 11.3237 28.3921 11.0531C28.7301 10.8398 29.0157 10.5529 29.2275 10.214C29.4313 9.82036 29.5735 9.39773 29.6489 8.96091C29.7203 8.31791 29.745 7.67057 29.7228 7.02399V5.91507H28.2997V3.9375H39.0193V6.02966H37.9103V11.8071H39.0193V13.8993H33.8443L33.8258 13.8143Z" fill="#F1F1F2"/>
<path d="M50.8219 6.78373H48.5634V5.94465H45.9759V7.5378H47.6504C48.1838 7.5511 48.7153 7.60672 49.2398 7.70413C49.7181 7.76845 50.1756 7.94033 50.5779 8.20684C51.0158 8.45623 51.3737 8.82494 51.6099 9.26997C51.8462 9.715 51.9511 10.218 51.9123 10.7204C51.9173 11.2062 51.832 11.6888 51.661 12.1435C51.5141 12.5415 51.2578 12.89 50.9217 13.1489C50.558 13.3943 50.1641 13.5919 49.7499 13.7367C49.2327 13.8783 48.6958 13.9345 48.1605 13.903H41.5439V11.8071H42.7157V5.94465H41.5439V3.9375H50.9217V6.78373H50.8219ZM45.9685 9.54494V11.8071H47.2216C47.5473 11.8134 47.868 11.7262 48.1457 11.5558C48.2651 11.4534 48.3578 11.3236 48.4158 11.1774C48.4737 11.0312 48.4952 10.8731 48.4784 10.7167C48.4889 10.5521 48.4549 10.3878 48.3801 10.2408C48.3054 10.0939 48.1925 9.96972 48.0533 9.88131C47.7768 9.7114 47.4574 9.62419 47.1329 9.62996H45.9611L45.9685 9.54494Z" fill="#F1F1F2"/>
<path d="M60.7873 10.9681H57.7711L57.5234 11.8071H58.3588V13.8993H53.4204V11.8071H54.3371L57.5197 3.9375H61.5377L64.6353 11.8071H65.5557V13.8993H60.2846V11.8071H61.1237L60.7873 10.9681ZM59.2792 6.196L58.8615 7.61912L58.3588 9.12725H60.2846L59.7819 7.61912L59.2792 6.196Z" fill="#F1F1F2"/>
<path d="M75.7762 13.3955C75.1728 13.5857 74.5546 13.7254 73.928 13.8132C73.2632 13.9121 72.5929 13.9688 71.9209 13.9833C70.9829 13.9918 70.0496 13.8508 69.156 13.5656C68.5157 13.3382 67.9408 12.9574 67.4815 12.4567C67.0911 11.9937 66.8061 11.4513 66.6461 10.8672C66.4739 10.2399 66.3893 9.59184 66.3948 8.94138C66.3944 8.31676 66.4789 7.69499 66.6461 7.09318C66.8047 6.48283 67.0892 5.91243 67.4815 5.41871C67.9465 4.87077 68.5562 4.46471 69.241 4.24695C70.1443 3.88249 71.1138 3.71125 72.0872 3.74424C72.6467 3.73028 73.2065 3.7587 73.7617 3.82925C74.2726 3.90072 74.777 4.01321 75.2698 4.16563V7.51456H72.7563V6.11363H72.0798C71.7107 6.12114 71.344 6.17707 70.9894 6.27997C70.7293 6.42754 70.5017 6.6262 70.3204 6.864C70.1247 7.10218 70.0084 7.39555 69.9877 7.70308C69.9173 8.06081 69.8888 8.42551 69.9027 8.78982C69.9015 9.2423 69.9574 9.69311 70.069 10.1316C70.141 10.4647 70.3298 10.761 70.6013 10.967C70.8529 11.1575 71.1373 11.3003 71.4404 11.3884C71.8267 11.4589 72.2197 11.4862 72.6121 11.4697H73.1148C73.3409 11.4829 73.5675 11.4554 73.7839 11.3884C74.0352 11.3884 74.2866 11.3034 74.5232 11.3034C74.7597 11.3034 75.0259 11.2184 75.1922 11.2184L75.7762 13.3955Z" fill="#F1F1F2"/>
<path d="M88.0815 8.8713C88.1077 9.55718 87.9945 10.2413 87.7488 10.8821C87.5136 11.4689 87.1728 12.0076 86.7434 12.4716C86.2743 13.0011 85.6639 13.3857 84.9839 13.5805C83.4128 14.1376 81.6979 14.1376 80.1268 13.5805C79.4674 13.3439 78.868 12.9654 78.3711 12.4716C77.9122 12.031 77.5672 11.4855 77.3656 10.8821C77.1188 10.2119 77.0045 9.5001 77.0293 8.78628C77.0042 8.10135 77.1186 7.41847 77.3656 6.77914C77.5961 6.18718 77.9345 5.6432 78.3637 5.1749C78.8346 4.65416 79.4433 4.27738 80.1194 4.08816C80.9019 3.81483 81.7266 3.68218 82.5554 3.69634C83.4103 3.69869 84.2592 3.83976 85.0689 4.11403C85.6942 4.3486 86.2642 4.70976 86.7434 5.1749C87.1728 5.64026 87.5135 6.18018 87.7488 6.76805C87.9479 7.4523 88.0597 8.15899 88.0815 8.8713ZM84.4812 8.8713C84.4946 8.47895 84.4674 8.08627 84.3999 7.69954C84.3382 7.37659 84.2246 7.06577 84.0635 6.77914C83.9148 6.51868 83.7149 6.29107 83.4758 6.11009C83.2004 5.93762 82.8802 5.85019 82.5554 5.85873C82.2292 5.83851 81.9056 5.9269 81.635 6.11009C81.3972 6.29145 81.1985 6.51902 81.0509 6.77914C80.8884 7.0651 80.7747 7.37617 80.7146 7.69954C80.6442 8.05727 80.6157 8.42197 80.6296 8.78628C80.6053 9.5344 80.7493 10.2784 81.0509 10.9635C81.2266 11.2165 81.4663 11.4184 81.7456 11.5483C82.0249 11.6782 82.3337 11.7315 82.6404 11.7027C82.9652 11.7109 83.2852 11.6235 83.5608 11.4514C83.796 11.3007 83.9963 11.1016 84.1485 10.8674C84.3093 10.581 84.4217 10.27 84.4812 9.94695C84.4411 9.58952 84.4411 9.22873 84.4812 8.8713Z" fill="#F1F1F2"/>
<path d="M93.859 15.7393H95.0308V14.0648C94.1161 14.0587 93.2099 13.8897 92.3546 13.5658C91.7205 13.2931 91.1493 12.893 90.6764 12.3903C90.2845 11.9284 89.9993 11.3857 89.841 10.8009C89.6823 10.2566 89.5978 9.69333 89.5897 9.12641C89.5642 8.4679 89.6788 7.81147 89.926 7.20059C90.1608 6.61727 90.5337 6.09972 91.0128 5.69246C91.5287 5.24266 92.1295 4.90079 92.7797 4.68704C93.529 4.40664 94.3231 4.26509 95.1232 4.26934V2.17718H93.8664V0H98.6384V4.103C99.4321 4.11321 100.221 4.22627 100.986 4.43938C101.608 4.65212 102.178 4.99342 102.66 5.4411C103.14 5.82954 103.49 6.35591 103.662 6.94923C103.902 7.56221 104.016 8.21708 103.998 8.87506C104.023 9.56119 103.909 10.2453 103.662 10.8859C103.428 11.4724 103.088 12.0111 102.66 12.4754C102.178 12.923 101.607 13.2653 100.986 13.4808C100.207 13.762 99.3849 13.9034 98.5571 13.8985V15.5729H99.8028V17.7427H93.7777V15.7393H93.859ZM95.0308 6.44652C94.7063 6.44075 94.3869 6.52797 94.1104 6.69788C93.8539 6.82338 93.646 7.02996 93.5189 7.28561C93.357 7.54132 93.243 7.82441 93.1826 8.12099C93.1124 8.42248 93.0838 8.73215 93.0975 9.0414C93.0975 10.8009 93.7703 11.6289 95.1084 11.7213V6.44652H95.0308ZM98.5497 11.7213C98.8432 11.74 99.1365 11.6816 99.4004 11.5519C99.6643 11.4222 99.8897 11.2258 100.054 10.982C100.42 10.4377 100.596 9.78833 100.557 9.13381C100.57 8.79662 100.543 8.45904 100.476 8.12839C100.413 7.8324 100.299 7.54966 100.139 7.293C99.9885 7.05783 99.7894 6.85748 99.5551 6.70527C99.2519 6.52474 98.9023 6.43733 98.5497 6.45392V11.7213Z" fill="#F1F1F2"/>
<path d="M109.783 15.7393H110.955V14.0648C110.039 14.0586 109.132 13.8897 108.275 13.5658C107.643 13.2922 107.073 12.8922 106.601 12.3903C106.209 11.9284 105.923 11.3857 105.765 10.8009C105.605 10.257 105.52 9.69348 105.514 9.12641C105.487 8.46816 105.601 7.81175 105.846 7.20059C106.083 6.61703 106.457 6.0995 106.937 5.69246C107.444 5.24604 108.035 4.90434 108.674 4.68704C109.424 4.40664 110.218 4.26509 111.018 4.26934V2.17718H109.783V0H114.555V4.103C115.348 4.11315 116.135 4.22622 116.899 4.43938C117.522 4.65038 118.093 4.99189 118.573 5.4411C119.053 5.84894 119.427 6.36624 119.664 6.94923C119.902 7.56244 120.015 8.21732 119.996 8.87506C120.023 9.56094 119.909 10.245 119.664 10.8859C119.428 11.4727 119.088 12.0114 118.658 12.4754C118.176 12.9237 117.606 13.2662 116.984 13.4808C116.205 13.7625 115.383 13.9039 114.555 13.8985V15.5729H115.812V17.7427H109.783V15.7393ZM111.04 6.44652C110.715 6.44033 110.396 6.52759 110.12 6.69788C109.866 6.8258 109.66 7.03181 109.532 7.28561C109.372 7.54226 109.258 7.82501 109.195 8.12099C109.128 8.42292 109.101 8.73236 109.114 9.0414C109.114 10.8009 109.783 11.6289 111.121 11.7213V6.44652H111.04ZM114.555 11.7213C114.849 11.7399 115.143 11.6815 115.407 11.5519C115.672 11.4222 115.898 11.2258 116.063 10.982C116.427 10.4369 116.604 9.78813 116.566 9.13381C116.58 8.79643 116.551 8.45863 116.481 8.12839C116.42 7.83264 116.307 7.54991 116.148 7.293C115.996 7.05774 115.796 6.85742 115.561 6.70527C115.257 6.52474 114.908 6.43733 114.555 6.45392V11.7213Z" fill="#F1F1F2"/>
<path d="M12.2905 30.8463V30.059H12.7637V27.1721H12.2979V26.3848H16.3196V27.904H15.4657V27.1647H14.0094V30.0516H14.6082V30.8389L12.2905 30.8463Z" fill="#F1F1F2"/>
<path d="M21.3466 28.6031C21.3497 28.9158 21.301 29.2268 21.2024 29.5235C21.1169 29.7966 20.9745 30.0486 20.7847 30.2628C20.5926 30.4763 20.3534 30.6421 20.0861 30.747C19.7769 30.8692 19.4463 30.9283 19.1139 30.9207C18.7719 30.9289 18.4315 30.8699 18.1122 30.747C17.8458 30.6419 17.6059 30.479 17.4099 30.2702C17.2152 30.0595 17.0722 29.8064 16.9922 29.5309C16.8979 29.2295 16.8517 28.9152 16.8554 28.5994C16.8573 28.2917 16.9072 27.9861 17.0033 27.6938C17.0869 27.4206 17.2281 27.1685 17.4173 26.9545C17.6079 26.7401 17.8458 26.5731 18.1122 26.4666C18.7565 26.2299 19.464 26.2299 20.1083 26.4666C20.3747 26.5747 20.6125 26.743 20.8032 26.9582C20.9887 27.1736 21.1272 27.4254 21.2098 27.6975C21.3012 27.9906 21.3473 28.296 21.3466 28.6031ZM20.0159 28.6031C20.0107 28.4172 19.9922 28.2319 19.9604 28.0486C19.9387 27.8876 19.89 27.7314 19.8162 27.5866C19.753 27.4594 19.659 27.3502 19.5427 27.2687C19.4098 27.1867 19.2552 27.1468 19.0991 27.1541C18.9405 27.1485 18.7837 27.1896 18.6482 27.2724C18.5264 27.3535 18.4272 27.4641 18.3599 27.594C18.2849 27.7386 18.2349 27.8948 18.212 28.056C18.1817 28.2393 18.1668 28.4248 18.1677 28.6105C18.1668 28.8148 18.1829 29.0188 18.2157 29.2204C18.2415 29.3801 18.2953 29.5341 18.3747 29.6751C18.4443 29.7935 18.5437 29.8916 18.663 29.9597C18.7974 30.0298 18.9476 30.0642 19.0991 30.0595C19.2419 30.0661 19.3835 30.0312 19.5068 29.9591C19.6301 29.8869 19.7299 29.7806 19.7941 29.6529C19.8767 29.514 19.933 29.3612 19.9604 29.2019C19.9972 29.0069 20.0158 28.8089 20.0159 28.6105V28.6031Z" fill="#F1F1F2"/>
<path d="M26.2442 27.7929C26.2455 27.972 26.2142 28.1498 26.1518 28.3178C26.0855 28.4929 25.9831 28.6522 25.8513 28.7853C25.7195 28.9183 25.5612 29.0223 25.3867 29.0903C25.1675 29.1746 24.9339 29.2148 24.6991 29.2086H23.9599V30.0588H24.5513V30.8461H22.2595V30.0588H22.7327V27.1682H22.278V26.3771H24.6141C24.8646 26.3739 25.1141 26.4101 25.3534 26.4843C25.5428 26.5449 25.7169 26.6458 25.8635 26.7801C25.9927 26.9036 26.0914 27.0554 26.1518 27.2236C26.2139 27.407 26.2451 27.5993 26.2442 27.7929ZM23.9783 27.1682V28.4619H24.3739C24.4514 28.4668 24.529 28.4552 24.6017 28.4278C24.6743 28.4004 24.7403 28.3579 24.7953 28.303C24.9025 28.1725 24.9554 28.0057 24.9431 27.8372C24.9589 27.6581 24.9031 27.48 24.7879 27.3419C24.7283 27.286 24.6578 27.243 24.5809 27.2156C24.5039 27.1882 24.4221 27.1771 24.3406 27.183L23.9783 27.1682Z" fill="#F1F1F2"/>
<path d="M31.5561 28.6035C31.5617 28.9157 31.5154 29.2267 31.4193 29.5239C31.331 29.7966 31.1876 30.0482 30.998 30.2631C30.8086 30.4739 30.5734 30.6383 30.3104 30.7437C30.0025 30.8659 29.6732 30.925 29.342 30.9174C29.0014 30.9258 28.6625 30.868 28.3439 30.7474C28.0801 30.6433 27.8433 30.4808 27.6512 30.2721C27.4591 30.0634 27.3169 29.8139 27.235 29.5423C27.1438 29.2404 27.0989 28.9263 27.102 28.6109C27.0994 28.3003 27.1443 27.9912 27.235 27.6941C27.3199 27.4208 27.4624 27.1687 27.6527 26.9549C27.8448 26.7396 28.0838 26.5714 28.3513 26.4632C28.6702 26.3384 29.0107 26.2781 29.3531 26.2858C29.6809 26.2839 30.006 26.3454 30.3104 26.4669C30.5772 26.5745 30.8151 26.7428 31.0053 26.9586C31.1934 27.1728 31.3333 27.4249 31.4156 27.6978C31.5083 27.9908 31.5556 28.2962 31.5561 28.6035ZM30.2217 28.6035C30.223 28.4155 30.2107 28.2277 30.1848 28.0416C30.1631 27.8806 30.1143 27.7243 30.0406 27.5796C29.9762 27.4532 29.8824 27.3441 29.7671 27.2617C29.6341 27.1797 29.4795 27.1398 29.3235 27.1471C29.1637 27.142 29.0059 27.1831 28.8688 27.2654C28.7489 27.3485 28.6501 27.4586 28.5805 27.5869C28.5071 27.7322 28.4572 27.8881 28.4327 28.049C28.4054 28.2326 28.3918 28.4179 28.392 28.6035C28.3893 28.8078 28.4054 29.012 28.44 29.2134C28.4658 29.3731 28.5196 29.527 28.599 29.668C28.6686 29.7864 28.768 29.8845 28.8873 29.9526C29.0216 30.0231 29.1719 30.0575 29.3235 30.0525C29.4703 30.0552 29.615 30.0168 29.7412 29.9416C29.8586 29.8683 29.9544 29.7649 30.0184 29.6422C30.0931 29.5047 30.1455 29.3562 30.1737 29.2023C30.2079 29.007 30.224 28.8091 30.2217 28.6109V28.6035Z" fill="#F1F1F2"/>
<path d="M32.9535 30.8463V32.044H32.0405V30.0775L32.4878 30.059C32.7645 29.7429 32.9554 29.3611 33.0423 28.9501C33.1448 28.4516 33.1932 27.9434 33.1864 27.4345V27.1758H32.6541V26.3848H36.942V27.1721H36.4762V30.059L36.9493 30.0775V32.044H36.0511V30.8463H32.9535ZM34.2769 27.5196C34.2769 27.8079 34.2768 28.0703 34.2547 28.3106C34.2412 28.5365 34.2128 28.7612 34.1697 28.9833C34.1346 29.184 34.0801 29.3809 34.007 29.5711C33.9355 29.7497 33.8397 29.9176 33.7224 30.0701H35.2453V27.1721H34.2769V27.5196Z" fill="#F1F1F2"/>
<path d="M39.2448 28.5834C39.2393 28.8065 39.2655 29.0293 39.3224 29.2451C39.3601 29.4015 39.4378 29.5454 39.5479 29.6627C39.6492 29.7674 39.7769 29.8427 39.9175 29.8808C40.0978 29.9238 40.2829 29.9437 40.4683 29.94H40.6679L40.934 29.9141L41.2223 29.8734C41.3122 29.8608 41.4011 29.8422 41.4885 29.818L41.6696 30.6719C41.5571 30.7141 41.4424 30.7499 41.3258 30.7791C41.204 30.8121 41.0806 30.8392 40.9562 30.8604C40.8268 30.8826 40.6938 30.8973 40.5607 30.9084C40.4276 30.9195 40.2982 30.9084 40.191 30.9084C39.8127 30.9219 39.4356 30.859 39.0821 30.7236C38.8126 30.6143 38.5749 30.4388 38.3909 30.2135C38.2214 29.9961 38.1027 29.7435 38.0434 29.4742C37.976 29.1884 37.9425 28.8956 37.9436 28.6019C37.9438 28.3192 37.9773 28.0376 38.0434 27.7628C38.1044 27.4782 38.233 27.2124 38.4183 26.9878C38.6035 26.7633 38.8401 26.5867 39.108 26.4728C39.4793 26.3209 39.8789 26.2503 40.2798 26.2658C40.4988 26.2641 40.7176 26.2802 40.934 26.3138C41.1301 26.3456 41.324 26.39 41.5144 26.4469V27.8811H40.6568V27.2453C40.5982 27.2325 40.539 27.2226 40.4794 27.2157H40.2908C40.1231 27.2113 39.9565 27.2441 39.8029 27.3118C39.6752 27.3727 39.5666 27.4673 39.4887 27.5854C39.4014 27.7176 39.3411 27.8659 39.3113 28.0215C39.2693 28.2059 39.247 28.3943 39.2448 28.5834Z" fill="#F1F1F2"/>
<path d="M44.2533 30.059H44.6932V30.8463H42.5308V30.059H43.0039V27.1721H42.5308V26.3848H44.6932V27.1721H44.2533V30.059ZM46.619 30.0183L47.2363 30.0775V30.7576C47.1675 30.7842 47.0972 30.8064 47.0256 30.8242C46.948 30.8242 46.8777 30.8611 46.8038 30.8722C46.7299 30.8833 46.667 30.8944 46.6042 30.9018H46.4453C46.2737 30.9148 46.1012 30.8922 45.9388 30.8352C45.7941 30.7696 45.6729 30.6612 45.5914 30.5247L44.4344 28.7579V28.3771L45.5064 26.7322C45.5818 26.5933 45.6944 26.478 45.8317 26.3996C45.9607 26.3376 46.1026 26.3072 46.2457 26.3108C46.5328 26.3087 46.8156 26.3813 47.0663 26.5215L47.0034 27.198L46.4379 27.246L45.547 28.4622L46.619 30.0183Z" fill="#F1F1F2"/>
<path d="M50.9809 26.3887H53.1285V27.1686H52.6479V30.0592H53.1285V30.8465H51.0104V30.0592H51.4355V28.3108L50.5891 29.0833L49.7463 29.8596V30.0592H50.1714V30.8465H48.0201V30.0592H48.5117V27.1686H48.0164V26.3887H50.164V27.1686H49.7389V28.8874L51.4318 27.3534V27.1686H50.9809V26.3887Z" fill="#F1F1F2"/>
<path d="M54.0156 30.8463V30.059H54.4814V27.1721H54.0193V26.3848H58.0336V27.9151H57.1834V27.1758H55.7271V28.196L57.0984 28.1443V28.9649L55.7271 28.9279V30.0627H57.25V29.2569H58.1075V30.8463H54.0156Z" fill="#F1F1F2"/>
<path d="M65.3082 27.793C65.3095 27.9721 65.2781 28.1499 65.2158 28.3178C65.1519 28.4856 65.0551 28.6389 64.9312 28.7688C64.7956 28.9106 64.6302 29.0204 64.447 29.0904C64.2291 29.1749 63.9967 29.2151 63.7631 29.2087H63.0238V30.0589H63.6116V30.8462H61.3235V30.0589H61.7744V27.1683H61.3235V26.3772H63.6596C63.9102 26.3733 64.1598 26.4095 64.3989 26.4844C64.5898 26.5441 64.7652 26.6451 64.9127 26.7801C65.0419 26.9037 65.1406 27.0555 65.201 27.2237C65.2681 27.4062 65.3043 27.5986 65.3082 27.793ZM63.0312 27.1683V28.462H63.4267C63.5042 28.4669 63.5819 28.4553 63.6546 28.4279C63.7272 28.4005 63.7932 28.3579 63.8481 28.3031C63.9466 28.1622 63.9994 27.9944 63.9994 27.8225C63.9994 27.6506 63.9466 27.4829 63.8481 27.342C63.7886 27.2861 63.7181 27.243 63.6411 27.2157C63.5642 27.1883 63.4824 27.1772 63.4009 27.1831L63.0312 27.1683Z" fill="#F1F1F2"/>
<path d="M66.0842 30.8463V30.059H66.5352V27.1721H66.0916V26.3848H70.1096V27.9151H69.2557V27.1758H67.7994V28.196L69.1707 28.1443V28.9649L67.7994 28.9279V30.0627H69.3186V29.2569H70.1799V30.8463H66.0842Z" fill="#F1F1F2"/>
<path d="M72.3793 28.5841C72.3747 28.807 72.3995 29.0294 72.4532 29.2458C72.4924 29.4016 72.5699 29.5452 72.6787 29.6635C72.7806 29.7674 72.9081 29.8426 73.0483 29.8816C73.2287 29.9242 73.4137 29.9441 73.5991 29.9407H73.7987L74.0648 29.9148L74.3568 29.8742C74.4467 29.8615 74.5356 29.8429 74.623 29.8187L74.8041 30.6726C74.6916 30.7148 74.5769 30.7506 74.4603 30.7798C74.3347 30.813 74.2053 30.8389 74.0907 30.8611C73.9761 30.8833 73.8246 30.8981 73.6915 30.9092C73.5584 30.9202 73.429 30.9092 73.3218 30.9092C72.9436 30.9221 72.5666 30.8592 72.2129 30.7243C71.9439 30.6159 71.7072 30.4402 71.5254 30.2142C71.3546 29.9971 71.2346 29.7445 71.1742 29.4749C71.1099 29.1886 71.0776 28.8961 71.0781 28.6026C71.0789 28.3202 71.1111 28.0388 71.1742 27.7635C71.2441 27.4938 71.3701 27.2419 71.5439 27.0242C71.7339 26.7886 71.9789 26.6033 72.2573 26.4846C72.6285 26.3324 73.0281 26.2618 73.429 26.2776C73.6468 26.2759 73.8644 26.292 74.0796 26.3256C74.2769 26.3574 74.472 26.4018 74.6636 26.4587V27.8929H73.8024V27.246C73.7439 27.2326 73.6846 27.2227 73.625 27.2164H73.4475C73.2797 27.2111 73.1129 27.244 72.9596 27.3126C72.8309 27.3733 72.721 27.4678 72.6417 27.5861C72.5495 27.716 72.4842 27.8631 72.4495 28.0186C72.406 28.204 72.3824 28.3936 72.3793 28.5841Z" fill="#F1F1F2"/>
<path d="M76.4787 30.8459V30.0586H77.0109V27.168H76.3382V27.9294H75.488V26.377H79.7537V27.9294H78.9035V27.168H78.2381V30.0586H78.763V30.8459H76.4787Z" fill="#F1F1F2"/>
<path d="M85.0174 28.6025C85.0206 28.9151 84.9718 29.2262 84.8732 29.5229C84.7877 29.796 84.6453 30.0479 84.4555 30.2622C84.2616 30.4736 84.0229 30.639 83.7569 30.7464C83.4477 30.8686 83.1172 30.9277 82.7848 30.9201C82.4454 30.9292 82.1075 30.8714 81.7904 30.7501C81.524 30.6449 81.2842 30.4821 81.0881 30.2732C80.8934 30.0626 80.7504 29.8095 80.6704 29.534C80.5761 29.2326 80.53 28.9182 80.5337 28.6025C80.5308 28.2916 80.5769 27.9822 80.6704 27.6858C80.754 27.4126 80.8952 27.1605 81.0844 26.9465C81.2768 26.7298 81.5173 26.5614 81.7867 26.4549C82.431 26.2182 83.1385 26.2182 83.7828 26.4549C84.0486 26.5641 84.2862 26.7322 84.4777 26.9465C84.6633 27.1619 84.8018 27.4137 84.8843 27.6858C84.9756 27.9827 85.0204 28.2919 85.0174 28.6025ZM83.683 28.6025C83.6843 28.4145 83.6719 28.2268 83.646 28.0406C83.6244 27.8796 83.5756 27.7234 83.5019 27.5786C83.4387 27.4514 83.3446 27.3421 83.2283 27.2607C83.0954 27.1787 82.9408 27.1388 82.7848 27.1461C82.6261 27.1404 82.4693 27.1816 82.3338 27.2644C82.212 27.3455 82.1129 27.4561 82.0455 27.586C81.9692 27.7303 81.918 27.8865 81.8939 28.048C81.8667 28.2316 81.8531 28.4169 81.8533 28.6025C81.8506 28.8068 81.8667 29.011 81.9013 29.2124C81.9271 29.3721 81.9809 29.526 82.0603 29.667C82.1299 29.7854 82.2293 29.8836 82.3486 29.9517C82.4829 30.0221 82.6332 30.0565 82.7848 30.0515C82.9313 30.0553 83.0759 30.0182 83.2025 29.9443C83.3199 29.871 83.4156 29.7676 83.4797 29.6449C83.5588 29.5041 83.6114 29.35 83.6349 29.1902C83.6648 28.9983 83.6772 28.804 83.6719 28.6099L83.683 28.6025Z" fill="#F1F1F2"/>
<path d="M89.9149 27.7929C89.9161 27.972 89.8848 28.1498 89.8225 28.3178C89.7586 28.4855 89.6618 28.6388 89.5379 28.7687C89.4023 28.9105 89.2369 29.0203 89.0536 29.0903C88.8358 29.1748 88.6034 29.215 88.3698 29.2086H87.6305V30.0588H88.2183V30.8461H85.9302V30.0588H86.3811V27.1682H85.9302V26.3771H88.2663C88.5168 26.3739 88.7663 26.4101 89.0056 26.4843C89.195 26.5449 89.369 26.6458 89.5157 26.7801C89.6449 26.9036 89.7436 27.0554 89.804 27.2236C89.8723 27.4059 89.9098 27.5983 89.9149 27.7929ZM87.6379 27.1682V28.4619H88.0334C88.1109 28.4668 88.1886 28.4552 88.2612 28.4278C88.3339 28.4004 88.3999 28.3579 88.4548 28.303C88.5533 28.1621 88.606 27.9943 88.606 27.8224C88.606 27.6506 88.5533 27.4828 88.4548 27.3419C88.3953 27.286 88.3248 27.243 88.2478 27.2156C88.1709 27.1882 88.089 27.1771 88.0076 27.183L87.6379 27.1682Z" fill="#F1F1F2"/>
<path d="M93.3563 30.059L93.2159 29.6043H91.7373L91.5895 30.059H91.985V30.8463H90.0776V30.059H90.4251L91.7854 26.3848H93.3157L94.5983 30.059H94.968V30.8463H92.9904V30.059H93.3563ZM92.9867 28.8614C92.9128 28.6026 92.8352 28.3513 92.7575 28.1221C92.6799 27.8929 92.6023 27.6231 92.5247 27.3828H92.4988C92.4988 27.4604 92.447 27.5602 92.4101 27.6822C92.3731 27.8042 92.3287 27.9373 92.2807 28.0777L92.1328 28.4621C92.0885 28.6063 92.0441 28.7357 92.0035 28.854L92.9867 28.8614Z" fill="#F1F1F2"/>
<path d="M98.5462 30.8463V30.059H98.9528V28.9205H97.4262V30.059H97.8328V30.8463H95.7V30.059H96.1768V27.1721H95.7V26.3848H97.8328V27.1721H97.4262V28.1812H98.9528V27.1721H98.5462V26.3848H100.668V27.1721H100.202V30.059H100.668V30.8463H98.5462Z" fill="#F1F1F2"/>
<path d="M103.751 27.168H103.278V28.0588H104.076C104.292 28.0586 104.508 28.0809 104.719 28.1253C104.916 28.1673 105.104 28.245 105.274 28.3545C105.437 28.4651 105.571 28.6134 105.665 28.787C105.772 28.9909 105.824 29.2187 105.817 29.4487C105.822 29.6622 105.785 29.8747 105.706 30.0734C105.638 30.2406 105.53 30.3889 105.392 30.5058C105.247 30.6253 105.078 30.7123 104.897 30.7609C104.686 30.821 104.468 30.8496 104.25 30.8459H101.559V30.0586H102.021V27.168H101.548V26.377H103.74L103.751 27.168ZM103.278 28.8314V30.0549H103.913C103.991 30.0576 104.069 30.0446 104.142 30.0167C104.215 29.9887 104.282 29.9464 104.338 29.8922C104.395 29.8306 104.438 29.7583 104.466 29.6795C104.494 29.6008 104.506 29.5173 104.501 29.4339C104.507 29.3518 104.495 29.2695 104.466 29.1924C104.437 29.1152 104.393 29.0451 104.335 28.9866C104.213 28.8803 104.056 28.8248 103.895 28.8314H103.278ZM106.087 30.8459V30.0586H106.553V27.168H106.087V26.3843H108.26V27.168H107.802V30.0586H108.26V30.8459H106.087Z" fill="#F1F1F2"/>
<path d="M4.37646 21.1797H115.546" stroke="#F1F1F2" stroke-miterlimit="10"/>
<path d="M4.37646 36.125H115.546" stroke="#F1F1F2" stroke-miterlimit="10"/>
<path d="M7.63311 30.1476C8.40683 30.1476 9.03405 29.5204 9.03405 28.7466C9.03405 27.9729 8.40683 27.3457 7.63311 27.3457C6.8594 27.3457 6.23218 27.9729 6.23218 28.7466C6.23218 29.5204 6.8594 30.1476 7.63311 30.1476Z" fill="#F1F1F2"/>
<path d="M112.74 30.1476C113.514 30.1476 114.141 29.5204 114.141 28.7466C114.141 27.9729 113.514 27.3457 112.74 27.3457C111.966 27.3457 111.339 27.9729 111.339 28.7466C111.339 29.5204 111.966 30.1476 112.74 30.1476Z" fill="#F1F1F2"/>
</svg>
