<svg width="90" height="74" viewBox="0 0 90 74" fill="none" xmlns="http://www.w3.org/2000/svg">
<g clip-path="url(#clip0_1_244)">
<path d="M65.4498 46.4274C65.0818 44.7487 64.4509 43.2274 63.0841 42.1257C61.9276 41.1814 60.6133 40.9191 59.1413 41.3388C58.1951 41.6011 57.4591 42.1257 56.8808 42.9126C56.7757 43.07 56.618 43.1749 56.4603 43.3847C56.4603 42.5454 56.4603 41.8634 56.4603 41.1814C56.4603 40.4995 56.3551 40.3945 55.6717 40.3945C54.2523 40.3945 52.8329 40.3945 51.4135 40.3945C50.7827 40.3945 50.6775 40.4995 50.6775 41.1814C50.6775 41.8634 50.6775 42.5978 50.6775 43.2798C50.625 43.2798 50.625 43.2798 50.5724 43.3323C50.4673 43.1749 50.3621 43.0175 50.2044 42.8601C48.2593 40.5519 45.2628 40.7093 43.2652 42.7028C42.3189 43.6995 41.8458 44.9585 41.5303 46.27C41.2149 47.6864 41.2149 49.1553 41.3726 50.5717C41.5829 52.0406 42.0035 53.4045 42.8972 54.6111C44.1589 56.3423 46.1565 56.9718 48.1542 56.2898C48.9953 55.975 49.6261 55.4504 50.2044 54.7685C50.257 54.716 50.3621 54.5586 50.4673 54.6111C50.5724 54.6635 50.5198 55.1357 50.5198 55.1881C50.5198 56.9718 50.625 58.3882 49.889 60.0669C49.7313 60.4341 49.8364 60.8013 50.0467 61.1161C50.3096 61.5358 50.7301 61.7981 51.2032 61.9554C51.7815 62.1128 52.3598 62.1128 52.9906 62.0079C54.9883 61.798 56.4603 60.0669 56.4077 58.021C56.4077 57.2341 56.4077 56.4996 56.4077 55.7127C56.4077 55.2406 56.4077 54.8209 56.4077 54.2439C56.5654 54.4012 56.618 54.5062 56.6705 54.5586C57.6168 55.8177 58.8259 56.6045 60.5082 56.4996C61.7698 56.4472 62.8212 55.9226 63.6624 55.0308C64.9766 53.5619 65.5023 51.7783 65.66 49.8897C65.7126 48.6831 65.66 47.5815 65.4498 46.4274ZM50.3621 51.2012C50.3096 51.411 50.2044 51.5684 50.0993 51.7258C49.5736 52.6176 48.3645 52.6176 47.8388 51.7783C47.4708 51.2012 47.3656 50.5717 47.3131 49.9422C47.2605 49.575 47.2605 49.1553 47.2605 48.7356C47.2605 47.9487 47.3131 47.1618 47.6285 46.3749C47.7862 45.9553 47.9965 45.588 48.417 45.3782C48.9953 45.0634 49.6787 45.2208 50.0467 45.7454C50.4673 46.27 50.5724 46.952 50.625 47.5815C50.6775 48.7881 50.7301 49.9946 50.3621 51.2012ZM59.4042 51.0963C59.3516 51.3586 59.2465 51.5684 59.0888 51.7783C58.5631 52.6701 57.2488 52.6701 56.8283 51.7258C56.5654 51.0963 56.3551 50.4143 56.3025 49.6799C56.1974 48.6831 56.3551 47.4241 56.5128 46.7421C56.618 46.3749 56.8283 45.9552 57.0385 45.6405C57.5642 44.9585 58.5631 45.011 58.9836 45.7454C59.2465 46.2175 59.5093 46.7946 59.6145 47.3717C59.8247 48.5782 59.8247 49.8373 59.4042 51.0963Z" fill="#F1F1F2"/>
<path d="M7.30723 35.0426C6.72896 34.2033 6.8341 33.2066 7.67522 32.6295C8.04321 32.3672 8.46377 32.2623 8.83176 32.0524C9.09461 31.9475 9.19975 32.0524 9.19975 32.3147C9.19975 32.4197 9.19975 32.577 9.19975 32.682C9.19975 33.9935 9.19975 35.3574 9.19975 36.6689C9.19975 37.4558 9.41003 37.6656 10.146 37.6656C11.4077 37.6656 12.6694 37.6656 13.9311 37.6656C14.6145 37.6656 14.8248 37.4558 14.8248 36.8263C14.8248 36.0394 14.8248 35.2525 14.8248 34.518C14.8248 33.7312 14.8248 32.9443 14.8248 32.1574C14.8248 32 14.7722 31.6328 14.9825 31.6328C15.1402 31.6328 15.2453 32.2623 15.2453 32.3147C15.403 33.0492 15.4556 33.7836 15.6659 34.4656C16.1916 36.4591 17.4007 37.7181 19.5561 37.9804C21.2383 38.1902 22.7103 37.7181 23.8142 36.4066C24.1822 35.9869 24.1297 35.6722 23.7091 35.3049C23.1834 34.8328 22.6577 34.3607 22.0794 33.941C21.028 33.0492 20.2395 32 19.6612 30.7934C19.4509 30.4262 19.5035 30.3737 19.8715 30.2164C20.6075 29.8491 21.2909 29.377 21.9217 28.7999C22.9205 27.8032 23.0783 26.3343 22.5 25.0753C21.6063 23.0818 19.0304 22.2425 16.9801 23.6589C16.7173 23.8687 16.507 24.131 16.2967 24.3933C16.0339 24.7606 16.0339 25.1278 16.3493 25.495C16.5596 25.7573 16.7173 26.0196 16.875 26.2819C17.0853 26.7016 17.1378 27.1737 16.9276 27.6458C16.5596 28.3803 15.9287 28.7475 15.1402 28.9573C14.9299 29.0098 14.7722 28.9049 14.7722 28.695C14.7722 28.5377 14.7722 28.3803 14.7722 28.2754C14.7722 26.9639 14.7722 25.6524 14.7722 24.3409C14.7722 23.6064 14.5619 23.3966 13.8259 23.3966C12.5642 23.3966 11.3026 23.3966 10.0934 23.3966C9.35746 23.3966 9.14718 23.6064 9.14718 24.3409C9.14718 25.2852 9.14718 26.2294 9.14718 27.1737C9.14718 27.8557 9.14718 28.5377 9.14718 29.2196C9.14718 29.3245 9.04204 29.4295 8.9369 29.5344C8.88433 29.4295 8.77919 29.3245 8.72662 29.2196C8.62148 28.4852 8.51634 27.7508 8.35863 27.0163C7.93807 25.1802 7.04438 23.7114 5.04672 23.2392C3.94275 22.9769 2.83877 23.0294 1.78737 23.4491C1.10396 23.7638 0.473119 24.1835 0.0525583 24.8655C-0.157722 25.1802 -0.157722 25.4425 0.157699 25.7048C0.578259 26.072 1.05139 26.4393 1.47195 26.8065C2.57592 27.8032 3.57475 28.9049 4.2056 30.2688C4.41588 30.6885 4.36331 30.741 3.99531 30.9508C3.46961 31.2656 2.94391 31.5803 2.41821 31.9475C0.525689 33.3115 0.84111 35.7771 1.99765 37.0886C2.83877 37.9804 3.89018 38.2427 5.04672 38.1902C6.04555 38.1378 6.8341 37.7181 7.46494 36.9312C7.83293 36.4591 7.83293 36.1443 7.46494 35.6197C7.51751 35.3049 7.41237 35.2 7.30723 35.0426Z" fill="#F1F1F2"/>
<path d="M45.2627 37.2983C47.2604 38.3475 49.3106 38.4 51.3608 37.6656C52.9905 37.0885 54.1996 36.0393 54.9356 34.4655C55.5139 33.2065 55.619 31.9475 55.3562 30.5835C55.0933 28.9573 54.1996 27.6458 52.7277 26.9113C51.9917 26.5441 51.2031 26.3343 50.4672 26.072C50.8351 25.9146 51.2031 25.7048 51.5711 25.4949C52.5174 24.9703 53.3585 24.3408 53.9368 23.3965C54.8305 21.9277 54.8305 20.4063 53.9368 18.9375C52.8328 17.0489 50.6249 16.1571 48.4169 16.6817C46.4718 17.1014 44.9473 18.203 43.7382 19.7768C42.4239 21.508 41.7931 23.5539 41.3725 25.6523C41.1097 26.9638 41.1623 28.3277 41.1623 29.6917C41.1623 31.3704 41.5302 32.9966 42.3714 34.4655C43.1073 35.6721 44.0536 36.6164 45.2627 37.2983ZM47.5758 23.449C47.7335 22.5572 47.8912 21.7178 48.3118 20.9309C48.6798 20.1965 49.3106 20.1965 49.7837 20.3539C50.0466 20.4588 50.2569 20.826 50.2043 21.2457C50.1517 21.4555 50.0466 21.8227 49.8363 22.085C49.3106 22.767 48.6272 23.2916 47.8912 23.6588C47.6809 23.7113 47.5232 23.8162 47.5758 23.449ZM48.1541 29.1671C49.1529 29.272 49.9415 29.954 50.1517 30.9507C50.362 31.8425 50.362 32.7343 49.9415 33.5737C49.7837 33.8885 49.626 34.1508 49.4158 34.3606C48.9952 34.7803 48.1541 34.8327 47.6809 34.1508C47.2078 33.5212 47.1027 32.7343 46.9975 31.9999C46.8924 31.4229 46.8924 30.8458 46.8924 30.4786C46.8398 29.272 47.1027 29.0097 48.1541 29.1671Z" fill="#F1F1F2"/>
<path d="M25.9695 22.8727C25.2861 23.0301 24.7079 23.3973 24.445 24.0793C24.3399 24.2891 24.3399 24.6563 24.3924 24.8662C24.9181 26.1777 25.0759 27.5416 25.0759 28.9056C25.0759 30.4794 25.0759 32.0007 25.0759 33.5745C25.0759 34.5712 25.3387 35.5155 25.8644 36.3548C26.7055 37.7712 28.1775 38.4532 29.8072 38.1385C31.2791 37.8762 32.3305 36.9844 33.1191 35.8302C33.2242 35.7253 33.3294 35.6204 33.4345 35.463C33.4871 35.5679 33.5922 35.6729 33.6448 35.8302C34.3282 37.4565 35.9053 38.5057 37.903 38.1909C39.0069 38.0335 39.848 37.5089 40.4789 36.5647C40.8469 36.0401 40.8469 35.8302 40.2686 35.5155C39.7429 35.2007 39.4275 34.7286 39.3223 34.0991C39.2172 33.3646 39.1121 32.6827 39.1121 31.9482C39.1121 31.0564 39.1646 30.1646 39.2172 29.2203C39.2698 27.5941 39.3223 25.9154 39.3223 24.2891C39.3223 23.5022 39.1121 23.2924 38.3235 23.2924C37.5875 23.2924 36.8515 23.2924 36.1156 23.2924C35.4847 23.2924 34.8539 23.2924 34.223 23.2924C33.5396 23.3449 33.3294 23.5547 33.2768 24.2367C33.2768 24.394 33.2768 24.5514 33.2768 24.6563C33.2768 25.758 33.2768 26.8072 33.2768 27.9088C33.2768 29.0629 33.2768 30.1646 33.2768 31.3187C33.2768 32.0007 33.0665 32.6302 32.7511 33.2597C32.5934 33.522 32.3831 33.7319 32.1202 33.8892C31.7523 34.0991 31.0163 33.8368 31.0163 32.6302C30.9637 30.8466 31.0163 29.0105 31.0163 27.2269C31.0163 26.7547 30.9637 26.2301 30.8586 25.758C30.5431 24.499 29.7546 23.6071 28.598 23.135C27.7044 22.7678 26.8632 22.7153 25.9695 22.8727Z" fill="#F1F1F2"/>
<path d="M89.7371 35.5151C89.0011 35.0955 88.6857 34.4135 88.5806 33.6791C88.4228 32.7872 88.4228 31.9479 88.4754 31.0561C88.528 28.7479 88.5806 26.4396 88.6331 24.1314C88.6331 23.5544 88.4228 23.2921 87.8446 23.2921C86.4252 23.2921 85.0058 23.2921 83.5338 23.2921C82.8504 23.2921 82.6401 23.5544 82.6401 24.2363C82.6401 25.3904 82.6401 26.4921 82.6401 27.6462C82.6401 27.6462 82.5876 30.479 82.535 31.8954C82.4824 32.6299 82.2196 33.2594 81.6413 33.7315C81.1682 34.1512 80.695 34.0463 80.4848 33.4168C80.3796 33.102 80.2745 32.7348 80.2745 32.3676C80.2745 30.5839 80.2745 28.8528 80.2745 27.0691C80.2745 26.6495 80.2219 26.2298 80.1693 25.8101C79.9065 24.4462 79.0654 23.5019 77.7511 22.9773C77.0677 22.715 76.3843 22.6625 75.7009 22.7675C75.1226 22.8199 74.5969 22.9773 74.1764 23.3445C73.7558 23.7642 73.4929 24.2888 73.8084 24.9183C73.9661 25.2855 74.1238 25.7052 74.1764 26.1249C74.3341 27.2265 74.4392 28.3282 74.4918 29.4298C74.5443 30.9512 74.4918 32.42 74.4918 33.9414C74.5443 35.2528 75.0175 36.3545 75.9637 37.1939C77.278 38.4004 78.9077 38.4529 80.4848 37.6135C81.3785 37.1414 82.5876 35.725 82.7978 35.3578C82.8504 35.4627 82.903 35.5676 82.9556 35.6725C83.8492 38.0332 86.5303 38.925 88.7383 37.6135C89.2114 37.3512 89.5794 36.984 89.8948 36.4594C90.0525 36.0397 90.0525 35.6725 89.7371 35.5151Z" fill="#F1F1F2"/>
<path d="M24.7605 54.8209C24.2873 54.5061 23.8142 54.1389 23.4462 53.7193C22.1319 52.4078 21.2908 50.7291 20.5548 49.0503C20.4497 48.788 20.5023 48.6307 20.7651 48.5257C21.0805 48.3159 21.4485 48.1061 21.764 47.8438C23.0782 46.847 23.6565 45.588 23.3411 43.9618C23.1834 43.0175 22.7102 42.2831 21.9217 41.7585C20.9754 41.1814 19.9766 40.9191 18.8726 41.1814C18.1366 41.3912 17.5058 41.7585 17.0326 42.3355C16.6647 42.8076 16.6647 43.1749 17.0326 43.647C17.2429 43.9093 17.4006 44.1716 17.5584 44.4864C17.9789 45.2208 17.8212 46.0601 17.1904 46.5847C16.8224 46.8995 16.3492 47.1093 15.8761 47.3192C15.6658 47.4241 15.5081 47.3716 15.4555 47.0569C15.403 46.3749 15.403 45.7454 15.3504 45.0634C15.1401 41.8634 12.7219 40.3945 9.72541 41.1814C9.67284 41.1814 9.5677 41.2339 9.51513 41.2339C8.674 41.6011 8.46372 42.3355 8.93685 43.0699C9.14713 43.4372 9.30484 43.8568 9.35741 44.2765C9.77798 46.8995 9.67284 52.9324 9.67284 54.4012C9.67284 55.293 9.98826 55.7127 10.8294 55.7127C11.9859 55.7127 13.1425 55.7127 14.299 55.7127C15.1401 55.7127 15.4555 55.4504 15.4555 54.5586C15.4555 53.8766 15.4555 53.1947 15.4555 52.5127C15.4555 51.7782 15.4555 51.0438 15.4555 50.3094C15.4555 50.2045 15.4555 49.9422 15.6133 49.9422C15.771 49.9422 16.3492 52.6701 16.7698 53.6668C17.6109 55.6078 18.9252 56.9717 21.1331 57.2865C22.6051 57.4963 23.9193 57.1816 24.9182 56.0275C25.4439 55.5553 25.3913 55.2406 24.7605 54.8209Z" fill="#F1F1F2"/>
<path d="M72.7043 30.4789C72.7043 29.4821 72.5466 28.5379 72.1786 27.5411C71.3901 25.6001 70.0758 24.1837 68.1307 23.4493C66.3433 22.7148 64.5034 22.6099 62.6108 23.1345C59.1938 24.1312 56.9333 27.0165 56.8281 30.5313C56.7756 31.9477 57.1961 33.2592 57.9321 34.4133C58.7732 35.7248 59.8772 36.7216 61.2966 37.2986C62.7686 37.9281 64.3457 38.1904 65.9753 37.9806C67.8153 37.7707 69.3924 37.0363 70.6541 35.7248C71.9683 34.3084 72.6517 32.6297 72.7043 30.4789ZM66.8165 32.4199C66.7113 32.9445 66.4485 33.4691 66.2382 33.8887C65.6073 35.0428 63.9777 34.8855 63.3994 33.7838C62.9788 32.9969 62.7686 32.1576 62.716 31.2658C62.6108 30.1116 62.716 29.01 63.084 27.9083C63.1891 27.5411 63.3994 27.2264 63.6097 26.9116C64.2405 25.9673 65.6073 26.0198 66.2382 26.9641C66.7639 27.751 66.9742 28.5903 67.0267 29.5346C67.0793 29.8493 67.0793 30.0067 67.0793 30.5838C66.9742 31.2133 66.9216 31.7903 66.8165 32.4199Z" fill="#F1F1F2"/>
<path d="M39.6903 45.8505C38.8492 43.8046 37.3773 42.3882 35.2219 41.6538C34.1705 41.2866 33.1716 41.1816 32.0677 41.1816C29.9649 41.2341 28.1249 42.021 26.653 43.4899C25.1284 44.9587 24.3399 46.8473 24.3924 48.9457C24.3399 50.8342 24.9707 52.408 26.1798 53.7719C27.9672 55.7654 30.2803 56.6572 32.9614 56.4474C34.2231 56.3425 35.3796 56.0277 36.4836 55.3982C38.1132 54.4539 39.2698 53.1424 39.9006 51.3588C40.5315 49.4178 40.4263 47.6342 39.6903 45.8505ZM34.3282 50.7818C34.2231 51.4113 33.9602 51.9359 33.5922 52.4605C32.9614 53.2474 31.6471 53.1949 31.0688 52.3031C30.7009 51.7785 30.4906 51.149 30.3329 50.5195C30.1752 49.9949 30.1752 49.4178 30.1752 48.8407C30.1752 47.7916 30.3854 46.8473 30.7009 45.903C30.8586 45.4309 31.1214 45.0637 31.4894 44.8014C32.3831 44.2243 33.3294 44.4866 33.8551 45.4309C34.2231 46.1128 34.3808 46.8473 34.4859 47.5817C34.591 48.6834 34.5385 49.7326 34.3282 50.7818Z" fill="#F1F1F2"/>
<path d="M73.0199 50.5181C73.9661 50.623 74.9124 50.6755 75.8587 50.623C77.1203 50.5181 78.3294 50.2558 79.3808 49.5738C80.9054 48.5771 81.5888 46.8459 81.0631 45.0623C80.59 43.436 79.4334 42.3868 77.9089 41.7573C76.3844 41.1278 74.8073 40.9704 73.1776 41.2327C71.7582 41.495 70.4439 41.9672 69.34 42.9114C67.5 44.4852 66.5538 46.4787 66.6063 48.8918C66.6063 49.3115 66.6063 49.6787 66.6589 50.0984C67.0269 51.9869 67.9732 53.5607 69.4451 54.8198C70.6542 55.8165 72.021 56.3411 73.5456 56.4985C75.2278 56.6559 76.8049 56.2886 78.1717 55.3444C79.3808 54.5575 80.2745 53.5607 80.9054 52.2492C81.0105 51.9869 81.0631 51.6197 80.8528 51.4624C80.6425 51.305 80.3797 51.4624 80.1694 51.5148C79.3808 51.8296 78.5397 52.1443 77.7512 52.4066C76.8575 52.6689 75.9638 52.6689 75.0701 52.4591C74.0713 52.2492 73.3879 51.7247 72.8096 50.8853C72.757 50.8328 72.7044 50.6755 72.757 50.5705C72.8622 50.4656 72.9673 50.5181 73.0199 50.5181ZM72.8096 47.7377C72.5993 47.7377 72.4942 47.6328 72.4942 47.3705C72.5993 46.4262 72.8096 45.5869 73.493 44.9049C73.861 44.5377 74.2816 44.4328 74.7547 44.4852C75.3855 44.5377 75.8587 44.9574 75.7009 46.1115C75.6484 46.5836 75.3855 47.0033 74.965 47.2656C74.4393 47.5803 73.7559 47.7377 73.125 47.7377C73.0199 47.7377 72.9147 47.7377 72.8096 47.7377Z" fill="#F1F1F2"/>
<path d="M77.5934 21.4039C77.9614 21.7186 78.382 22.0334 78.8025 22.1907C80.0116 22.6104 81.2733 22.558 82.535 22.1383C84.1121 21.6137 84.9007 20.4596 85.0584 18.8858C85.1109 18.4661 85.0058 18.0464 84.743 17.6268C84.5852 17.3645 84.375 17.312 84.1121 17.4694C83.9018 17.5743 83.6916 17.6792 83.4813 17.8366C82.3247 18.571 81.2208 19.0956 79.4859 18.9383C79.118 18.8858 78.5923 18.9383 78.0666 19.0956C77.0152 19.4104 76.7523 20.617 77.5934 21.4039Z" fill="#F1F1F2"/>
<path d="M9.83053 9.38989L11.5128 12.2227L11.9333 11.9604L10.3037 9.12759L11.3551 8.55054L11.0922 8.13086L8.56885 9.59973L8.8317 9.96695L9.83053 9.38989Z" fill="#F1F1F2"/>
<path d="M14.8246 10.3874L14.0887 8.86602L15.8235 8.07913L16.5595 9.60046L17.0326 9.39062L15.4555 6.0332L14.9298 6.24304L15.6132 7.65945L13.931 8.44635L13.2475 7.02994L12.7744 7.29223L14.3515 10.6497L14.8246 10.3874Z" fill="#F1F1F2"/>
<path d="M21.1332 7.76312L20.9755 7.29098L19.1881 8.02541L18.715 6.8713L20.3972 6.24179L20.2395 5.82211L18.5573 6.45163L18.1893 5.40243L19.9241 4.72046L19.7664 4.30078L17.5059 5.14014L18.8727 8.60247L21.1332 7.76312Z" fill="#F1F1F2"/>
<path d="M27.2839 5.92883L27.1788 5.45669L25.5491 5.87637L24.708 2.78125L24.2349 2.88617L25.1811 6.50588L27.2839 5.92883Z" fill="#F1F1F2"/>
<path d="M28.5631 1.82708L28.0496 1.93945L28.8491 5.57767L29.3626 5.46531L28.5631 1.82708Z" fill="#F1F1F2"/>
<path d="M32.8036 4.77459L33.6448 0.892578L33.0665 0.997497L32.4882 4.19753H32.4356L30.8585 1.36471L30.2803 1.46963L32.3305 4.87951L32.8036 4.77459Z" fill="#F1F1F2"/>
<path d="M38.2184 4.0921L38.1658 3.61996L36.2733 3.8298L36.1156 2.62323L37.8504 2.41339L37.7979 1.99371L36.063 2.15109L35.9579 1.04944L37.7979 0.892059L37.7453 0.419922L35.3796 0.68222L35.8002 4.35439L38.2184 4.0921Z" fill="#F1F1F2"/>
<path d="M44.2114 3.88201C44.8423 3.88201 45.3154 3.61971 45.6308 3.20004L45.2103 2.93774C45 3.2525 44.632 3.46233 44.2114 3.46233C43.7909 3.46233 43.4755 3.35742 43.2126 3.04266C42.9498 2.78036 42.7921 2.41314 42.7921 1.99347C42.7921 1.57379 42.8972 1.20657 43.16 0.944273C43.4229 0.681975 43.7383 0.524596 44.1589 0.472137C44.3692 0.472137 44.5269 0.524596 44.6846 0.577056C44.8423 0.629515 45 0.734435 45.1051 0.891814L45.5257 0.577056C45.368 0.419677 45.2103 0.262298 44.9474 0.157379C44.6846 0.0524596 44.4743 0 44.2114 0C43.6332 0 43.16 0.209838 42.7921 0.577056C42.4241 0.944273 42.2664 1.41641 42.2664 1.99347C42.2664 2.57052 42.4766 3.04266 42.8446 3.40987C43.16 3.72463 43.6332 3.93447 44.2114 3.88201Z" fill="#F1F1F2"/>
<path d="M48.9952 3.98755C49.5735 4.04001 50.0466 3.83017 50.4146 3.51541C50.7826 3.1482 50.9929 2.72852 51.0455 2.15146C51.098 1.57441 50.8877 1.10227 50.5723 0.735055C50.2043 0.367837 49.7312 0.157999 49.2055 0.105539C48.6272 0.0530797 48.1541 0.210459 47.7861 0.577676C47.4181 0.944893 47.2078 1.36457 47.1553 1.94163C47.1027 2.51868 47.313 2.99082 47.6284 3.35804C47.9438 3.72525 48.4169 3.98755 48.9952 3.98755ZM48.1015 0.944893C48.3644 0.682595 48.7324 0.525216 49.1529 0.577676C49.5735 0.577676 49.8889 0.735055 50.1518 1.04981C50.4146 1.36457 50.5198 1.73179 50.4672 2.15146C50.4672 2.57114 50.3095 2.93836 50.0466 3.20066C49.7838 3.46295 49.4158 3.62033 48.9952 3.56787C48.5747 3.56787 48.2592 3.4105 47.9964 3.09574C47.7335 2.78098 47.6284 2.41376 47.681 1.99409C47.681 1.57441 47.8387 1.20719 48.1015 0.944893Z" fill="#F1F1F2"/>
<path d="M53.4637 2.57104L55.1459 2.78088L55.1985 2.30874L53.5163 2.15136L53.6214 0.997252L55.4614 1.20709V0.734954L53.2008 0.472656L52.7803 4.14483L53.2534 4.24975L53.4637 2.57104Z" fill="#F1F1F2"/>
<path d="M57.6169 3.14694L59.2466 3.40924L59.3517 2.98956L57.6695 2.6748L57.8798 1.57315L59.6672 1.83545L59.7197 1.41577L57.4592 0.996094L56.8284 4.66827L57.3015 4.77319L57.6169 3.14694Z" fill="#F1F1F2"/>
<path d="M63.3469 5.50784L61.4543 5.08816L61.7172 3.88159L63.452 4.24881L63.5571 3.82913L61.8223 3.46191L62.0852 2.36026L63.8726 2.77994L63.9777 2.36026L61.6646 1.7832L60.8235 5.40292L63.2417 5.97997L63.3469 5.50784Z" fill="#F1F1F2"/>
<path d="M67.4474 6.71432L65.6074 6.13726L65.9228 4.93069L67.6051 5.45529L67.7628 5.03561L66.0805 4.51101L66.396 3.46182L68.1833 3.98642L68.2885 3.56674L66.028 2.88477L64.9766 6.45202L67.3422 7.134L67.4474 6.71432Z" fill="#F1F1F2"/>
<path d="M72.9146 9.33701C73.4929 9.59931 74.0186 9.54685 74.4917 9.28455L74.2288 8.86487C73.9134 9.07471 73.5454 9.07471 73.1249 8.91733C72.7569 8.75995 72.494 8.49765 72.3363 8.13044C72.2312 7.76322 72.2312 7.396 72.3889 6.97632C72.5466 6.60911 72.8095 6.29435 73.1774 6.13697C73.5454 5.97959 73.9134 5.97959 74.2814 6.13697C74.4391 6.18943 74.5968 6.29435 74.702 6.45173C74.8071 6.60911 74.9123 6.71403 74.9123 6.87141L75.438 6.76649C75.3854 6.55665 75.2803 6.34681 75.07 6.13697C74.8597 5.92713 74.6494 5.82221 74.4391 5.71729C73.9134 5.50745 73.3877 5.45499 72.9146 5.66483C72.4415 5.87467 72.0735 6.18943 71.8632 6.71403C71.6529 7.23862 71.6003 7.76322 71.8106 8.23536C72.0209 8.70749 72.3889 9.12717 72.9146 9.33701Z" fill="#F1F1F2"/>
<path d="M76.5946 11.0697C76.91 11.2271 77.278 11.2795 77.5934 11.1746C77.9614 11.0697 78.1717 10.8598 78.3819 10.4926C78.5922 10.1254 78.5922 9.81064 78.4871 9.49589C78.3819 9.18113 78.1717 8.91883 77.8037 8.70899C77.4357 8.49915 77.1203 8.49915 76.8048 8.60407C76.4894 8.70899 76.2266 8.91883 76.0163 9.23359C75.8586 9.54835 75.806 9.91556 75.9111 10.2303C76.0689 10.65 76.2791 10.9123 76.5946 11.0697ZM76.4894 9.54835C76.5946 9.33851 76.7523 9.18113 76.9625 9.07621C77.1728 8.97129 77.3831 9.02375 77.646 9.12867C77.8562 9.23359 78.014 9.44343 78.0665 9.65327C78.1191 9.8631 78.0665 10.0729 77.9614 10.3352C77.8562 10.5451 77.6985 10.7025 77.4882 10.8074C77.278 10.9123 77.0677 10.8598 76.8048 10.7549C76.5946 10.65 76.4368 10.4402 76.3843 10.2303C76.3317 9.96802 76.3843 9.75819 76.4894 9.54835Z" fill="#F1F1F2"/>
<path d="M79.5386 12.6432C79.6437 12.6956 79.6963 12.6956 79.8014 12.6956C79.9066 12.6956 79.9591 12.6432 80.0117 12.5383C80.0643 12.4333 80.0643 12.3809 80.0643 12.276C80.0643 12.1711 80.0117 12.1186 79.9066 12.0661C79.8014 12.0137 79.7488 12.0137 79.6437 12.0137C79.5386 12.0137 79.486 12.0661 79.4334 12.1711C79.3809 12.2235 79.3809 12.3284 79.3809 12.4333C79.3809 12.5383 79.4334 12.5907 79.5386 12.6432Z" fill="#F1F1F2"/>
<path d="M28.1775 71.5553L30.5957 72.0799L30.7009 71.6602L28.8083 71.2405L29.0712 70.0339L30.7534 70.4012L30.8586 69.9815L29.1763 69.6143L29.3866 68.5126L31.2266 68.8798L31.3317 68.4601L28.966 67.9355L28.1775 71.5553Z" fill="#F1F1F2"/>
<path d="M33.5398 69.3513C33.6975 69.2464 33.8552 69.2464 34.0655 69.2989C34.2232 69.2989 34.3283 69.3513 34.486 69.4562C34.5912 69.5612 34.6963 69.6136 34.7489 69.771L35.1694 69.4562C35.0643 69.2989 34.9591 69.1939 34.7489 69.089C34.5912 68.9841 34.3809 68.9316 34.1706 68.8792C33.9603 68.8267 33.75 68.8267 33.5398 68.8792C33.3295 68.9316 33.1718 69.0366 33.0141 69.1415C32.8563 69.2989 32.7512 69.4562 32.7512 69.7185C32.7512 69.8759 32.7512 70.0333 32.7512 70.1382C32.8038 70.2431 32.8563 70.4005 32.9089 70.453C32.9615 70.5054 33.0666 70.6104 33.1718 70.6628C33.2769 70.7153 33.382 70.7677 33.4872 70.8727C33.5923 70.9251 33.6975 70.9776 33.75 71.03C33.8026 71.0825 33.8552 71.0825 33.9603 71.1874C34.0655 71.2399 34.118 71.2923 34.118 71.3448C34.1706 71.3973 34.1706 71.4497 34.2232 71.5546C34.2232 71.6071 34.2757 71.712 34.2232 71.8169C34.1706 72.0268 34.118 72.1841 33.9077 72.2366C33.75 72.3415 33.5398 72.3415 33.382 72.3415C33.2243 72.2891 33.0666 72.2366 32.9089 72.1317C32.7512 72.0268 32.6986 71.9219 32.5935 71.7645L32.1204 72.0268C32.2255 72.2366 32.3832 72.394 32.5935 72.4989C32.8038 72.6038 33.0141 72.7087 33.2769 72.7612C33.6449 72.8137 33.9603 72.7612 34.2232 72.6038C34.486 72.4464 34.6437 72.1841 34.7489 71.8169C34.7489 71.6595 34.7489 71.5546 34.7489 71.4497C34.6963 71.3448 34.6963 71.2399 34.6437 71.135C34.5912 71.03 34.5386 70.9776 34.4334 70.9251C34.3283 70.8202 34.2232 70.7677 34.1706 70.7677C34.118 70.7153 34.0129 70.6628 33.8552 70.6104C33.75 70.5579 33.6449 70.5054 33.5923 70.453C33.5398 70.4005 33.4872 70.3481 33.382 70.2956C33.3295 70.2431 33.2769 70.1382 33.2243 70.0858C33.2243 70.0333 33.1718 69.9284 33.2243 69.8235C33.3295 69.5612 33.382 69.4562 33.5398 69.3513Z" fill="#F1F1F2"/>
<path d="M36.4312 69.771L37.5877 69.8759L37.2723 73.1284L37.798 73.1808L38.1134 69.9283L39.3225 70.0333L39.3751 69.5611L36.4837 69.2988L36.4312 69.771Z" fill="#F1F1F2"/>
<path d="M40.4791 72.709C40.3739 72.709 40.3214 72.709 40.2162 72.8139C40.1637 72.8664 40.1111 72.9713 40.1111 73.0762C40.1111 73.1811 40.1111 73.2336 40.2162 73.3385C40.2688 73.391 40.3739 73.4434 40.4791 73.4434C40.5842 73.4434 40.6368 73.4434 40.7419 73.3385C40.7945 73.286 40.8471 73.1811 40.8471 73.0762C40.8471 72.9713 40.8471 72.9188 40.7419 72.8139C40.6368 72.7614 40.5842 72.709 40.4791 72.709Z" fill="#F1F1F2"/>
<path d="M45.4206 73.0762L46.6297 71.8696C46.8399 71.6598 46.9977 71.5024 47.0502 71.345C47.1028 71.1876 47.2079 70.9778 47.2079 70.7679C47.2079 70.4532 47.1028 70.1909 46.8399 69.981C46.6297 69.8237 46.3142 69.7188 45.9988 69.7188C45.6834 69.7188 45.4206 69.8237 45.2103 69.981C45 70.1384 44.8423 70.4007 44.8423 70.7155L45.368 70.8204C45.4206 70.6106 45.4731 70.4532 45.5783 70.3483C45.6834 70.2434 45.8411 70.1909 46.0514 70.1909C46.2617 70.1909 46.4194 70.2434 46.5245 70.3483C46.6297 70.4532 46.7348 70.6106 46.7348 70.8204C46.7348 71.0827 46.5771 71.345 46.3142 71.6073L44.8423 73.0762V73.5483H47.2605V73.0762H45.4206Z" fill="#F1F1F2"/>
<path d="M51.361 70.4523C51.2558 70.19 51.0981 69.9277 50.8878 69.7704C50.6776 69.613 50.4147 69.5081 50.1519 69.5605C49.889 69.5605 49.6262 69.6654 49.4685 69.8753C49.3107 70.0851 49.153 70.295 49.1005 70.6097C49.0479 70.9245 48.9953 71.2392 49.0479 71.6064C49.1005 72.1835 49.2056 72.6556 49.4685 72.9704C49.6787 73.3376 50.0467 73.495 50.4673 73.4425C50.8878 73.3901 51.2033 73.2327 51.361 72.8655C51.5713 72.4982 51.6238 72.0261 51.5713 71.4491C51.5187 71.0818 51.4661 70.7146 51.361 70.4523ZM51.0456 71.9737C51.0456 72.131 50.993 72.2884 50.993 72.4458C50.9404 72.6032 50.8878 72.7605 50.7827 72.8655C50.6776 72.9704 50.5724 73.0228 50.4147 73.0228C50.257 73.0228 50.1519 72.9704 50.0467 72.9179C49.9416 72.813 49.8364 72.7081 49.7839 72.5507C49.7313 72.3933 49.6787 72.2359 49.6262 72.0786C49.5736 71.9212 49.5736 71.7638 49.5736 71.554C49.5736 71.3966 49.5736 71.1868 49.5736 71.0294C49.5736 70.872 49.6262 70.7146 49.6787 70.5572C49.7313 70.3999 49.7839 70.2425 49.889 70.1376C49.9942 70.0327 50.0993 69.9802 50.257 69.9802C50.4147 69.9802 50.5199 70.0327 50.625 70.0851C50.7301 70.19 50.8353 70.295 50.8878 70.4523C50.9404 70.6097 50.993 70.7671 51.0456 70.9245C51.0981 71.0818 51.0981 71.2392 51.0981 71.4491C51.0456 71.6589 51.0456 71.8163 51.0456 71.9737Z" fill="#F1F1F2"/>
<path d="M55.4613 70.0331C55.3562 69.7708 55.1985 69.561 54.9356 69.4036C54.7253 69.2462 54.4625 69.1938 54.1996 69.2462C53.9368 69.2987 53.6739 69.4036 53.5162 69.6135C53.3585 69.8233 53.2534 70.0856 53.2008 70.3479C53.1482 70.6627 53.1482 70.9774 53.2008 71.3446C53.2534 71.9217 53.4111 72.3938 53.6739 72.7086C53.9368 73.0233 54.2522 73.1807 54.6728 73.1283C55.0933 73.0758 55.3562 72.866 55.5665 72.4987C55.7242 72.1315 55.7767 71.6594 55.7242 71.0823C55.6716 70.6102 55.619 70.2954 55.4613 70.0331ZM55.1985 72.0266C55.1459 72.184 55.0933 72.3414 55.0408 72.4463C54.9882 72.5512 54.8305 72.6037 54.6728 72.6561C54.5151 72.6561 54.4099 72.6561 54.3048 72.5512C54.1996 72.4463 54.0945 72.3414 54.0419 72.184C53.9894 72.0266 53.9368 71.8692 53.8842 71.7118C53.8316 71.5545 53.8316 71.3971 53.7791 71.1872C53.7791 71.0299 53.7265 70.82 53.7265 70.6626C53.7265 70.5053 53.7265 70.3479 53.7791 70.1905C53.8316 70.0331 53.8842 69.8758 53.9368 69.7708C54.0419 69.6659 54.1471 69.6135 54.3048 69.561C54.4625 69.561 54.5676 69.561 54.6728 69.6659C54.7779 69.7708 54.883 69.8758 54.9356 70.0331C54.9882 70.1905 55.0408 70.3479 55.0933 70.5053C55.1459 70.6626 55.1459 70.82 55.1985 71.0299C55.1985 71.1872 55.251 71.3971 55.251 71.5545C55.251 71.7118 55.1985 71.8692 55.1985 72.0266Z" fill="#F1F1F2"/>
<path d="M59.4041 70.1907C59.1413 70.0333 58.8259 69.9809 58.4579 70.0333C58.3002 70.0858 58.1425 70.1382 57.9848 70.1907L57.827 69.2464L59.3516 68.9841L59.2464 68.5645L57.2488 68.9317L57.5642 70.8727C57.7745 70.7153 58.0373 70.5579 58.3527 70.5055C58.6156 70.453 58.8259 70.5055 58.9836 70.6104C59.1939 70.7153 59.299 70.9251 59.3516 71.1874C59.4042 71.3973 59.3516 71.6071 59.2464 71.8169C59.1413 71.9743 58.9836 72.0793 58.7207 72.1317C58.563 72.1842 58.4053 72.1317 58.2476 72.0792C58.0899 72.0268 57.9848 71.9219 57.8796 71.7645L57.4591 72.0268C57.6168 72.2366 57.7745 72.394 57.9848 72.4989C58.195 72.6038 58.4579 72.6038 58.7207 72.5514C59.0887 72.4989 59.3516 72.2891 59.5619 72.0268C59.7721 71.7645 59.8247 71.4497 59.7721 71.0301C59.8247 70.6104 59.667 70.3481 59.4041 70.1907Z" fill="#F1F1F2"/>
<path d="M65.0291 69.5088C65.4936 69.5088 65.8702 69.133 65.8702 68.6694C65.8702 68.2059 65.4936 67.8301 65.0291 67.8301C64.5646 67.8301 64.188 68.2059 64.188 68.6694C64.188 69.133 64.5646 69.5088 65.0291 69.5088Z" fill="#F1F1F2"/>
<path d="M23.8143 69.5088C24.2788 69.5088 24.6554 69.133 24.6554 68.6694C24.6554 68.2059 24.2788 67.8301 23.8143 67.8301C23.3497 67.8301 22.9731 68.2059 22.9731 68.6694C22.9731 69.133 23.3497 69.5088 23.8143 69.5088Z" fill="#F1F1F2"/>
<path d="M84.3225 41.2861C84.4276 41.1811 84.4802 41.0762 84.4802 40.9189C84.4802 40.709 84.4276 40.5516 84.2699 40.4992C84.1122 40.3943 83.9545 40.3418 83.7442 40.3418H83.0608V42.4402H83.3762V41.4959H83.6916L84.2173 42.4402H84.5853L84.0071 41.4434C84.1122 41.4434 84.2173 41.391 84.3225 41.2861ZM83.3236 41.2336V40.5516H83.6916C84.0071 40.5516 84.1648 40.6566 84.1648 40.8664C84.1648 41.0762 84.0071 41.1812 83.6916 41.1812H83.3236V41.2336Z" fill="#F1F1F2"/>
<path d="M83.6389 39.2402C82.4824 39.2402 81.5361 40.1845 81.5361 41.3386C81.5361 42.4927 82.4824 43.437 83.6389 43.437C84.7955 43.437 85.7417 42.4927 85.7417 41.3386C85.7417 40.1845 84.7955 39.2402 83.6389 39.2402ZM83.6389 42.9649C82.7452 42.9649 82.0618 42.2304 82.0618 41.3911C82.0618 40.5517 82.7978 39.8173 83.6389 39.8173C84.5326 39.8173 85.216 40.5517 85.216 41.3911C85.216 42.2304 84.5326 42.9649 83.6389 42.9649Z" fill="#F1F1F2"/>
</g>
<defs>
<clipPath id="clip0_1_244">
<rect width="90" height="73.5484" fill="white"/>
</clipPath>
</defs>
</svg>
