<svg width="95" height="55" viewBox="0 0 95 55" fill="none" xmlns="http://www.w3.org/2000/svg">
<path d="M87.106 0H7.89398C5.80037 0 3.7925 0.831685 2.31209 2.31209C0.831685 3.7925 0 5.80037 0 7.89398L0 46.6344C0 48.728 0.831685 50.7359 2.31209 52.2163C3.7925 53.6967 5.80037 54.5284 7.89398 54.5284H87.106C89.1996 54.5284 91.2075 53.6967 92.6879 52.2163C94.1683 50.7359 95 48.728 95 46.6344V7.89398C95 5.80037 94.1683 3.7925 92.6879 2.31209C91.2075 0.831685 89.1996 0 87.106 0V0ZM92.8223 46.6344C92.8209 48.15 92.2182 49.6031 91.1465 50.6748C90.0748 51.7466 88.6216 52.3493 87.106 52.3507H49.0407V2.17765H87.106C88.6216 2.17909 90.0748 2.78181 91.1465 3.85352C92.2182 4.92522 92.8209 6.37836 92.8223 7.89398V46.6344Z" fill="#F1F1F2"/>
<path d="M6.97929 40.6041H6.43488V39.2975H4.89964V40.6041H4.35522V37.6152H4.89964V38.8402H6.45666V37.6152H7.00107L6.97929 40.6041Z" fill="#4A4A4A"/>
<path d="M9.66337 40.6021H7.62183V37.6133H9.66882V38.076H8.16624V38.8491H9.63615V39.3119H8.16624V40.1394H9.69059L9.66337 40.6021Z" fill="#4A4A4A"/>
<path d="M10.0117 41.1524V40.1888C10.1105 40.1855 10.2064 40.1554 10.2894 40.1017C10.3751 40.022 10.4373 39.9203 10.469 39.8077C10.5371 39.5956 10.581 39.3764 10.5997 39.1544L10.7739 37.6191H12.8046V40.1452H13.0659V41.1578H12.5215V40.6134H10.5344V41.1578L10.0117 41.1524ZM11.1005 39.1871C11.0881 39.5413 10.949 39.8794 10.7086 40.1398H12.2656V38.0764H11.2312L11.1005 39.1871Z" fill="#4A4A4A"/>
<path d="M14.9931 40.6036H13.4851V37.6147H14.955C15.0686 37.6081 15.1823 37.624 15.2897 37.6613C15.3972 37.6987 15.4962 37.7569 15.5811 37.8325C15.6553 37.9021 15.714 37.9865 15.7534 38.0804C15.7928 38.1742 15.812 38.2752 15.8097 38.3769C15.8132 38.5407 15.7593 38.7006 15.6573 38.8288C15.5652 38.9468 15.4339 39.0279 15.2871 39.0574C15.4508 39.0841 15.5975 39.174 15.6954 39.3079C15.8056 39.4452 15.8652 39.6163 15.8642 39.7924C15.8685 39.9 15.8503 40.0074 15.811 40.1076C15.7716 40.2079 15.7119 40.2989 15.6355 40.3749C15.5492 40.454 15.4478 40.515 15.3375 40.5543C15.2271 40.5936 15.1101 40.6103 14.9931 40.6036ZM14.8461 38.8506C14.9599 38.8568 15.0715 38.8177 15.1565 38.7417C15.1938 38.706 15.2233 38.6628 15.243 38.615C15.2627 38.5671 15.2722 38.5157 15.2708 38.464C15.2726 38.4115 15.2634 38.3591 15.2437 38.3103C15.224 38.2616 15.1943 38.2175 15.1565 38.1809C15.0715 38.105 14.9599 38.0658 14.8461 38.0721H14.0077V38.8451L14.8461 38.8506ZM14.8461 40.1408C14.9684 40.1485 15.089 40.1096 15.1837 40.0319C15.2603 39.9511 15.3029 39.8439 15.3029 39.7325C15.3029 39.6211 15.2603 39.514 15.1837 39.4331C15.1382 39.3917 15.0849 39.3598 15.027 39.3392C14.969 39.3187 14.9075 39.3098 14.8461 39.3133H14.0077V40.1408H14.8461Z" fill="#4A4A4A"/>
<path d="M16.8767 40.6021H16.3867V37.6133H16.9311V39.6875L18.4609 37.6133H19.0053V40.6021H18.4609V38.468L16.8767 40.6021Z" fill="#4A4A4A"/>
<path d="M19.9748 40.6021H19.3269L20.6335 39.0233L19.4195 37.6133H20.0673L21.1235 38.9035V37.6133H21.6679V38.9035L22.724 37.6133H23.3556L22.1415 39.0233L23.4481 40.6021H22.8003L21.7768 39.3445L21.6298 39.5187V40.6076H21.0854V39.5187L20.9384 39.3445L19.9748 40.6021Z" fill="#4A4A4A"/>
<path d="M24.3024 40.6021H23.7961V37.6133H24.3406V39.6875L25.8704 37.6133H26.4148V40.6021H25.8704V38.468L24.3024 40.6021Z" fill="#4A4A4A"/>
<path d="M30.1279 40.6021H29.5834V38.3809L28.6634 40.6021H28.4402L27.5473 38.3809V40.6021H27.0029V37.6133H27.7651L28.5763 39.5786L29.3983 37.6133H30.1387L30.1279 40.6021Z" fill="#4A4A4A"/>
<path d="M33.2525 40.2155C32.957 40.4914 32.5679 40.6449 32.1636 40.6449C31.7594 40.6449 31.3702 40.4914 31.0748 40.2155C30.7963 39.9138 30.6416 39.5182 30.6416 39.1076C30.6416 38.697 30.7963 38.3014 31.0748 37.9997C31.3702 37.7238 31.7594 37.5703 32.1636 37.5703C32.5679 37.5703 32.957 37.7238 33.2525 37.9997C33.531 38.3014 33.6857 38.697 33.6857 39.1076C33.6857 39.5182 33.531 39.9138 33.2525 40.2155ZM32.1636 40.1883C32.2985 40.1936 32.4329 40.1691 32.5571 40.1163C32.6814 40.0636 32.7924 39.9841 32.8823 39.8834C33.059 39.6645 33.1555 39.3917 33.1555 39.1103C33.1555 38.829 33.059 38.5561 32.8823 38.3373C32.7893 38.2404 32.6777 38.1634 32.5542 38.1108C32.4307 38.0581 32.2979 38.031 32.1636 38.031C32.0294 38.031 31.8965 38.0581 31.7731 38.1108C31.6496 38.1634 31.538 38.2404 31.445 38.3373C31.2687 38.5574 31.1727 38.831 31.1727 39.113C31.1727 39.3951 31.2687 39.6687 31.445 39.8888C31.5348 39.9878 31.6452 40.0659 31.7684 40.1177C31.8916 40.1694 32.0247 40.1935 32.1582 40.1883H32.1636Z" fill="#4A4A4A"/>
<path d="M35.6264 40.6574C35.4203 40.6638 35.2149 40.6291 35.0223 40.5553C34.8298 40.4814 34.6539 40.3699 34.5049 40.2273C34.2233 39.925 34.0667 39.5272 34.0667 39.114C34.0667 38.7008 34.2233 38.303 34.5049 38.0007C34.6534 37.8571 34.8291 37.7446 35.0217 37.6698C35.2143 37.595 35.4199 37.5594 35.6264 37.5651C35.8688 37.5574 36.1087 37.6156 36.3206 37.7335C36.5325 37.8514 36.7084 38.0247 36.8296 38.2348L36.3831 38.4634C36.3067 38.3328 36.198 38.2241 36.0674 38.1477C35.9358 38.0689 35.7852 38.0275 35.6318 38.0279C35.4948 38.0245 35.3586 38.0499 35.232 38.1024C35.1054 38.1549 34.9913 38.2334 34.8969 38.3328C34.7074 38.5468 34.6029 38.8227 34.6029 39.1086C34.6029 39.3944 34.7074 39.6703 34.8969 39.8843C34.9913 39.9837 35.1054 40.0622 35.232 40.1147C35.3586 40.1672 35.4948 40.1926 35.6318 40.1892C35.7871 40.1909 35.9398 40.1494 36.0728 40.0694C36.2036 39.9932 36.3123 39.8844 36.3886 39.7537L36.835 39.9823C36.7132 40.1935 36.5366 40.3677 36.3238 40.4866C36.111 40.6054 35.87 40.6644 35.6264 40.6574Z" fill="#4A4A4A"/>
<path d="M38.4845 40.6021H37.9401V38.076H37.0581V37.6133H39.3936V38.076H38.4845V40.6021Z" fill="#4A4A4A"/>
<path d="M39.8347 37.6133H40.3791V38.7021H41.1685C41.2998 38.6955 41.431 38.7163 41.5538 38.7632C41.6765 38.8101 41.7882 38.882 41.8817 38.9743C42.0501 39.1556 42.1437 39.3938 42.1437 39.6412C42.1437 39.8886 42.0501 40.1269 41.8817 40.3081C41.7876 40.3992 41.6756 40.47 41.5529 40.5159C41.4302 40.5618 41.2994 40.5818 41.1685 40.5749H39.8347V37.6133ZM41.076 39.1975H40.3574V40.1502H41.076C41.2095 40.1529 41.3393 40.1064 41.4407 40.0196C41.4867 39.9745 41.5231 39.9207 41.548 39.8613C41.5729 39.802 41.5858 39.7383 41.5858 39.6739C41.5858 39.6095 41.5729 39.5458 41.548 39.4864C41.5231 39.4271 41.4867 39.3733 41.4407 39.3282C41.3393 39.2414 41.2095 39.1949 41.076 39.1975Z" fill="#4A4A4A"/>
<path d="M70.1421 24.0736C70.1683 23.4468 70.0627 22.8216 69.832 22.2382C69.6013 21.6549 69.2507 21.1265 68.8028 20.6873C68.3302 20.248 67.7749 19.9072 67.1692 19.6848C66.5635 19.4623 65.9196 19.3627 65.275 19.3916H59.1667C59.0512 19.3916 58.9404 19.4375 58.8588 19.5192C58.7771 19.6009 58.7312 19.7116 58.7312 19.8271V33.8675C58.7312 33.9831 58.7771 34.0938 58.8588 34.1755C58.9404 34.2572 59.0512 34.3031 59.1667 34.3031H60.9089C61.0244 34.3031 61.1351 34.2572 61.2168 34.1755C61.2985 34.0938 61.3444 33.9831 61.3444 33.8675V28.7392H63.9358L67.1152 34.0853C67.1553 34.1527 67.2129 34.208 67.2819 34.2454C67.3509 34.2828 67.4287 34.3008 67.5071 34.2976H69.4888C69.5663 34.2975 69.6423 34.2768 69.7091 34.2375C69.7759 34.1982 69.831 34.1418 69.8687 34.0741C69.9065 34.0065 69.9255 33.9299 69.9237 33.8525C69.922 33.775 69.8997 33.6994 69.859 33.6334L66.6306 28.4452C67.5989 28.2911 68.4838 27.8063 69.1349 27.0733C69.8406 26.2382 70.2009 25.1653 70.1421 24.0736ZM66.745 25.7939C66.2407 26.2362 65.5859 26.468 64.9157 26.4418H61.3444V21.7054H64.9157C65.5859 21.6796 66.2404 21.9115 66.745 22.3532C66.9715 22.5788 67.1512 22.8469 67.2738 23.1421C67.3964 23.4374 67.4596 23.7539 67.4596 24.0736C67.4596 24.3932 67.3964 24.7098 67.2738 25.005C67.1512 25.3002 66.9715 25.5683 66.745 25.7939Z" fill="#F1F1F2"/>
<path d="M84.4222 19.4023H82.7889C82.6734 19.4023 82.5626 19.4482 82.481 19.5299C82.3993 19.6116 82.3534 19.7224 82.3534 19.8379V28.3362C82.4113 29.3718 82.0792 30.3915 81.4224 31.1943C80.6947 31.8689 79.739 32.2437 78.7467 32.2437C77.7543 32.2437 76.7986 31.8689 76.0709 31.1943C75.4079 30.3944 75.0715 29.3735 75.129 28.3362V19.8379C75.129 19.7224 75.0832 19.6116 75.0015 19.5299C74.9198 19.4482 74.809 19.4023 74.6935 19.4023H73.0603C72.9448 19.4023 72.834 19.4482 72.7523 19.5299C72.6706 19.6116 72.6247 19.7224 72.6247 19.8379V28.4287C72.5355 30.072 73.0945 31.6847 74.1818 32.9201C75.2198 34.0089 76.7423 34.5533 78.7494 34.5533C80.7564 34.5533 82.2717 34.0089 83.2952 32.9201C84.3332 31.8313 84.8522 30.3269 84.8522 28.4069V19.8379C84.8523 19.7233 84.8071 19.6133 84.7266 19.5318C84.6461 19.4503 84.5367 19.4038 84.4222 19.4023Z" fill="#F1F1F2"/>
<path d="M51.1422 28.4238H49.0408V34.298H51.1422C51.3458 34.298 51.541 34.2172 51.685 34.0732C51.829 33.9293 51.9098 33.734 51.9098 33.5304V29.1751C51.9056 28.9744 51.8228 28.7833 51.6793 28.6429C51.5358 28.5024 51.343 28.4238 51.1422 28.4238Z" fill="#F1F1F2"/>
<path d="M15.1293 19.4019H13.7356C13.6201 19.4019 13.5094 19.4478 13.4277 19.5295C13.346 19.6112 13.3001 19.7219 13.3001 19.8375V29.7458L6.81072 19.5979C6.7716 19.5365 6.71771 19.4859 6.654 19.4507C6.59028 19.4156 6.51875 19.3969 6.44597 19.3965H4.81273C4.69722 19.3965 4.58644 19.4424 4.50476 19.524C4.42308 19.6057 4.3772 19.7165 4.3772 19.832V33.867C4.3772 33.9825 4.42308 34.0933 4.50476 34.1749C4.58644 34.2566 4.69722 34.3025 4.81273 34.3025H6.21187C6.32738 34.3025 6.43816 34.2566 6.51983 34.1749C6.60151 34.0933 6.6474 33.9825 6.6474 33.867V23.6701L13.2457 34.1011C13.2854 34.1614 13.3396 34.211 13.4033 34.2452C13.467 34.2794 13.5381 34.2972 13.6104 34.2971H15.1293C15.2449 34.2971 15.3556 34.2512 15.4373 34.1695C15.519 34.0878 15.5649 33.977 15.5649 33.8615V19.8375C15.5649 19.7219 15.519 19.6112 15.4373 19.5295C15.3556 19.4478 15.2449 19.4019 15.1293 19.4019Z" fill="#4A4A4A"/>
<path d="M23.0178 19.4016H18.4719C18.3564 19.4016 18.2456 19.4475 18.1639 19.5291C18.0823 19.6108 18.0364 19.7216 18.0364 19.8371V33.8666C18.0364 33.9821 18.0823 34.0929 18.1639 34.1746C18.2456 34.2563 18.3564 34.3021 18.4719 34.3021H23.0178C23.9883 34.3404 24.9562 34.1751 25.8591 33.8169C26.762 33.4588 27.58 32.9156 28.2604 32.2225C28.9338 31.5065 29.4578 30.6636 29.8018 29.7429C30.1458 28.8222 30.3029 27.8421 30.2639 26.86C30.3037 25.8736 30.1461 24.8892 29.8002 23.9646C29.4543 23.04 28.9271 22.1938 28.2496 21.4758C27.5697 20.7853 26.7532 20.2442 25.8524 19.887C24.9515 19.5299 23.9861 19.3645 23.0178 19.4016ZM26.4857 30.5239C26.055 31.0138 25.5198 31.4008 24.9195 31.6561C24.3193 31.9115 23.6694 32.0288 23.0178 31.9993H20.4645V21.7044H23.0178C23.6728 21.6693 24.3274 21.7816 24.9333 22.0332C25.5392 22.2848 26.0808 22.6692 26.5183 23.158C27.3788 24.1967 27.8231 25.5179 27.765 26.8655C27.8091 28.2017 27.3528 29.5063 26.4857 30.5239Z" fill="#4A4A4A"/>
<path d="M44.3751 19.4023H42.5458C42.4548 19.402 42.3659 19.4301 42.2917 19.4828C42.2175 19.5356 42.1617 19.6102 42.1321 19.6963L38.0435 31.4665L33.9441 19.6963C33.9145 19.6102 33.8587 19.5356 33.7845 19.4828C33.7103 19.4301 33.6214 19.402 33.5304 19.4023H31.7066C31.6369 19.4026 31.5683 19.4196 31.5065 19.4519C31.4447 19.4842 31.3916 19.5308 31.3516 19.5879C31.3116 19.645 31.2859 19.7108 31.2766 19.7799C31.2673 19.849 31.2747 19.9193 31.2983 19.9849L36.4212 34.0144C36.4514 34.0986 36.5068 34.1715 36.5798 34.2231C36.6529 34.2747 36.74 34.3026 36.8295 34.3029H39.2521C39.3416 34.3026 39.4288 34.2747 39.5018 34.2231C39.5749 34.1715 39.6302 34.0986 39.6604 34.0144L44.7834 19.9849C44.8069 19.9193 44.8143 19.849 44.805 19.7799C44.7958 19.7108 44.77 19.645 44.73 19.5879C44.69 19.5308 44.6369 19.4842 44.5751 19.4519C44.5134 19.4196 44.4448 19.4026 44.3751 19.4023Z" fill="#4A4A4A"/>
<path d="M47.0264 28.4219C46.8266 28.4261 46.6364 28.5081 46.4961 28.6505C46.3558 28.7928 46.2765 28.9842 46.2751 29.1841V33.5394C46.2779 33.7383 46.3578 33.9283 46.4979 34.0695C46.6381 34.2106 46.8276 34.2919 47.0264 34.2961H49.0462V28.4219H47.0264Z" fill="#4A4A4A"/>
</svg>
