<svg width="120" height="33" viewBox="0 0 120 33" fill="none" xmlns="http://www.w3.org/2000/svg">
<path fill-rule="evenodd" clip-rule="evenodd" d="M62.8994 16.0991C62.8994 15.9229 62.8994 15.6881 62.8402 15.512C62.2485 15.4533 61.6568 15.512 61.0651 15.512C61.0651 10.6393 61.0651 5.76655 61.0651 0.893829C61.6568 0.893829 62.2485 0.893829 62.8402 0.893829C62.8994 0.717707 62.8994 0.482877 62.8994 0.306754C62.7219 0.306754 62.5444 0.248047 62.3077 0.248047C60.1184 0.248047 57.8698 0.248047 55.6805 0.248047C55.4438 0.248047 55.2663 0.248047 55.0296 0.306754C54.8521 0.482877 54.9704 0.717707 54.9704 0.893829C55.5621 0.952536 56.1539 0.893829 56.7456 0.893829C56.7456 5.76655 56.7456 10.6393 56.7456 15.512C56.1539 15.5707 55.5621 15.4533 54.9704 15.5707C54.8521 15.7468 54.9113 15.9816 54.9704 16.1578C57.1598 16.2165 59.3491 16.1578 61.5385 16.1578C62.0118 16.1578 62.426 16.2165 62.8994 16.0991Z" fill="#F1F1F2"/>
<path fill-rule="evenodd" clip-rule="evenodd" d="M30.8283 1.01074C29.2898 0.188833 27.5146 -0.163412 25.7987 0.0714176C24.0827 0.24754 22.4259 1.01074 21.1833 2.24359C19.8815 3.53516 19.1123 5.35509 18.9939 7.17502C18.8164 8.87754 19.0531 10.6975 19.8223 12.2826C20.4732 13.6328 21.5383 14.6896 22.8401 15.3941C24.7927 16.4508 27.1596 16.6269 29.2898 16.0398C30.9466 15.5702 32.4259 14.5135 33.3726 13.1632C34.3194 11.7542 34.7927 10.0517 34.7927 8.34917C34.7927 7.17502 34.6152 6.00087 34.201 4.88543C33.6093 3.24162 32.3667 1.83264 30.8283 1.01074ZM29.9407 13.2806C29.7632 14.1612 29.349 15.0418 28.5206 15.4528C27.7513 15.8637 26.8046 15.8637 25.9762 15.6876C25.1478 15.5115 24.4969 14.807 24.201 14.0438C23.846 13.1632 23.7277 12.2239 23.6685 11.2845C23.5501 9.75815 23.6093 8.29046 23.6093 6.76407C23.6093 5.58992 23.6685 4.41577 23.9052 3.30033C24.0827 2.53713 24.3785 1.71523 25.0294 1.24557C25.4436 0.893322 25.9762 0.7172 26.5087 0.658492C27.4555 0.541077 28.5797 0.7172 29.2306 1.4804C29.8815 2.24359 30.1182 3.30033 30.2365 4.29835C30.4141 5.70733 30.3549 7.11631 30.3549 8.52529C30.2365 10.1104 30.2957 11.6955 29.9407 13.2806Z" fill="#F1F1F2"/>
<path fill-rule="evenodd" clip-rule="evenodd" d="M0.0592651 15.5699C0.0592651 15.8047 -0.059078 16.1569 0.23678 16.2156C1.53855 16.2156 2.8995 16.2156 4.20127 16.2156C4.5563 16.2156 4.43796 15.8047 4.43796 15.6286C3.78707 15.5112 3.19536 15.6286 2.54447 15.5699C2.54447 11.7539 2.54447 7.93789 2.54447 4.12191C6.21311 8.11401 9.82257 12.1061 13.4912 16.0982C13.6687 16.3331 14.0238 16.1569 14.2604 16.2156C14.2604 11.1081 14.2604 6.05925 14.2604 0.951702C14.9113 0.951702 15.503 1.01041 16.1539 0.892995C16.1539 0.716872 16.1539 0.482042 16.1539 0.30592C15.2072 0.247212 14.2604 0.30592 13.3137 0.247212C12.8403 0.247212 12.3078 0.188505 11.8344 0.247212C11.7161 0.423335 11.7161 0.658165 11.8344 0.834287C12.4261 0.892995 13.0178 0.834287 13.6687 0.834287C13.6687 3.76966 13.6687 6.70503 13.6687 9.5817C10.7693 6.4702 7.92908 3.3 5.02968 0.188505C3.37287 0.188505 1.71607 0.129798 0.0592651 0.247212C0.0592651 0.423335 0.0592651 0.658165 0.0592651 0.834287C0.650981 0.892995 1.30187 0.834287 1.89358 0.892995C1.89358 5.76571 1.89358 10.6384 1.89358 15.5112C1.30187 15.5112 0.650981 15.4524 0.0592651 15.5699Z" fill="#F1F1F2"/>
<path fill-rule="evenodd" clip-rule="evenodd" d="M97.3965 1.06895C95.858 0.188341 93.9645 -0.163904 92.1894 0.0709258C90.1776 0.305756 88.2249 1.30378 87.0415 2.88888C85.6805 4.5914 85.2663 6.82228 85.3847 8.93575C85.503 10.8144 86.1539 12.6343 87.4557 13.9846C88.5208 15.1587 90.0592 15.9219 91.5977 16.2155C94.2604 16.7438 97.2782 15.9806 99.1716 13.9259C100.355 12.693 101.006 10.9905 101.183 9.288C101.361 7.58548 101.124 5.88296 100.414 4.35657C99.8225 3.0063 98.7574 1.83215 97.3965 1.06895ZM96.6864 9.93378C96.6273 11.3428 96.6273 12.8104 96.0356 14.1607C95.6805 14.9239 94.9705 15.511 94.1421 15.6871C93.1953 15.8632 92.0711 15.8045 91.3018 15.1C90.6509 14.513 90.3551 13.6323 90.1776 12.8104C89.8225 10.9905 89.9409 9.17058 89.9409 7.35065C89.9409 6.11779 89.9409 4.94365 90.1776 3.71079C90.3551 2.88888 90.5326 2.06698 91.1243 1.47991C91.5385 1.01025 92.0711 0.716708 92.6628 0.658C93.6095 0.481878 94.6746 0.599293 95.3847 1.24507C96.0355 1.83215 96.3314 2.71276 96.4498 3.53467C96.8048 5.70684 96.6273 7.82031 96.6864 9.93378Z" fill="#F1F1F2"/>
<path fill-rule="evenodd" clip-rule="evenodd" d="M104.675 0.951399C104.852 1.30364 105.03 1.7146 105.207 2.12555C106.864 5.94153 108.521 9.81623 110.118 13.6322C110.533 14.5128 110.828 15.3934 111.243 16.2153C111.479 16.3328 111.775 16.274 112.012 16.2153C112.367 15.4521 112.604 14.6889 112.899 13.9257C113.728 11.8123 114.556 9.69881 115.385 7.58534C116.272 5.35446 117.101 3.12357 117.988 0.892691C118.521 0.892691 119.112 0.892691 119.645 0.892691C120 0.892691 120 0.188202 119.645 0.246909C118.225 0.246909 116.864 0.188202 115.444 0.246909C115.444 0.423031 115.385 0.657861 115.444 0.833984C116.036 0.951399 116.627 0.833984 117.16 0.892691C116.331 3.00616 115.503 5.11963 114.675 7.2331C114.26 8.23112 113.846 9.28786 113.432 10.2859C112.071 7.11568 110.71 4.00419 109.349 0.833984C109.941 0.833984 110.533 0.892691 111.124 0.833984C111.243 0.657861 111.243 0.481739 111.183 0.305616C111.006 0.188202 110.769 0.246909 110.533 0.188202C107.929 0.188202 105.266 0.129494 102.604 0.188202C102.604 0.364324 102.544 0.540446 102.544 0.775276C103.373 1.01011 104.083 0.775276 104.675 0.951399Z" fill="#F1F1F2"/>
<path fill-rule="evenodd" clip-rule="evenodd" d="M82.8993 16.1565C82.8993 15.9804 82.8993 15.7456 82.8401 15.5694C82.4259 15.452 82.0117 15.5694 81.5975 15.5107C79.8223 12.9863 78.0472 10.5206 76.272 8.05489C75.6803 7.29169 75.1478 6.41108 74.5561 5.70659C74.6152 5.58917 74.6744 5.47176 74.7336 5.41305C76.0354 3.94537 77.3963 2.47768 78.6981 1.00999C79.5265 0.951285 80.3549 1.0687 81.1241 0.951285C81.1241 0.775163 81.1241 0.59904 81.1241 0.36421C80.3549 0.305503 79.5856 0.36421 78.8164 0.305503C77.8105 0.305503 76.8638 0.246795 75.8578 0.36421C75.8578 0.540333 75.8578 0.775163 75.8578 0.951285C76.5087 1.0687 77.1596 0.951285 77.8105 1.00999C76.5679 2.41897 75.2661 3.82795 73.9643 5.23693C73.1951 6.11754 72.4259 6.93945 71.6567 7.76135C71.6567 5.47176 71.6567 3.24088 71.6567 0.951285C72.2484 0.951285 72.8401 1.00999 73.4318 0.892577C73.491 0.657748 73.5501 0.246795 73.2543 0.246795C70.9466 0.188088 68.6389 0.246795 66.3312 0.246795C66.0945 0.246795 65.7987 0.246795 65.562 0.305503C65.4436 0.540333 65.5028 0.716455 65.562 0.951285C66.1537 0.951285 66.7454 0.951285 67.278 0.951285C67.278 5.824 67.278 10.6967 67.278 15.5694C66.6862 15.5694 66.0945 15.5107 65.5028 15.6282C65.5028 15.8043 65.5028 16.0391 65.5028 16.2152C66.5679 16.2739 67.633 16.2152 68.6981 16.2739C70.2957 16.2739 71.8342 16.2739 73.4318 16.2739C73.491 16.0978 73.491 15.863 73.4318 15.6869C72.8401 15.5694 72.2484 15.6869 71.6567 15.6282C71.6567 13.456 71.6567 11.2251 71.6567 9.05291C73.1951 11.2251 74.7336 13.456 76.272 15.6282C75.8578 15.6282 75.4436 15.6282 75.0294 15.6869C75.0294 15.863 75.0294 16.0978 75.0294 16.2739C76.3904 16.3326 77.7513 16.2739 79.1123 16.3326C80.3549 16.1565 81.5975 16.2152 82.8993 16.1565Z" fill="#F1F1F2"/>
<path fill-rule="evenodd" clip-rule="evenodd" d="M96.0945 25.0815C95.7394 25.1402 95.3844 25.0815 95.0294 25.0815C94.9702 24.7293 94.9702 24.3183 94.9702 23.9661C95.2069 23.9661 95.4436 23.9661 95.6803 24.0248C95.7986 24.1422 95.9169 24.3183 96.0353 24.4357C96.0353 24.0835 96.0945 23.6725 95.9761 23.3203C95.8578 23.4377 95.7986 23.6138 95.6803 23.7312C95.4436 23.79 95.1477 23.7312 94.911 23.7312C94.911 23.379 94.911 23.0268 94.911 22.6158C95.2069 22.6158 95.5619 22.6158 95.8578 22.6158C95.9169 22.7919 95.9761 23.0268 96.1536 23.1442C96.2128 22.8506 96.2128 22.6158 96.272 22.3223C95.5027 22.381 94.7335 22.3223 93.9051 22.3223C94.0826 22.4397 94.2601 22.4984 94.4377 22.6158C94.4377 23.4377 94.4968 24.2009 94.4377 25.0228C94.201 25.0815 93.9643 25.0815 93.8459 25.2576C94.6743 25.3163 95.5027 25.2576 96.3311 25.2576C96.5087 25.0228 96.5678 24.7293 96.627 24.4944C96.5678 24.4944 96.4495 24.4944 96.4495 24.4944C96.3311 24.7293 96.2128 24.9054 96.0945 25.0815Z" fill="#F1F1F2"/>
<path fill-rule="evenodd" clip-rule="evenodd" d="M42.3076 22.4396C41.6567 22.3222 41.0649 22.4396 40.4141 22.3809C40.4732 22.557 40.7099 22.6157 40.8874 22.6744C40.9466 23.4963 40.9466 24.3182 40.8874 25.1401C40.7099 25.1988 40.5324 25.2575 40.4141 25.4336C40.9466 25.4336 41.4791 25.5511 41.9525 25.3162C41.775 25.2575 41.5975 25.1988 41.3608 25.1401C41.3608 24.3182 41.3608 23.4376 41.3608 22.6157C41.5975 22.6157 41.8933 22.6157 42.0709 22.7331C42.3667 22.9679 42.4259 23.4963 42.1892 23.8485C42.0117 24.0834 41.775 24.0247 41.5383 24.0247C41.5383 24.0834 41.5383 24.2008 41.5383 24.2595C41.9525 24.2595 42.4851 24.2008 42.7218 23.7898C43.0176 23.2615 42.8401 22.557 42.3076 22.4396Z" fill="#F1F1F2"/>
<path fill-rule="evenodd" clip-rule="evenodd" d="M63.4912 31.8898C63.1954 31.9485 62.8995 31.9485 62.6628 31.8311C62.6036 31.4788 62.6036 31.1853 62.6036 30.833C62.8403 30.833 63.077 30.833 63.3137 30.8917C63.3729 31.0092 63.432 31.1853 63.5504 31.244C63.6096 30.8917 63.6096 30.5395 63.5504 30.246C63.432 30.3634 63.3729 30.4808 63.3137 30.5982C63.077 30.5982 62.8403 30.5982 62.6036 30.5982C62.6036 30.246 62.6036 29.9524 62.6036 29.6002C62.8995 29.6002 63.1954 29.6002 63.4912 29.6002C63.5504 29.7176 63.5504 29.835 63.6096 29.9524C63.6687 29.9524 63.7279 29.9524 63.7871 29.9524C63.7871 29.7176 63.8462 29.5415 63.8462 29.3066C63.1362 29.3653 62.4261 29.3066 61.7161 29.3066C61.8936 29.4241 62.0119 29.4828 62.1894 29.5415C62.1894 30.246 62.2486 31.0092 62.1894 31.7136C62.0119 31.7136 61.8936 31.7724 61.7161 31.7724C61.7161 31.8311 61.7161 31.8898 61.7161 31.9485C62.4261 31.8311 63.1362 32.0072 63.9054 31.8898C63.9646 31.6549 64.0829 31.3614 64.0829 31.1266C63.7871 31.4788 63.7279 31.7724 63.4912 31.8898Z" fill="#F1F1F2"/>
<path fill-rule="evenodd" clip-rule="evenodd" d="M53.2545 25.2576C53.077 25.1989 52.8403 25.1402 52.6628 25.0815C52.6037 24.7293 52.6037 24.377 52.6037 24.0248C52.8995 24.0248 53.1954 24.0248 53.4912 24.0248C53.6096 24.2009 53.6096 24.377 53.8463 24.4944C53.8463 24.0835 53.8463 23.7312 53.8463 23.3203C53.6687 23.4377 53.6096 23.6138 53.4912 23.79C53.1954 23.79 52.8995 23.79 52.6037 23.79C52.6037 23.379 52.6628 23.0268 52.6628 22.6158C53.0179 22.6158 53.3729 22.5571 53.6687 22.6745C53.7279 22.7919 53.7871 22.968 53.7871 23.0855C53.8463 23.0855 53.9054 23.0855 53.9646 23.0855C53.9646 22.8506 54.0238 22.6158 54.0238 22.3223C53.1954 22.381 52.4261 22.3223 51.5977 22.3223C51.7161 22.4984 51.8936 22.5571 52.0711 22.6158C52.1303 23.4377 52.1303 24.2596 52.0711 25.0815C51.8936 25.1402 51.7161 25.1989 51.5386 25.3163C52.1303 25.3751 52.722 25.4925 53.2545 25.2576Z" fill="#F1F1F2"/>
<path fill-rule="evenodd" clip-rule="evenodd" d="M53.4909 0.892577C53.5501 0.657748 53.6092 0.246795 53.3134 0.246795C52.2483 0.246795 51.1832 0.246795 50.1181 0.246795C49.7631 0.246795 49.4672 0.246795 49.1122 0.305503C49.053 0.481625 49.053 0.716455 49.1122 0.892577C49.7039 0.951285 50.2365 0.892577 50.8282 0.951285C49.9998 3.06475 49.1714 5.23693 48.2838 7.3504C47.8696 8.34842 47.5146 9.34645 47.1004 10.4032C45.7394 7.17428 44.3785 4.06278 43.0175 0.892577C43.6092 0.892577 44.2601 0.951285 44.8518 0.83387C44.9702 0.657748 44.911 0.422918 44.8518 0.246795C43.7276 0.188088 42.6033 0.246795 41.4791 0.246795C39.7631 0.246795 38.0471 0.188088 36.3903 0.246795C36.3311 0.422918 36.3311 0.59904 36.272 0.775163C36.8637 0.951285 37.5146 0.83387 38.1655 0.892577C38.2838 0.951285 38.2838 1.12741 38.343 1.24482C40.4732 6.17625 42.5442 11.1077 44.6743 15.9804C44.7927 16.3326 45.266 16.2739 45.5619 16.1565C45.8578 15.452 46.1536 14.7475 46.4495 14.043C47.3371 11.8709 48.1655 9.63999 49.053 7.46781C49.8814 5.35434 50.7098 3.18217 51.5974 1.0687C51.5974 1.00999 51.6566 0.951285 51.7157 0.951285C52.2483 0.892577 52.84 0.951285 53.4909 0.892577Z" fill="#F1F1F2"/>
<path fill-rule="evenodd" clip-rule="evenodd" d="M49.8225 29.6602C49.9408 29.6015 50.1183 29.5428 50.2367 29.5428C50.1183 29.4841 50 29.4254 49.8817 29.4254C49.5266 29.4254 49.1716 29.3667 48.8757 29.5428C49.0532 29.6015 49.1716 29.6602 49.3491 29.7189C49.4083 30.4234 49.4083 31.1866 49.3491 31.8911C49.1716 31.9498 49.0532 32.0085 48.8757 32.0672C49.3491 32.2434 49.8225 32.126 50.355 32.1847C50.1775 32.0672 50 31.9498 49.8225 31.8911C49.7633 31.1279 49.7633 30.4234 49.8225 29.6602Z" fill="#F1F1F2"/>
<path fill-rule="evenodd" clip-rule="evenodd" d="M72.6034 23.9074C72.6034 23.4965 72.5443 23.0268 72.6034 22.6159C72.781 22.5572 73.0176 22.5572 73.136 22.3223C72.781 22.2636 72.4851 22.3223 72.1301 22.3223C71.8342 23.0855 71.4792 23.79 71.1242 24.4945C70.7691 23.79 70.4141 23.0855 70.1182 22.3223C69.7632 22.3223 69.4082 22.2049 69.0532 22.4397C69.2307 22.4984 69.4082 22.5572 69.6449 22.6159C69.5857 23.3791 69.5857 24.0835 69.4674 24.8467C69.4674 25.1403 69.1123 25.1403 68.9348 25.3164C69.4082 25.3164 69.8816 25.3164 70.3549 25.3164C70.2366 25.0816 69.8224 25.1403 69.7632 24.8467C69.7632 24.201 69.8224 23.6139 69.8816 22.9681C70.2958 23.7313 70.5324 24.6119 71.0058 25.3751C71.42 24.6119 71.7159 23.7313 72.1301 22.9681C72.1892 23.6139 72.1892 24.3184 72.1301 24.9642C71.9526 25.0229 71.775 25.0816 71.6567 25.1403C72.1301 25.3164 72.6626 25.2577 73.1952 25.199C73.0176 25.0816 72.8401 25.0229 72.7218 24.9055C72.6034 24.6706 72.6626 24.3184 72.6034 23.9074Z" fill="#F1F1F2"/>
<path fill-rule="evenodd" clip-rule="evenodd" d="M20.7691 24.1413C20.9466 24.2588 21.1833 24.3175 21.42 24.3762C21.42 24.6697 21.42 24.9045 21.42 25.1981C21.0058 25.3155 20.5915 25.3155 20.2365 25.022C19.6448 24.5523 19.5856 23.6717 19.8815 23.0259C20.1182 22.4975 20.8282 22.4388 21.3608 22.6149C21.6566 22.7324 21.6566 23.0846 21.775 23.3194C22.0708 23.1433 21.9525 22.7324 22.0117 22.4388C21.3016 22.3214 20.4732 22.204 19.8223 22.6149C18.9347 23.202 18.9939 24.8458 19.9998 25.3155C20.6507 25.609 21.42 25.4916 22.0708 25.3155C21.8933 25.022 21.8933 24.7284 21.8933 24.4349C21.9525 24.2588 22.13 24.2 22.2484 24.0826C21.775 24.0826 21.2424 23.9652 20.7691 24.1413Z" fill="#F1F1F2"/>
<path fill-rule="evenodd" clip-rule="evenodd" d="M100.355 23.8476C99.9998 23.6128 99.4081 23.4366 99.4081 22.9083C99.4081 22.4386 100.177 22.3212 100.355 22.7321C100.414 22.8496 100.355 23.1431 100.592 23.0844C100.651 22.8496 100.651 22.6147 100.71 22.3799C100.355 22.3212 99.9998 22.2625 99.5856 22.3212C99.1122 22.4386 98.7572 22.9083 98.9939 23.3779C99.1714 23.8476 99.704 24.0237 100.118 24.3172C100.414 24.4934 100.414 25.0217 100.059 25.1979C99.7631 25.3153 99.4081 25.2566 99.2306 24.963C99.1122 24.7869 99.0531 24.6108 98.9347 24.4347C98.6389 24.6108 98.9347 25.0217 98.9347 25.2566C99.4673 25.5501 100.296 25.4914 100.651 24.963C100.947 24.6108 100.769 24.0237 100.355 23.8476Z" fill="#F1F1F2"/>
<path fill-rule="evenodd" clip-rule="evenodd" d="M48.3432 22.3209C47.9882 22.4383 47.6924 22.6144 47.4557 22.8492C47.0415 23.4363 47.0415 24.2582 47.4557 24.8453C48.0474 25.7259 49.5267 25.6085 50.0592 24.7279C50.4142 24.1995 50.4142 23.495 50.0592 22.9667C49.7634 22.3796 48.9941 22.1448 48.3432 22.3209ZM49.5859 24.8453C49.2308 25.315 48.4616 25.2562 48.1066 24.8453C47.8107 24.5518 47.7515 24.0821 47.6924 23.6711C47.6924 23.2015 47.929 22.6144 48.4616 22.497C48.935 22.3796 49.4083 22.6731 49.645 23.0841C49.8817 23.6711 49.9409 24.3756 49.5859 24.8453Z" fill="#F1F1F2"/>
<path fill-rule="evenodd" clip-rule="evenodd" d="M45.7987 30.3065C45.6212 30.1304 45.6212 29.8368 45.7987 29.6607C45.9763 29.5433 46.2721 29.5433 46.4496 29.6607C46.5088 29.8368 46.568 30.013 46.6271 30.1304C46.8047 29.9543 46.8047 29.7194 46.8047 29.4846C46.6271 29.3672 46.3313 29.3672 46.0354 29.3672C45.5621 29.3672 45.1479 29.7781 45.3254 30.2478C45.4437 30.8349 46.1538 30.8936 46.4496 31.3045C46.568 31.5394 46.4496 31.7742 46.3313 31.9503C46.0354 32.009 45.6212 31.9503 45.5029 31.5981C45.3845 31.4807 45.3845 31.2458 45.207 31.3045C45.207 31.5981 45.1479 32.0677 45.5621 32.1264C45.9171 32.2439 46.3313 32.2439 46.6271 32.009C46.923 31.8329 47.1005 31.4219 46.923 31.0697C46.6863 30.7175 46.1538 30.6 45.7987 30.3065Z" fill="#F1F1F2"/>
<path fill-rule="evenodd" clip-rule="evenodd" d="M30.7693 22.3223C30.2368 22.4398 29.7042 22.8507 29.5859 23.3791C29.4676 23.9661 29.5859 24.6706 30.0593 25.0816C30.651 25.61 31.6569 25.5512 32.2486 24.9642C32.8403 24.3184 32.8403 23.2029 32.2486 22.6159C31.8344 22.3223 31.2427 22.2049 30.7693 22.3223ZM32.0119 24.7881C31.7752 25.3164 31.006 25.3164 30.5918 25.0229C30.1184 24.6706 30.0001 24.0249 30.1184 23.4378C30.1776 23.0268 30.4735 22.6159 30.8877 22.5572C31.2427 22.4985 31.5977 22.6746 31.8344 22.9094C32.2486 23.3791 32.3078 24.1423 32.0119 24.7881Z" fill="#F1F1F2"/>
<path fill-rule="evenodd" clip-rule="evenodd" d="M26.213 23.966C26.5088 23.7311 26.8047 23.4376 26.7455 23.0853C26.6864 22.7331 26.3313 22.3809 25.9763 22.3809C25.4438 22.3809 24.9704 22.4396 24.4378 22.3809C24.4378 22.4396 24.4378 22.4983 24.4378 22.557C24.5562 22.6157 24.7337 22.6157 24.852 22.6744C24.9112 23.4963 24.9112 24.3182 24.852 25.1401C24.6745 25.1988 24.497 25.2575 24.3787 25.3749C24.852 25.3749 25.3254 25.4336 25.7988 25.3749C25.9763 25.1988 25.5029 25.1988 25.3846 25.1401C25.3254 24.7879 25.3254 24.4356 25.3254 24.0834C25.4437 24.0834 25.6213 24.1421 25.7396 24.1421C26.0355 24.4943 26.213 24.964 26.568 25.2575C26.8639 25.4336 27.2189 25.4336 27.5739 25.3749C27.3964 25.1988 27.1597 25.1401 26.9822 24.964C26.6864 24.6705 26.4497 24.3182 26.213 23.966ZM25.3254 23.8485C25.3254 23.4376 25.3254 22.9679 25.3846 22.557C25.6213 22.557 25.8579 22.557 26.0946 22.7331C26.3905 22.9679 26.3905 23.3789 26.213 23.6724C25.9171 23.9073 25.6213 23.8485 25.3254 23.8485Z" fill="#F1F1F2"/>
<path fill-rule="evenodd" clip-rule="evenodd" d="M82.4853 24.9053C82.1303 24.0834 81.8345 23.2028 81.5386 22.3809C81.4203 22.3809 81.3019 22.3809 81.1836 22.3809C80.8877 23.2028 80.5919 24.0247 80.2368 24.8466C80.1185 25.1401 79.8226 25.1401 79.5859 25.3162C80.0593 25.3749 80.5327 25.3162 81.0061 25.3162C80.8877 25.1401 80.7102 25.0814 80.5327 25.0227C80.5919 24.7292 80.7102 24.4356 80.8285 24.1421C81.1244 24.1421 81.4203 24.1421 81.7753 24.1421C81.8936 24.4356 82.012 24.7292 82.0711 25.0227C81.8936 25.0814 81.7753 25.1988 81.6569 25.3162C82.1303 25.3749 82.6629 25.3749 83.1362 25.3162C82.8995 25.1988 82.6037 25.1401 82.4853 24.9053ZM80.8877 23.966C81.0061 23.6137 81.1244 23.2615 81.2427 22.9679C81.3611 23.3202 81.4794 23.6137 81.5978 23.966C81.3611 23.966 81.1244 23.966 80.8877 23.966Z" fill="#F1F1F2"/>
<path fill-rule="evenodd" clip-rule="evenodd" d="M76.1538 22.3808C75.8579 22.4395 75.5029 22.2633 75.207 22.4982C75.3845 22.5569 75.5029 22.6156 75.6804 22.6743C75.7396 23.0852 75.6804 23.4962 75.7396 23.9072C75.7396 24.3181 75.7988 24.6704 75.6804 25.0813C75.5029 25.1987 75.3845 25.2574 75.207 25.3748C75.7396 25.4335 76.2721 25.4335 76.8047 25.3748C76.6863 25.1987 76.4496 25.1987 76.2721 25.0813C76.2129 24.2594 76.2721 23.3788 76.2721 22.5569C76.5088 22.5569 76.8047 22.5569 77.0414 22.733C77.3372 23.0265 77.3372 23.5549 77.1005 23.8484C76.923 24.0246 76.6272 23.9659 76.3905 24.0246C76.568 24.3181 76.923 24.2007 77.1597 24.142C77.7514 23.9659 77.9881 23.0852 77.5739 22.6743C77.1005 22.2633 76.568 22.3808 76.1538 22.3808Z" fill="#F1F1F2"/>
<path fill-rule="evenodd" clip-rule="evenodd" d="M69.5264 29.6021C68.9347 29.8369 68.7572 30.7175 69.2897 31.1285C69.5856 31.3633 69.9406 31.1872 70.2957 31.1285C70.1773 31.3046 70.059 31.5395 69.8815 31.7156C69.6448 31.9504 69.2897 32.1265 69.0531 32.3614C69.6448 32.3614 70.1181 31.9504 70.4732 31.5395C70.8282 31.0698 70.9466 30.3653 70.6507 29.8956C70.4732 29.4847 69.9406 29.3673 69.5264 29.6021ZM70.3548 30.8937C70.1182 30.9524 69.7631 31.0111 69.5856 30.7763C69.2897 30.424 69.4081 29.6608 69.9406 29.7195C70.414 29.8369 70.4732 30.4827 70.3548 30.8937Z" fill="#F1F1F2"/>
<path fill-rule="evenodd" clip-rule="evenodd" d="M64.7929 22.3215C64.2604 22.4389 63.787 22.8499 63.6687 23.4369C63.5503 24.024 63.6687 24.7285 64.142 25.1395C64.7929 25.6091 65.7988 25.5504 66.3314 24.9633C66.8048 24.435 66.8639 23.4956 66.5089 22.9086C66.1539 22.3802 65.4438 22.1454 64.7929 22.3215ZM66.213 24.435C66.1539 24.7285 65.9764 25.022 65.6805 25.1395C65.2663 25.3156 64.7337 25.1395 64.4971 24.7285C64.142 24.2001 64.0829 23.4369 64.3787 22.8499C64.4379 22.7324 64.5562 22.615 64.7337 22.5563C65.148 22.3802 65.6805 22.4976 65.9172 22.8499C66.2722 23.3195 66.3314 23.9066 66.213 24.435Z" fill="#F1F1F2"/>
<path fill-rule="evenodd" clip-rule="evenodd" d="M86.9821 22.4984C87.1596 22.5571 87.3963 22.6158 87.633 22.6745C87.6921 23.3203 87.633 24.0248 87.6921 24.6706C87.0412 23.9074 86.4495 23.1442 85.7986 22.381C85.4436 22.3223 85.1478 22.3223 84.7927 22.3223C84.9111 22.4984 85.2069 22.5571 85.3844 22.6745C85.3844 23.4964 85.3844 24.2596 85.3253 25.0815C85.2069 25.1402 85.0294 25.1402 84.9111 25.1989C84.9111 25.2576 84.9111 25.3163 84.9111 25.3751C85.3253 25.3751 85.7395 25.3751 86.2128 25.3751C86.2128 25.3163 86.2128 25.2576 86.2128 25.1989C86.0353 25.1402 85.7395 25.1402 85.7395 24.9054C85.6803 24.2596 85.6803 23.6725 85.6803 23.0268C86.3312 23.79 86.9229 24.5531 87.5738 25.3163C87.6921 25.3163 87.8105 25.3751 87.9288 25.3751C87.9288 24.4357 87.9288 23.4964 87.988 22.6158C88.1655 22.5571 88.4022 22.5571 88.4022 22.3223C87.8696 22.4397 87.3963 22.2636 86.9821 22.4984Z" fill="#F1F1F2"/>
<path fill-rule="evenodd" clip-rule="evenodd" d="M71.3608 29.8366C71.0058 30.1889 71.0649 30.8934 71.4792 31.1869C71.775 31.363 72.13 31.1869 72.4259 31.1282C72.2484 31.4217 72.0709 31.7153 71.775 31.8914C71.5975 32.0675 71.3016 32.1262 71.2425 32.3611C71.9525 32.1849 72.6626 31.6566 72.8993 30.9521C73.0176 30.5411 72.9584 30.0128 72.6626 29.6605C72.2484 29.367 71.6567 29.4844 71.3608 29.8366ZM72.4259 30.8347C72.13 31.0695 71.6567 30.9521 71.5383 30.6585C71.3608 30.3063 71.4791 29.7779 71.8934 29.7192C72.4259 29.7192 72.6034 30.4237 72.4259 30.8347Z" fill="#F1F1F2"/>
<path fill-rule="evenodd" clip-rule="evenodd" d="M59.2306 31.8899C58.8756 32.066 58.4614 32.0073 58.1655 31.7725C57.633 31.3616 57.5738 30.4809 57.8697 29.9526C58.1655 29.5416 58.7572 29.4829 59.2306 29.7177C59.3489 29.8939 59.4081 30.1287 59.5856 30.3048C59.6448 30.0113 59.6448 29.7765 59.704 29.4829C59.1123 29.3655 58.4614 29.3068 57.8697 29.6003C56.9229 30.07 56.9821 31.7138 57.988 32.066C58.4022 32.2422 58.9347 32.2422 59.4081 32.1248C59.6448 31.9486 59.8223 31.6551 59.7631 31.3616C59.5856 31.5377 59.4081 31.7138 59.2306 31.8899Z" fill="#F1F1F2"/>
<path fill-rule="evenodd" clip-rule="evenodd" d="M60.4733 25.1403C59.8815 25.3752 59.1715 24.9642 58.994 24.3771C58.8165 23.7901 58.8756 22.9682 59.4673 22.6159C59.8224 22.4398 60.2957 22.4398 60.6508 22.6746C60.8875 22.792 60.7099 23.2617 61.0058 23.203C61.065 22.9682 61.065 22.6746 61.1241 22.3811C60.4733 22.2637 59.704 22.1463 59.1123 22.4985C58.2247 22.9682 58.1064 24.3771 58.8165 25.0816C59.4082 25.5513 60.1774 25.5513 60.8875 25.3165C61.0058 25.0816 61.2425 24.7881 61.1833 24.4946C60.9466 24.7294 60.7691 25.0229 60.4733 25.1403Z" fill="#F1F1F2"/>
<path fill-rule="evenodd" clip-rule="evenodd" d="M37.6331 22.6744C37.6923 23.1441 37.6923 23.6137 37.6923 24.0834C37.6923 24.3769 37.6923 24.7292 37.4556 24.964C37.2189 25.2575 36.8047 25.2575 36.5088 25.1401C36.1538 25.0227 35.9171 24.6117 35.9171 24.2595C35.9171 23.7311 35.9171 23.2615 35.9171 22.7331C36.0355 22.557 36.213 22.557 36.3905 22.4983C35.9763 22.3222 35.5029 22.4396 35.0295 22.3809C35.0295 22.4396 35.0295 22.4983 35.0295 22.557C35.1479 22.6157 35.2662 22.6157 35.3846 22.6744C35.5029 23.3789 35.3846 24.0834 35.5029 24.8466C35.6213 25.3162 36.0946 25.5511 36.568 25.5511C37.0414 25.5511 37.6331 25.4336 37.8106 24.9053C38.0473 24.2008 37.9289 23.4963 37.9881 22.7918C38.1656 22.6744 38.284 22.557 38.4615 22.4396C37.9881 22.4396 37.5739 22.4396 37.1005 22.4396C37.1597 22.557 37.3964 22.557 37.6331 22.6744Z" fill="#F1F1F2"/>
<path fill-rule="evenodd" clip-rule="evenodd" d="M91.4202 25.0815C91.361 24.2596 91.4202 23.4964 91.4202 22.6745C91.5386 22.5571 91.7752 22.4984 91.8936 22.4397C91.4202 22.2636 90.9468 22.381 90.4735 22.3223C90.4735 22.381 90.4735 22.4397 90.4735 22.4984C90.5918 22.5571 90.7693 22.5571 90.8877 22.6158C91.006 23.0268 90.9468 23.379 90.9468 23.79C90.9468 24.2009 91.006 24.6119 90.8877 25.0228C90.7102 25.1402 90.5326 25.1989 90.4143 25.3163C90.9468 25.3163 91.4794 25.3751 91.9528 25.3163C91.8344 25.1989 91.6569 25.1402 91.4202 25.0815Z" fill="#F1F1F2"/>
<path fill-rule="evenodd" clip-rule="evenodd" d="M0 23.6133C0 23.7307 0 23.9068 0 24.0242C5.56213 24.0242 11.1834 24.0242 16.7456 24.0242C16.7456 23.9068 16.7456 23.7307 16.7456 23.6133C11.1834 23.6133 5.56213 23.6133 0 23.6133Z" fill="#F1F1F2"/>
<path fill-rule="evenodd" clip-rule="evenodd" d="M74.3785 31.8914C74.3194 31.0695 74.3785 30.3063 74.3194 29.4844C74.0235 29.5431 73.7868 29.6605 73.491 29.7192C73.491 29.954 73.7277 29.8366 73.9052 29.954C73.9052 30.5998 73.9643 31.2456 73.9052 31.9501C73.7868 32.0088 73.6093 32.0675 73.491 32.0675C73.491 32.1262 73.491 32.1849 73.491 32.2436C73.9643 32.1849 74.4377 32.2436 74.9111 32.2436C74.7927 31.9501 74.556 31.9501 74.3785 31.8914Z" fill="#F1F1F2"/>
<path fill-rule="evenodd" clip-rule="evenodd" d="M119.823 23.6133C114.26 23.6133 108.757 23.6133 103.195 23.6133C103.195 23.7307 103.195 23.9068 103.195 24.0242C108.817 24.0242 114.379 24.0242 120 24.0242C119.941 23.9068 120.059 23.6133 119.823 23.6133Z" fill="#F1F1F2"/>
<path fill-rule="evenodd" clip-rule="evenodd" d="M68.1066 31.8914C68.0474 31.0695 68.1066 30.3063 68.1066 29.4844C67.8699 29.6018 67.574 29.6605 67.3373 29.7192C67.1598 29.954 67.574 29.8366 67.6924 29.8953C67.6924 30.5411 67.6924 31.2456 67.6924 31.8914C67.5149 31.9501 67.3965 31.9501 67.219 32.0088C67.219 32.0675 67.219 32.1262 67.219 32.1849C67.6924 32.1262 68.1657 32.1849 68.6391 32.1849C68.4616 32.0088 68.2841 31.9501 68.1066 31.8914Z" fill="#F1F1F2"/>
<path fill-rule="evenodd" clip-rule="evenodd" d="M54.0831 29.4828C53.9055 29.6589 54.3789 29.6589 54.4973 29.7176C54.5564 30.3047 54.4973 30.8917 54.4973 31.4788C53.9647 30.8917 53.4913 30.3047 53.018 29.6589C52.7813 29.3066 52.3079 29.3653 51.9529 29.4828C52.1304 29.6002 52.3671 29.6002 52.4854 29.7176C52.5446 30.4221 52.4854 31.0679 52.4263 31.7724C52.2487 31.8311 52.0712 31.9485 51.9529 32.0072C52.3671 32.0659 52.8405 32.0659 53.3138 32.0659C53.1363 31.9485 52.9588 31.8311 52.7813 31.7724C52.7221 31.1853 52.7221 30.5982 52.7813 29.9524C53.3138 30.5982 53.8464 31.244 54.3197 31.8898C54.3789 32.0659 54.6156 32.0072 54.7339 32.0659C54.7339 31.244 54.7339 30.4221 54.7931 29.6002C54.9115 29.5415 55.089 29.4241 55.2073 29.3066C54.8523 29.4828 54.4973 29.4241 54.0831 29.4828Z" fill="#F1F1F2"/>
</svg>
