<svg width="95" height="48" viewBox="0 0 95 48" fill="none" xmlns="http://www.w3.org/2000/svg">
<path d="M27.788 27.1239C26.4652 27.1062 25.153 27.3621 23.9339 27.8755C22.7148 28.389 21.6152 29.1489 20.7041 30.1075C18.8283 32.0339 17.7788 34.6157 17.7788 37.3036C17.7788 39.9916 18.8283 42.5734 20.7041 44.4997C21.6154 45.4581 22.7151 46.2178 23.9341 46.7313C25.1532 47.2447 26.4653 47.5007 27.788 47.4833C30.1352 47.492 32.4082 46.6615 34.1963 45.1418C34.2588 45.0898 34.3091 45.0246 34.3436 44.951C34.378 44.8773 34.3958 44.7969 34.3957 44.7156V43.7303C34.3963 43.6204 34.3642 43.5127 34.3034 43.4211C34.2426 43.3295 34.1558 43.258 34.0542 43.2158C33.9526 43.1737 33.8408 43.1627 33.7329 43.1843C33.625 43.206 33.5261 43.2592 33.4486 43.3373C32.7366 44.0739 31.8813 44.6571 30.9353 45.051C29.9893 45.4449 28.9727 45.6411 27.948 45.6277C26.9233 45.6142 25.9122 45.3913 24.9769 44.9726C24.0417 44.554 23.202 43.9485 22.5097 43.1934C21.7506 42.4151 21.1543 41.4934 20.7559 40.4821C20.3574 39.4708 20.1647 38.3902 20.189 37.3036C20.1526 35.1092 20.9869 32.9897 22.5097 31.4084C23.2028 30.6543 24.0429 30.0499 24.9784 29.6322C25.9138 29.2145 26.9248 28.9923 27.9492 28.9794C28.9737 28.9664 29.99 29.1629 30.9357 29.5568C31.8814 29.9507 32.7366 30.5337 33.4486 31.27C33.5261 31.348 33.625 31.4013 33.7329 31.4229C33.8408 31.4445 33.9526 31.4336 34.0542 31.3914C34.1558 31.3492 34.2426 31.2778 34.3034 31.1862C34.3642 31.0945 34.3963 30.9869 34.3957 30.877V29.8916C34.3958 29.8103 34.378 29.73 34.3436 29.6563C34.3091 29.5826 34.2588 29.5175 34.1963 29.4654C32.4094 27.9436 30.1357 27.1128 27.788 27.1239Z" fill="#F1F1F2"/>
<path d="M47.395 45.1354H44.5814V32.1492C44.5814 32.0024 44.523 31.8616 44.4191 31.7578C44.3153 31.654 44.1744 31.5957 44.0275 31.5957H43.0915C42.9446 31.5957 42.8037 31.654 42.6998 31.7578C42.596 31.8616 42.5376 32.0024 42.5376 32.1492V46.237C42.5376 46.3838 42.596 46.5246 42.6998 46.6284C42.8037 46.7322 42.9446 46.7905 43.0915 46.7905H47.395C47.5419 46.7905 47.6828 46.7322 47.7867 46.6284C47.8905 46.5246 47.9489 46.3838 47.9489 46.237V45.6835C47.9474 45.5376 47.8884 45.3982 47.7847 45.2956C47.681 45.193 47.541 45.1354 47.395 45.1354Z" fill="#F1F1F2"/>
<path d="M63.3133 31.5957H62.3828C62.2359 31.5957 62.0951 31.654 61.9912 31.7578C61.8873 31.8616 61.829 32.0024 61.829 32.1492V42.6223C61.8511 43.3276 61.599 44.0141 61.1256 44.5376C60.9065 44.7832 60.6363 44.9779 60.3339 45.1079C60.0316 45.238 59.7044 45.3003 59.3753 45.2904C59.0468 45.2852 58.723 45.2116 58.4245 45.0744C58.126 44.9371 57.8594 44.7393 57.6417 44.4933C57.3903 44.2512 57.191 43.9604 57.0557 43.6388C56.9205 43.3171 56.8523 42.9712 56.8552 42.6223V32.1492C56.8552 32.0024 56.7969 31.8616 56.693 31.7578C56.5891 31.654 56.4483 31.5957 56.3014 31.5957H55.7918C55.6449 31.5957 55.504 31.654 55.4002 31.7578C55.2963 31.8616 55.2379 32.0024 55.2379 32.1492V42.6223C55.2334 43.188 55.3423 43.7489 55.5583 44.2718C55.7742 44.7947 56.0928 45.269 56.4952 45.6668C56.8923 46.0719 57.3663 46.3937 57.8893 46.6133C58.4124 46.833 58.9741 46.9462 59.5415 46.9462C60.1089 46.9462 60.6706 46.833 61.1936 46.6133C61.7167 46.3937 62.1907 46.0719 62.5878 45.6668C62.9947 45.2713 63.3177 44.7978 63.5375 44.2747C63.7573 43.7517 63.8695 43.1897 63.8672 42.6223V32.1492C63.8672 32.0024 63.8088 31.8616 63.705 31.7578C63.6011 31.654 63.4602 31.5957 63.3133 31.5957Z" fill="#F1F1F2"/>
<path d="M76.4345 39.9495C76.1355 39.5164 75.7601 39.1412 75.3268 38.8424C75.6735 38.5778 75.9763 38.2602 76.2241 37.9014C76.6406 37.2913 76.8821 36.579 76.9224 35.8415C76.9628 35.1041 76.8004 34.3697 76.4529 33.7179C76.1054 33.0661 75.5861 32.5218 74.9512 32.1439C74.3162 31.7661 73.5899 31.5691 72.851 31.5743H71.915C71.7681 31.5743 71.6272 31.6326 71.5233 31.7364C71.4194 31.8403 71.3611 31.9811 71.3611 32.1279V46.2378C71.3611 46.3846 71.4194 46.5254 71.5233 46.6292C71.6272 46.733 71.7681 46.7913 71.915 46.7913H72.851C73.6481 46.7939 74.4307 46.5777 75.1133 46.1663C75.796 45.7549 76.3525 45.1641 76.7222 44.4582C77.0919 43.7524 77.2605 42.9587 77.2098 42.1636C77.1591 41.3686 76.8909 40.6027 76.4345 39.9495ZM73.4326 38.001V33.2903C73.9698 33.4109 74.4501 33.7107 74.7943 34.1402C75.1386 34.5698 75.3264 35.1036 75.3268 35.654C75.3336 35.971 75.2741 36.2859 75.152 36.5785C75.0299 36.8712 74.848 37.1351 74.6178 37.3533C74.2953 37.6814 73.8829 37.9067 73.4326 38.001ZM73.4326 45.0532V39.8554C73.8974 39.9584 74.3263 40.1835 74.6751 40.5075C75.0238 40.8315 75.2796 41.2427 75.4162 41.6985C75.5529 42.1544 75.5653 42.6384 75.4522 43.1007C75.3391 43.5629 75.1046 43.9866 74.7729 44.328C74.41 44.6999 73.9426 44.9528 73.4326 45.0532Z" fill="#F1F1F2"/>
<path d="M6.45296 8.69635C5.4401 8.43069 4.47427 8.0106 3.58946 7.45087C3.2357 7.23465 2.94345 6.93121 2.74075 6.56966C2.53805 6.20811 2.43169 5.80058 2.43187 5.38614C2.40317 4.46204 2.73482 3.56293 3.35683 2.87858C3.64365 2.5545 3.99816 2.29729 4.39533 2.12513C4.7925 1.95296 5.22264 1.87003 5.65539 1.8822C6.1084 1.87398 6.55815 1.96032 6.97587 2.1357C7.39359 2.31108 7.77011 2.57164 8.08134 2.90072C8.40835 3.22106 8.66644 3.60479 8.83978 4.02837C9.01312 4.45195 9.09806 4.90645 9.08938 5.364C9.08938 5.51081 9.14773 5.65161 9.2516 5.75542C9.35547 5.85923 9.49635 5.91755 9.64325 5.91755H10.3522C10.4991 5.91755 10.64 5.85923 10.7438 5.75542C10.8477 5.65161 10.9061 5.51081 10.9061 5.364C10.9174 4.66447 10.7879 3.9698 10.5253 3.32127C10.2627 2.67274 9.87233 2.08358 9.37739 1.58882C8.8977 1.08688 8.31959 0.689197 7.67918 0.420611C7.03878 0.152026 6.34983 0.0183105 5.65539 0.0278173C4.9628 0.0198362 4.27598 0.154293 3.63759 0.422832C2.9992 0.691371 2.42289 1.08825 1.94447 1.58882C1.44472 2.08085 1.05009 2.66913 0.78447 3.31804C0.518853 3.96695 0.387775 4.66299 0.399174 5.364C0.383014 6.72356 0.904523 8.03453 1.85031 9.01187C2.79035 9.96478 3.96835 10.649 5.26214 10.9936C7.85425 11.7409 9.13923 12.9254 9.13923 14.6193C9.17508 15.6327 8.82469 16.6219 8.15888 17.387C7.856 17.7457 7.47612 18.0315 7.04748 18.2231C6.61884 18.4148 6.15248 18.5074 5.68308 18.4941C5.18636 18.5052 4.6928 18.4124 4.23403 18.2218C3.77526 18.0312 3.3614 17.7468 3.01897 17.387C2.65888 17.0321 2.37493 16.6076 2.18448 16.1393C1.99402 15.6711 1.90105 15.1689 1.91124 14.6636C1.91124 14.5168 1.85288 14.376 1.74901 14.2722C1.64514 14.1684 1.50426 14.11 1.35737 14.11H0.554258C0.407363 14.11 0.266484 14.1684 0.162613 14.2722C0.0587427 14.376 0.000388777 14.5168 0.000388777 14.6636C-0.0084673 15.4158 0.134061 16.1621 0.419504 16.8582C0.704947 17.5543 1.12748 18.1859 1.662 18.7155C2.17685 19.2563 2.79762 19.6852 3.48562 19.9757C4.17362 20.2662 4.9141 20.4119 5.66093 20.4039C6.40707 20.4128 7.14699 20.2675 7.83423 19.9769C8.52146 19.6864 9.14113 19.2569 9.65432 18.7155C10.1897 18.1877 10.6129 17.5572 10.8984 16.8618C11.1839 16.1665 11.3259 15.4207 11.3159 14.6691C11.3049 11.6578 9.67094 9.66506 6.45296 8.69635Z" fill="#F1F1F2"/>
<path d="M24.3319 18.0124H21.5182V5.0262C21.5182 4.87939 21.4599 4.7386 21.356 4.63479C21.2521 4.53098 21.1112 4.47266 20.9643 4.47266H20.0338C19.887 4.47266 19.7461 4.53098 19.6422 4.63479C19.5383 4.7386 19.48 4.87939 19.48 5.0262V19.114C19.48 19.2608 19.5383 19.4016 19.6422 19.5054C19.7461 19.6092 19.887 19.6675 20.0338 19.6675H24.3319C24.4788 19.6675 24.6196 19.6092 24.7235 19.5054C24.8274 19.4016 24.8857 19.2608 24.8857 19.114V18.5604C24.8843 18.4146 24.8253 18.2752 24.7216 18.1726C24.6179 18.07 24.4778 18.0124 24.3319 18.0124Z" fill="#F1F1F2"/>
<path d="M34.6396 4.47266H33.7035C33.3976 4.47266 33.1497 4.72049 33.1497 5.0262V19.114C33.1497 19.4197 33.3976 19.6675 33.7035 19.6675H34.6396C34.9455 19.6675 35.1934 19.4197 35.1934 19.114V5.0262C35.1934 4.72049 34.9455 4.47266 34.6396 4.47266Z" fill="#F1F1F2"/>
<path d="M49.1563 3.80279C49.0243 3.80088 48.896 3.84611 48.7945 3.93034C48.6929 4.01457 48.6248 4.13227 48.6024 4.26224L47.9655 7.84922L47.3451 4.26224C47.3227 4.13227 47.2546 4.01457 47.153 3.93034C47.0515 3.84611 46.9232 3.80088 46.7913 3.80279C46.6593 3.80088 46.531 3.84611 46.4295 3.93034C46.3279 4.01457 46.2598 4.13227 46.2374 4.26224L43.6453 19.0198C43.6314 19.0999 43.6354 19.1822 43.657 19.2606C43.6786 19.339 43.7172 19.4118 43.77 19.4736C43.8229 19.5354 43.8888 19.5849 43.963 19.6184C44.0371 19.6519 44.1178 19.6686 44.1991 19.6674H44.753C44.885 19.6693 45.0133 19.6241 45.1148 19.5399C45.2164 19.4557 45.2845 19.338 45.3069 19.208L46.5974 11.9067L47.1845 15.4992C47.2069 15.6292 47.275 15.7469 47.3766 15.8311C47.4781 15.9154 47.6064 15.9606 47.7384 15.9587C47.8703 15.9606 47.9986 15.9154 48.1002 15.8311C48.2017 15.7469 48.2698 15.6292 48.2922 15.4992L48.9292 11.9122L50.1975 19.208C50.22 19.338 50.2881 19.4557 50.3896 19.5399C50.4912 19.6241 50.6195 19.6693 50.7514 19.6674H51.7705C51.8519 19.6686 51.9326 19.6519 52.0067 19.6184C52.0809 19.5849 52.1468 19.5354 52.1996 19.4736C52.2525 19.4118 52.2911 19.339 52.3127 19.2606C52.3342 19.1822 52.3382 19.0999 52.3244 19.0198L49.7046 4.26224C49.6823 4.13321 49.615 4.01626 49.5146 3.93214C49.4142 3.84803 49.2873 3.8022 49.1563 3.80279Z" fill="#F1F1F2"/>
<path d="M80.0011 4.47266H79.0651C78.7592 4.47266 78.5112 4.72049 78.5112 5.0262V19.114C78.5112 19.4197 78.7592 19.6675 79.0651 19.6675H80.0011C80.307 19.6675 80.555 19.4197 80.555 19.114V5.0262C80.555 4.72049 80.307 4.47266 80.0011 4.47266Z" fill="#F1F1F2"/>
<path d="M94.4462 4.47266H89.7272C89.5803 4.47266 89.4394 4.53098 89.3356 4.63479C89.2317 4.7386 89.1733 4.87939 89.1733 5.0262V5.57975C89.1733 5.72656 89.2317 5.86735 89.3356 5.97116C89.4394 6.07498 89.5803 6.1333 89.7272 6.1333H91.0731V19.114C91.0731 19.2608 91.1315 19.4016 91.2353 19.5054C91.3392 19.6092 91.4801 19.6675 91.627 19.6675H92.563C92.7099 19.6675 92.8508 19.6092 92.9547 19.5054C93.0585 19.4016 93.1169 19.2608 93.1169 19.114V6.12222H94.4462C94.5931 6.12222 94.7339 6.0639 94.8378 5.96009C94.9417 5.85628 95 5.71549 95 5.56868V5.01513C94.9971 4.87025 94.9375 4.73228 94.8339 4.63085C94.7304 4.52943 94.5912 4.47263 94.4462 4.47266Z" fill="#F1F1F2"/>
<path d="M70.6798 0H62.5878C62.4409 0 62.3 0.0583199 62.1962 0.16213C62.0923 0.26594 62.0339 0.406737 62.0339 0.553546V19.7505C62.0339 19.8973 62.0923 20.0381 62.1962 20.1419C62.3 20.2458 62.4409 20.3041 62.5878 20.3041H63.6955C63.8424 20.3041 63.9833 20.2458 64.0872 20.1419C64.1911 20.0381 64.2494 19.8973 64.2494 19.7505V7.68322H70.6577C70.8046 7.68322 70.9455 7.6249 71.0493 7.52109C71.1532 7.41728 71.2116 7.27649 71.2116 7.12968V6.91379C71.2116 6.76698 71.1532 6.62619 71.0493 6.52238C70.9455 6.41857 70.8046 6.36025 70.6577 6.36025H64.2494V1.32298H70.6577C70.8046 1.32298 70.9455 1.26466 71.0493 1.16085C71.1532 1.05704 71.2116 0.916239 71.2116 0.769429V0.553546C71.2117 0.410494 71.1564 0.272951 71.0572 0.169755C70.9581 0.0665585 70.8229 0.00572206 70.6798 0V0Z" fill="#F1F1F2"/>
</svg>
