<svg width="661" height="1402" viewBox="0 0 661 1402" fill="none" xmlns="http://www.w3.org/2000/svg">
<path opacity="0.25" d="M660.96 330.286C660.929 328.61 660.893 326.941 660.851 325.277L660.351 325.29C660.308 323.628 660.259 321.971 660.204 320.321L660.704 320.304C660.649 318.653 660.588 317.007 660.52 315.368L660.021 315.388C659.952 313.727 659.878 312.072 659.796 310.423L660.296 310.398C660.213 308.725 660.124 307.057 660.029 305.396L659.53 305.425C659.434 303.766 659.332 302.113 659.223 300.466L659.722 300.433C659.613 298.785 659.498 297.143 659.376 295.508L658.877 295.545C658.753 293.883 658.622 292.228 658.485 290.58L658.983 290.538C658.844 288.87 658.697 287.208 658.544 285.553L658.046 285.599C657.893 283.946 657.733 282.3 657.566 280.66L658.063 280.609C657.896 278.968 657.722 277.334 657.54 275.706L657.044 275.762C656.858 274.099 656.666 272.443 656.466 270.794L656.962 270.734C656.761 269.075 656.553 267.423 656.337 265.778L655.841 265.843C655.626 264.201 655.403 262.565 655.172 260.937L655.667 260.866C655.436 259.231 655.197 257.602 654.95 255.981L654.456 256.056C654.204 254.398 653.944 252.747 653.677 251.104L654.17 251.023C653.902 249.378 653.626 247.741 653.343 246.111L652.85 246.197C652.567 244.569 652.276 242.949 651.977 241.337L652.468 241.246C652.165 239.608 651.853 237.978 651.533 236.356L651.043 236.452C650.72 234.812 650.388 233.181 650.048 231.557L650.538 231.455C650.198 229.829 649.849 228.212 649.492 226.602L649.004 226.71C648.647 225.101 648.282 223.5 647.909 221.906L648.396 221.792C648.013 220.158 647.621 218.532 647.221 216.914L646.735 217.034C646.335 215.419 645.927 213.812 645.509 212.214L645.993 212.087C645.575 210.487 645.149 208.895 644.713 207.312L644.231 207.445C643.789 205.838 643.339 204.241 642.879 202.652L643.359 202.513C642.895 200.908 642.421 199.312 641.938 197.726L641.46 197.871C640.978 196.287 640.487 194.712 639.986 193.146L640.463 192.993C639.958 191.413 639.443 189.841 638.92 188.279L638.445 188.438C637.914 186.854 637.374 185.279 636.823 183.714L637.295 183.548C636.744 181.98 636.183 180.422 635.612 178.874L635.143 179.047C634.573 177.498 633.992 175.958 633.402 174.428L633.869 174.249C633.266 172.686 632.653 171.133 632.03 169.59L631.567 169.777C630.945 168.237 630.313 166.707 629.671 165.187L630.132 164.992C629.489 163.47 628.835 161.957 628.172 160.455L627.715 160.657C627.041 159.129 626.356 157.612 625.661 156.105L626.115 155.896C625.417 154.384 624.709 152.883 623.991 151.393L623.54 151.61C622.823 150.122 622.095 148.645 621.357 147.178L621.804 146.953C621.054 145.462 620.293 143.983 619.521 142.514L619.078 142.746C618.305 141.275 617.521 139.815 616.727 138.366L617.165 138.125C616.369 136.674 615.562 135.233 614.744 133.803L614.31 134.052C613.484 132.608 612.647 131.175 611.799 129.754L612.228 129.498C611.375 128.069 610.511 126.652 609.636 125.245L609.211 125.51C608.338 124.106 607.453 122.714 606.557 121.334L606.976 121.061C606.07 119.665 605.152 118.28 604.223 116.908L603.809 117.188C602.879 115.813 601.937 114.451 600.984 113.1L601.393 112.811C600.438 111.458 599.471 110.116 598.493 108.786L598.09 109.082C597.107 107.745 596.112 106.42 595.105 105.106L595.502 104.802C594.491 103.484 593.468 102.177 592.434 100.883L592.043 101.195C591.011 99.903 589.967 98.6232 588.911 97.3555L589.296 97.0355C588.232 95.7588 587.157 94.4942 586.07 93.2419L585.693 93.5696C584.607 92.3186 583.509 91.0799 582.399 89.8535L582.77 89.518C581.658 88.289 580.534 87.0723 579.399 85.8679L579.035 86.2109C577.899 85.0061 576.751 83.8137 575.591 82.6336L575.947 82.2831C574.784 81.1003 573.61 79.9299 572.423 78.7719L572.074 79.1298C570.889 77.9742 569.693 76.831 568.485 75.7002L568.827 75.3352C567.617 74.2031 566.395 73.0834 565.162 71.9762L564.828 72.3483C563.597 71.2434 562.354 70.1509 561.099 69.0709L561.425 68.6919C560.168 67.61 558.899 66.5405 557.618 65.4835L557.299 65.8692C556.026 64.8188 554.741 63.7807 553.444 62.755L553.755 62.3628C552.455 61.335 551.143 60.3195 549.82 59.3165L549.518 59.715C548.199 58.7152 546.868 57.7278 545.525 56.7527L545.819 56.3482C544.482 55.3778 543.134 54.4196 541.774 53.4737L541.489 53.8842C540.132 52.9403 538.763 52.0085 537.383 51.0891L537.66 50.6729C536.279 49.7536 534.887 48.8465 533.484 47.9517L533.215 48.3733C531.827 47.4885 530.427 46.6157 529.016 45.7548L529.277 45.328C527.863 44.4655 526.438 43.615 525.001 42.7766L524.749 43.2085C523.319 42.3742 521.878 41.5519 520.426 40.7415L520.669 40.3049C519.231 39.5024 517.781 38.7117 516.32 37.9327L516.085 38.3739C514.627 37.5964 513.158 36.8307 511.678 36.0767L511.905 35.6311C510.426 34.8779 508.936 34.1365 507.435 33.4068L507.216 33.8564C505.74 33.1386 504.253 32.4322 502.754 31.7371L502.965 31.2836C501.464 30.5872 499.953 29.9024 498.43 29.2289L498.228 29.6862C496.711 29.015 495.183 28.3553 493.644 27.7069L493.838 27.2461C492.325 26.6086 490.801 25.982 489.268 25.3665L489.081 25.8305C487.55 25.2161 486.009 24.6126 484.457 24.0202L484.635 23.5531C483.08 22.9597 481.515 22.3773 479.94 21.806L479.77 22.276C478.229 21.7175 476.679 21.1695 475.119 20.6322L475.282 20.1594C473.722 19.6221 472.152 19.0953 470.572 18.5792L470.417 19.0545C468.839 18.5391 467.252 18.0344 465.655 17.5403L465.802 17.0626C464.23 16.5762 462.648 16.1001 461.057 15.6343L460.916 16.1142C459.338 15.6524 457.751 15.2007 456.155 14.7592L456.288 14.2773C454.689 13.8352 453.081 13.4031 451.463 12.9813L451.337 13.4651C449.738 13.0483 448.13 12.6415 446.513 12.2446L446.632 11.759C445.038 11.3678 443.435 10.9862 441.823 10.6142L441.711 11.1014C440.101 10.7301 438.482 10.3683 436.854 10.0163L436.96 9.52756C435.331 9.17517 433.692 8.83247 432.045 8.49947L431.946 8.98956C430.345 8.66597 428.736 8.35156 427.118 8.04632L427.211 7.555C425.591 7.24936 423.962 6.95293 422.326 6.66571L422.239 7.15818C420.604 6.87133 418.961 6.59367 417.309 6.32522L417.389 5.83169C415.76 5.56697 414.123 5.3112 412.478 5.06439L412.403 5.55886C410.782 5.31571 409.153 5.08126 407.516 4.85554L407.584 4.36022C405.945 4.13423 404.298 3.91696 402.643 3.70845L402.58 4.20452C400.927 3.99625 399.265 3.7967 397.596 3.6059L397.653 3.10914C396.028 2.92341 394.395 2.74596 392.755 2.57681L392.704 3.07417C391.068 2.9055 389.425 2.74508 387.774 2.59292L387.82 2.09503C386.168 1.9427 384.508 1.79865 382.84 1.66288L382.799 2.16123C381.146 2.0266 379.485 1.90012 377.816 1.78181L377.851 1.28306C376.219 1.16734 374.58 1.05942 372.934 0.959312L372.903 1.45839C371.259 1.35838 369.607 1.26618 367.948 1.18179L367.973 0.682438C366.312 0.597967 364.645 0.521319 362.97 0.452505L362.949 0.952083C361.298 0.884245 359.64 0.824026 357.975 0.771437L357.991 0.271686C356.353 0.219973 354.709 0.175632 353.058 0.138671L353.047 0.638546C351.398 0.601619 349.742 0.572066 348.079 0.549896L348.086 0.0499402C346.421 0.0277504 344.75 0.0129504 343.073 0.00554996L343.07 0.505545C342.233 0.501849 341.393 0.5 340.552 0.5H338.135V0H333.303V0.5H328.47V0H323.638V0.5H318.805V0H313.973V0.5H309.14V0H304.308V0.5H299.475V0H294.643V0.5H289.81V0H284.978V0.5H280.146V0H275.313V0.5H270.481V0H265.648V0.5H260.816V0H255.983V0.5H251.151V0H246.318V0.5H241.486V0H236.653V0.5H231.821V0H226.988V0.5H222.156V0H217.323V0.5H214.907H212.349V0H207.232V0.5H202.115V0H196.998V0.5H191.881V0H186.764V0.5H181.648V0H176.531V0.5H171.414V0H166.297V0.5H161.18V0H156.063V0.5H150.947V0H145.83V0.5H140.713V0H135.596V0.5H130.479V0H125.362V0.5H120.246V0H115.129V0.5H110.012V0H104.895V0.5H99.7783V0H94.6614V0.5H89.5446V0H84.4278V0.5H79.3109V0H74.1941V0.5H69.0773V0H63.9604V0.5H58.8436V0H53.7267V0.5H48.6099V0H43.4931V0.5H38.3762V0H33.2594V0.5H28.1426V0H23.0257V0.5H17.9089V0H12.7921V0.5H7.67522V0H2.55838V0.5H0.5V2.47888H0V7.43665H0.5V12.3944H0V17.3522H0.5V22.31H0V27.2677H0.5V32.2255H0V37.1833H0.5V42.141H0V47.0988H0.5V52.0566H0V57.0143H0.5V61.9721H0V66.9299H0.5V71.8876H0V76.8454H0.5V81.8031H0V86.7609H0.5V91.7187H0V96.6764H0.5V101.634H0V106.592H0.5V111.55H0V116.507H0.5V121.465H0V126.423H0.5V131.381H0V136.339H0.5V141.296H0V146.254H0.5V151.212H0V156.17H0.5V161.127H0V166.085H0.5V171.043H0V176.001H0.5V180.958H0V185.916H0.5V190.874H0V195.832H0.5V198.311V200.799H0V205.776H0.5V210.753H0V215.731H0.5V220.708H0V225.685H0.5V230.662H0V235.639H0.5V240.616H0V245.593H0.5V250.57H0V255.548H0.5V260.525H0V265.502H0.5V270.479H0V275.456H0.5V280.433H0V285.41H0.5V290.387H0V295.365H0.5V300.342H0V305.319H0.5V310.296H0V315.273H0.5V320.25H0V325.227H0.5V330.204H0V335.182H0.5V340.159H0V345.136H0.5V350.113H0V355.09H0.5V360.067H0V365.044H0.5V370.021H0V374.999H0.5V379.976H0V384.953H0.5V389.93H0V394.907H0.5V399.884H0V404.861H0.5V409.838H0V414.816H0.5V419.793H0V424.77H0.5V429.747H0V434.724H0.5V439.701H0V444.678H0.5V449.655H0V454.633H0.5V459.61H0V464.587H0.5V469.564H0V474.541H0.5V479.518H0V484.495H0.5V489.472H0V494.449H0.5V499.427H0V504.404H0.5V509.381H0V514.358H0.5V519.335H0V524.312H0.5V529.289H0V534.266H0.5V539.243H0V544.221H0.5V549.198H0V554.175H0.5V559.152H0V564.129H0.5V569.106H0V574.083H0.5V579.06H0V584.037H0.5V589.015H0V593.992H0.5V598.969H0V603.946H0.5V608.923H0V613.9H0.5V618.877H0V623.854H0.5V628.831H0V633.809H0.5V638.786H0V643.763H0.5V648.74H0V653.717H0.5V658.694H0V663.671H0.5V668.648H0V673.625H0.5V678.603H0V683.58H0.5V688.557H0V693.534H0.5V698.511H0V703.488H0.5V708.465H0V713.442H0.5V718.419H0V723.397H0.5V728.374H0V733.351H0.5V738.328H0V743.305H0.5V748.282H0V753.259H0.5V758.236H0V763.214H0.5V768.191H0V773.168H0.5V778.145H0V783.122H0.5V788.099H0V793.076H0.5V798.053H0V803.03H0.5V808.008H0V812.985H0.5V817.962H0V822.939H0.5V827.916H0V832.893H0.5V837.87H0V842.847H0.5V847.824H0V852.802H0.5V857.779H0V862.756H0.5V867.733H0V872.71H0.5V877.687H0V882.664H0.5V887.641H0V892.618H0.5V897.596H0V902.573H0.5V907.55H0V912.527H0.5V917.504H0V922.481H0.5V927.458H0V932.435H0.5V937.412H0V942.39H0.5V947.367H0V952.344H0.5V957.321H0V962.298H0.5V967.275H0V972.252H0.5V977.229H0V982.206H0.5V987.184H0V992.161H0.5V997.138H0V1002.11H0.5V1007.09H0V1012.07H0.5V1017.05H0V1022.02H0.5V1027H0V1031.98H0.5V1036.95H0V1041.93H0.5V1046.91H0V1051.89H0.5V1056.86H0V1061.84H0.5V1066.82H0V1071.79H0.5V1076.77H0V1081.75H0.5V1086.73H0V1091.7H0.5V1096.68H0V1101.66H0.5V1106.63H0V1111.61H0.5V1116.59H0V1121.57H0.5V1126.54H0V1131.52H0.5V1136.5H0V1141.47H0.5V1146.45H0V1151.43H0.5V1156.41H0V1161.38H0.5V1166.36H0V1171.34H0.5V1176.31H0V1181.29H0.5V1186.27H0V1191.25H0.5V1196.22H0V1201.2H0.5V1203.69V1206.17H0V1211.13H0.5V1216.08H0V1221.04H0.5V1226H0V1230.96H0.5V1235.91H0V1240.87H0.5V1245.83H0V1250.79H0.5V1255.75H0V1260.7H0.5V1265.66H0V1270.62H0.5V1275.58H0V1280.53H0.5V1285.49H0V1290.45H0.5V1295.41H0V1300.37H0.5V1305.32H0V1310.28H0.5V1315.24H0V1320.2H0.5V1325.15H0V1330.11H0.5V1335.07H0V1340.03H0.5V1344.99H0V1349.94H0.5V1354.9H0V1359.86H0.5V1364.82H0V1369.77H0.5V1374.73H0V1379.69H0.5V1384.65H0V1389.61H0.5V1394.56H0V1399.52H0.5V1401.5H2.55712V1402H7.67135V1401.5H12.7856V1402H17.8998V1401.5H23.014V1402H28.1283V1401.5H33.2425V1402H38.3567V1401.5H43.471V1402H48.5852V1401.5H53.6994V1402H58.8137V1401.5H63.9279V1402H69.0421V1401.5H74.1563V1402H79.2706V1401.5H84.3848V1402H89.499V1401.5H94.6133V1402H99.7275V1401.5H104.842V1402H109.956V1401.5H115.07V1402H120.184V1401.5H125.299V1402H130.413V1401.5H135.527V1402H140.641V1401.5H145.756V1402H150.87V1401.5H155.984V1402H161.098V1401.5H166.212V1402H171.327V1401.5H176.441V1402H181.555V1401.5H186.669V1402H191.784V1401.5H196.898V1402H202.012V1401.5H207.126V1402H212.24V1401.5H214.798H217.214V1402H222.046V1401.5H226.879V1402H231.711V1401.5H236.544V1402H241.376V1401.5H246.209V1402H251.041V1401.5H255.874V1402H260.706V1401.5H265.539V1402H270.371V1401.5H275.204V1402H280.036V1401.5H284.869V1402H289.701V1401.5H294.534V1402H299.366V1401.5H304.199V1402H309.031V1401.5H313.864V1402H318.696V1401.5H323.529V1402H328.361V1401.5H333.194V1402H338.026V1401.5H340.442C341.284 1401.5 342.123 1401.5 342.961 1401.49L342.963 1401.99C344.64 1401.99 346.311 1401.97 347.975 1401.95L347.968 1401.45C349.63 1401.43 351.286 1401.4 352.934 1401.36L352.946 1401.86C354.596 1401.82 356.24 1401.78 357.876 1401.73L357.861 1401.23C359.525 1401.18 361.183 1401.12 362.833 1401.05L362.854 1401.55C364.528 1401.48 366.196 1401.4 367.856 1401.32L367.83 1400.82C369.489 1400.73 371.14 1400.64 372.785 1400.54L372.815 1401.04C374.461 1400.94 376.099 1400.83 377.731 1400.72L377.696 1400.22C379.364 1400.1 381.024 1399.97 382.677 1399.84L382.718 1400.34C384.385 1400.2 386.045 1400.06 387.697 1399.91L387.651 1399.41C389.301 1399.26 390.944 1399.1 392.579 1398.93L392.63 1399.42C394.27 1399.26 395.902 1399.08 397.526 1398.89L397.469 1398.4C399.138 1398.21 400.799 1398.01 402.452 1397.8L402.515 1398.29C404.169 1398.09 405.816 1397.87 407.455 1397.64L407.387 1397.15C409.023 1396.92 410.652 1396.69 412.273 1396.44L412.347 1396.94C413.992 1396.69 415.628 1396.44 417.257 1396.17L417.176 1395.68C418.828 1395.41 420.471 1395.13 422.105 1394.85L422.192 1395.34C423.828 1395.05 425.456 1394.76 427.076 1394.45L426.983 1393.96C428.6 1393.65 430.209 1393.34 431.81 1393.02L431.909 1393.51C433.555 1393.17 435.193 1392.83 436.822 1392.48L436.716 1391.99C438.344 1391.64 439.962 1391.28 441.572 1390.91L441.684 1391.39C443.296 1391.02 444.898 1390.64 446.492 1390.25L446.373 1389.76C447.989 1389.37 449.596 1388.96 451.194 1388.55L451.32 1389.03C452.938 1388.61 454.546 1388.18 456.145 1387.73L456.012 1387.25C457.608 1386.81 459.195 1386.36 460.772 1385.9L460.912 1386.38C462.503 1385.91 464.084 1385.44 465.656 1384.95L465.508 1384.47C467.106 1383.98 468.693 1383.48 470.27 1382.96L470.425 1383.44C472.005 1382.92 473.574 1382.39 475.134 1381.86L474.972 1381.38C476.531 1380.85 478.081 1380.3 479.62 1379.74L479.791 1380.21C481.366 1379.64 482.93 1379.06 484.485 1378.47L484.307 1378C485.858 1377.41 487.4 1376.81 488.931 1376.19L489.117 1376.66C490.65 1376.04 492.174 1375.41 493.686 1374.78L493.492 1374.32C495.031 1373.67 496.558 1373.01 498.075 1372.34L498.277 1372.8C499.799 1372.12 501.311 1371.44 502.811 1370.74L502.601 1370.29C504.099 1369.6 505.586 1368.89 507.063 1368.17L507.281 1368.62C508.782 1367.89 510.271 1367.15 511.75 1366.4L511.523 1365.96C513.003 1365.2 514.472 1364.44 515.93 1363.66L516.165 1364.1C517.626 1363.32 519.076 1362.53 520.514 1361.73L520.271 1361.3C521.723 1360.49 523.164 1359.66 524.593 1358.83L524.845 1359.26C526.282 1358.43 527.707 1357.58 529.121 1356.71L528.86 1356.29C530.271 1355.43 531.671 1354.56 533.059 1353.67L533.328 1354.09C534.731 1353.2 536.123 1352.29 537.503 1351.38L537.226 1350.96C538.607 1350.04 539.976 1349.11 541.333 1348.17L541.618 1348.58C542.978 1347.63 544.327 1346.67 545.663 1345.71L545.37 1345.3C546.712 1344.33 548.043 1343.34 549.362 1342.34L549.664 1342.74C550.988 1341.74 552.3 1340.72 553.599 1339.7L553.289 1339.3C554.587 1338.28 555.872 1337.24 557.145 1336.19L557.463 1336.58C558.745 1335.52 560.014 1334.46 561.271 1333.37L560.945 1333C562.2 1331.92 563.444 1330.83 564.675 1329.72L565.009 1330.09C566.243 1328.99 567.465 1327.87 568.675 1326.74L568.333 1326.37C569.542 1325.24 570.738 1324.1 571.923 1322.95L572.272 1323.3C573.459 1322.15 574.634 1320.98 575.797 1319.8L575.441 1319.45C576.602 1318.27 577.75 1317.08 578.887 1315.87L579.25 1316.22C580.387 1315.01 581.511 1313.8 582.624 1312.57L582.253 1312.23C583.363 1311.01 584.461 1309.77 585.548 1308.52L585.925 1308.85C587.013 1307.6 588.089 1306.33 589.153 1305.06L588.769 1304.74C589.825 1303.47 590.869 1302.19 591.902 1300.9L592.293 1301.21C593.328 1299.92 594.351 1298.62 595.362 1297.3L594.966 1296.99C595.973 1295.68 596.969 1294.36 597.953 1293.02L598.356 1293.32C599.335 1291.99 600.302 1290.65 601.258 1289.3L600.849 1289.01C601.803 1287.66 602.745 1286.3 603.676 1284.92L604.09 1285.2C605.02 1283.83 605.939 1282.45 606.846 1281.05L606.427 1280.78C607.324 1279.4 608.209 1278.01 609.084 1276.61L609.508 1276.87C610.384 1275.47 611.249 1274.05 612.103 1272.62L611.674 1272.37C612.523 1270.95 613.361 1269.52 614.188 1268.07L614.622 1268.32C615.44 1266.89 616.248 1265.45 617.045 1264L616.607 1263.76C617.403 1262.31 618.187 1260.86 618.961 1259.39L619.404 1259.62C620.176 1258.15 620.939 1256.67 621.69 1255.18L621.243 1254.96C621.982 1253.49 622.711 1252.01 623.429 1250.53L623.879 1250.74C624.599 1249.26 625.308 1247.76 626.006 1246.25L625.552 1246.04C626.248 1244.53 626.934 1243.01 627.61 1241.49L628.067 1241.69C628.731 1240.19 629.385 1238.68 630.029 1237.15L629.569 1236.96C630.212 1235.44 630.845 1233.91 631.467 1232.37L631.931 1232.56C632.555 1231.02 633.169 1229.47 633.772 1227.9L633.306 1227.72C633.897 1226.2 634.479 1224.66 635.05 1223.11L635.519 1223.28C636.091 1221.73 636.653 1220.18 637.205 1218.61L636.733 1218.44C637.285 1216.88 637.826 1215.31 638.359 1213.72L638.832 1213.88C639.357 1212.32 639.873 1210.75 640.379 1209.17L639.903 1209.02C640.404 1207.45 640.896 1205.88 641.38 1204.29L641.858 1204.44C642.342 1202.85 642.816 1201.26 643.282 1199.66L642.801 1199.52C643.262 1197.93 643.714 1196.33 644.157 1194.73L644.639 1194.86C645.076 1193.28 645.503 1191.69 645.922 1190.09L645.438 1189.96C645.857 1188.36 646.266 1186.76 646.667 1185.14L647.153 1185.26C647.554 1183.65 647.947 1182.02 648.331 1180.39L647.844 1180.27C648.219 1178.68 648.585 1177.08 648.943 1175.47L649.431 1175.58C649.788 1173.97 650.138 1172.35 650.479 1170.73L649.99 1170.63C650.331 1169 650.663 1167.37 650.987 1165.73L651.478 1165.83C651.799 1164.21 652.111 1162.58 652.416 1160.94L651.925 1160.85C652.224 1159.24 652.517 1157.62 652.801 1155.99L653.293 1156.08C653.578 1154.45 653.855 1152.81 654.124 1151.17L653.63 1151.09C653.899 1149.45 654.16 1147.8 654.413 1146.14L654.907 1146.21C655.154 1144.59 655.394 1142.96 655.627 1141.33L655.132 1141.26C655.363 1139.63 655.587 1138 655.804 1136.35L656.3 1136.42C656.516 1134.77 656.726 1133.12 656.928 1131.47L656.432 1131.41C656.632 1129.76 656.826 1128.1 657.012 1126.44L657.509 1126.49C657.691 1124.87 657.866 1123.23 658.035 1121.59L657.537 1121.54C657.705 1119.9 657.866 1118.26 658.02 1116.6L658.518 1116.65C658.673 1115 658.82 1113.34 658.96 1111.67L658.462 1111.63C658.6 1109.98 658.732 1108.32 658.857 1106.66L659.356 1106.7C659.479 1105.07 659.595 1103.42 659.705 1101.78L659.206 1101.74C659.315 1100.1 659.419 1098.44 659.515 1096.79L660.014 1096.81C660.111 1095.15 660.201 1093.49 660.284 1091.81L659.785 1091.79C659.867 1090.14 659.942 1088.49 660.012 1086.83L660.511 1086.85C660.58 1085.21 660.642 1083.56 660.698 1081.91L660.198 1081.9C660.254 1080.25 660.303 1078.59 660.347 1076.93L660.847 1076.94C660.89 1075.28 660.927 1073.61 660.958 1071.93L660.458 1071.92C660.474 1071.09 660.488 1070.25 660.5 1069.41C660.5 1069.41 660.5 1069.41 660.5 1069.41L660.5 1066.93H661V1061.95H660.5V1056.97H661V1052H660.5V1047.02H661V1042.04H660.5V1037.07H661V1032.09H660.5V1027.11H661V1022.13H660.5V1017.16H661V1012.18H660.5V1007.2H661V1002.23H660.5V997.249H661V992.272H660.5V987.295H661V982.318H660.5V977.341H661V972.364H660.5V967.387H661V962.409H660.5V957.432H661V952.455H660.5V947.478H661V942.501H660.5V937.524H661V932.547H660.5V927.57H661V922.593H660.5V917.615H661V912.638H660.5V907.661H661V902.684H660.5V897.707H661V892.73H660.5V887.753H661V882.776H660.5V877.798H661V872.821H660.5V867.844H661V862.867H660.5V857.89H661V852.913H660.5V847.936H661V842.958H660.5V837.981H661V833.004H660.5V828.027H661V823.05H660.5V818.073H661V813.096H660.5V808.119H661V803.141H660.5V798.164H661V793.187H660.5V788.21H661V783.233H660.5V778.256H661V773.279H660.5V768.302H661V763.325H660.5V758.347H661V753.37H660.5V748.393H661V743.416H660.5V738.439H661V733.462H660.5V728.485H661V723.508H660.5V718.531H661V713.553H660.5V708.576H661V703.599H660.5V698.622H661V693.645H660.5V688.668H661V683.691H660.5V678.714H661V673.737H660.5V668.759H661V663.782H660.5V658.805H661V653.828H660.5V648.851H661V643.874H660.5V638.897H661V633.92H660.5V628.943H661V623.965H660.5V618.988H661V614.011H660.5V609.034H661V604.057H660.5V599.08H661V594.103H660.5V589.126H661V584.149H660.5V579.171H661V574.194H660.5V569.217H661V564.24H660.5V559.263H661V554.286H660.5V549.309H661V544.332H660.5V539.354H661V534.377H660.5V529.4H661V524.423H660.5V519.446H661V514.469H660.5V509.492H661V504.515H660.5V499.538H661V494.561H660.5V489.583H661V484.606H660.5V479.629H661V474.652H660.5V469.675H661V464.698H660.5V459.721H661V454.744H660.5V449.767H661V444.789H660.5V439.812H661V434.835H660.5V429.858H661V424.881H660.5V419.904H661V414.927H660.5V409.95H661V404.973H660.5V399.995H661V395.018H660.5V390.041H661V385.064H660.5V380.087H661V375.11H660.5V370.133H661V365.156H660.5V360.178H661V355.201H660.5V350.224H661V345.247H660.5V340.27H661V335.293H660.5L660.5 332.811C660.5 332.809 660.5 332.808 660.5 332.806C660.488 331.968 660.475 331.13 660.46 330.295L660.96 330.286ZM340.552 1204.08L340.562 1204.08C341.388 1204.06 342.21 1204.04 343.028 1204.01L343.011 1203.51C344.653 1203.46 346.277 1203.38 347.885 1203.28L347.916 1203.78C349.559 1203.68 351.185 1203.55 352.792 1203.4L352.746 1202.91C354.386 1202.75 356.007 1202.58 357.61 1202.37L357.672 1202.87C359.311 1202.66 360.93 1202.43 362.53 1202.17L362.45 1201.68C364.073 1201.41 365.676 1201.12 367.258 1200.8L367.357 1201.29C368.974 1200.96 370.57 1200.6 372.144 1200.22L372.024 1199.73C373.619 1199.34 375.191 1198.92 376.739 1198.46L376.88 1198.94C378.462 1198.48 380.02 1197.98 381.554 1197.45L381.391 1196.97C382.94 1196.44 384.464 1195.87 385.963 1195.26L386.151 1195.73C387.677 1195.11 389.178 1194.46 390.653 1193.77L390.441 1193.31C391.923 1192.62 393.378 1191.89 394.807 1191.12L395.043 1191.56C396.49 1190.79 397.91 1189.97 399.302 1189.11L399.04 1188.69C400.429 1187.83 401.79 1186.94 403.123 1186.01L403.41 1186.41C404.751 1185.47 406.064 1184.49 407.348 1183.47L407.037 1183.08C408.308 1182.07 409.55 1181.02 410.764 1179.92L411.099 1180.3C412.311 1179.2 413.494 1178.07 414.648 1176.9L414.292 1176.55C415.426 1175.39 416.532 1174.2 417.61 1172.96L417.987 1173.29C419.054 1172.07 420.095 1170.81 421.107 1169.5L420.711 1169.19C421.7 1167.92 422.661 1166.61 423.595 1165.26L424.006 1165.54C424.926 1164.21 425.82 1162.84 426.687 1161.43L426.261 1161.17C427.104 1159.8 427.923 1158.39 428.715 1156.94L429.154 1157.18C429.931 1155.77 430.685 1154.31 431.413 1152.82L430.964 1152.61C431.672 1151.16 432.356 1149.68 433.016 1148.16L433.475 1148.36C434.12 1146.88 434.742 1145.37 435.342 1143.82L434.875 1143.64C435.455 1142.15 436.013 1140.62 436.549 1139.07L437.022 1139.23C437.547 1137.71 438.051 1136.16 438.535 1134.57L438.057 1134.43C438.528 1132.89 438.979 1131.32 439.41 1129.72L439.893 1129.85C440.314 1128.29 440.716 1126.71 441.1 1125.09L440.613 1124.98C440.983 1123.42 441.335 1121.84 441.669 1120.23L442.159 1120.33C442.487 1118.75 442.798 1117.15 443.092 1115.52L442.6 1115.43C442.887 1113.84 443.158 1112.23 443.412 1110.59L443.906 1110.66C444.151 1109.08 444.381 1107.48 444.596 1105.85L444.101 1105.78C444.311 1104.19 444.507 1102.57 444.688 1100.93L445.185 1100.98C445.362 1099.37 445.524 1097.75 445.672 1096.1L445.174 1096.05C445.318 1094.46 445.448 1092.84 445.565 1091.21L446.063 1091.24C446.179 1089.62 446.281 1087.98 446.37 1086.32L445.87 1086.3C445.956 1084.7 446.029 1083.08 446.09 1081.45L446.589 1081.47C446.649 1079.85 446.697 1078.21 446.733 1076.56L446.233 1076.55C446.268 1074.94 446.291 1073.32 446.303 1071.67L446.803 1071.68C446.809 1070.86 446.812 1070.03 446.812 1069.2V1066.71H446.312V1061.73H446.812V1056.75H446.312V1051.78H446.812V1046.8H446.312V1041.82H446.812V1036.84H446.312V1031.87H446.812V1026.89H446.312V1021.91H446.812V1016.94H446.312V1011.96H446.812V1006.98H446.312V1002H446.812V997.027H446.312V992.05H446.812V987.073H446.312V982.096H446.812V977.119H446.312V972.142H446.812V967.165H446.312V962.188H446.812V957.211H446.312V952.233H446.812V947.256H446.312V942.279H446.812V937.302H446.312V932.325H446.812V927.348H446.312V922.371H446.812V917.394H446.312V912.417H446.812V907.439H446.312V902.462H446.812V897.485H446.312V892.508H446.812V887.531H446.312V882.554H446.812V877.577H446.312V872.6H446.812V867.623H446.312V862.645H446.812V857.668H446.312V852.691H446.812V847.714H446.312V842.737H446.812V837.76H446.312V832.783H446.812V827.806H446.312V822.828H446.812V817.851H446.312V812.874H446.812V807.897H446.312V802.92H446.812V797.943H446.312V792.966H446.812V787.989H446.312V783.012H446.812V778.034H446.312V773.057H446.812V768.08H446.312V763.103H446.812V758.126H446.312V753.149H446.812V748.172H446.312V743.195H446.812V738.218H446.312V733.24H446.812V728.263H446.312V723.286H446.812V718.309H446.312V713.332H446.812V708.355H446.312V703.378H446.812V698.401H446.312V693.424H446.812V688.446H446.312V683.469H446.812V678.492H446.312V673.515H446.812V668.538H446.312V663.561H446.812V658.584H446.312V653.607H446.812V648.63H446.312V643.652H446.812V638.675H446.312V633.698H446.812V628.721H446.312V623.744H446.812V618.767H446.312V613.79H446.812V608.813H446.312V603.836H446.812V598.858H446.312V593.881H446.812V588.904H446.312V583.927H446.812V578.95H446.312V573.973H446.812V568.996H446.312V564.019H446.812V559.042H446.312V554.064H446.812V549.087H446.312V544.11H446.812V539.133H446.312V534.156H446.812V529.179H446.312V524.202H446.812V519.224H446.312V514.247H446.812V509.27H446.312V504.293H446.812V499.316H446.312V494.339H446.812V489.362H446.312V484.385H446.812V479.407H446.312V474.43H446.812V469.453H446.312V464.476H446.812V459.499H446.312V454.522H446.812V449.545H446.312V444.568H446.812V439.59H446.312V434.613H446.812V429.636H446.312V424.659H446.812V419.682H446.312V414.705H446.812V409.728H446.312V404.751H446.812V399.774H446.312V394.796H446.812V389.819H446.312V384.842H446.812V379.865H446.312V374.888H446.812V369.911H446.312V364.934H446.812V359.957H446.312V354.979H446.812V350.002H446.312V345.025H446.812V340.048H446.312V335.071H446.812V332.582C446.812 331.751 446.809 330.923 446.803 330.1L446.303 330.104C446.291 328.461 446.268 326.835 446.233 325.227L446.733 325.217C446.698 323.563 446.65 321.927 446.59 320.31L446.09 320.329C446.03 318.693 445.957 317.077 445.871 315.48L446.371 315.453C446.282 313.794 446.18 312.154 446.065 310.534L445.566 310.57C445.45 308.933 445.32 307.316 445.177 305.721L445.675 305.676C445.527 304.027 445.365 302.4 445.188 300.794L444.691 300.849C444.511 299.207 444.315 297.587 444.105 295.99L444.601 295.925C444.386 294.296 444.157 292.69 443.912 291.108L443.418 291.184C443.164 289.545 442.894 287.93 442.607 286.34L443.099 286.251C442.806 284.621 442.495 283.017 442.168 281.439L441.678 281.54C441.344 279.931 440.993 278.348 440.624 276.792L441.11 276.677C440.727 275.061 440.325 273.474 439.905 271.915L439.422 272.045C438.991 270.447 438.541 268.879 438.071 267.339L438.549 267.193C438.066 265.61 437.561 264.057 437.037 262.534L436.564 262.697C436.028 261.14 435.471 259.615 434.892 258.122L435.358 257.941C434.759 256.395 434.137 254.882 433.493 253.402L433.035 253.602C432.374 252.085 431.691 250.604 430.983 249.157L431.433 248.937C430.705 247.447 429.952 245.993 429.174 244.575L428.736 244.816C427.943 243.371 427.126 241.963 426.282 240.592L426.708 240.331C425.841 238.921 424.948 237.551 424.028 236.218L423.617 236.502C422.683 235.15 421.721 233.836 420.733 232.563L421.128 232.256C420.116 230.951 419.076 229.687 418.008 228.463L417.631 228.792C416.553 227.557 415.447 226.363 414.313 225.209L414.669 224.859C413.515 223.684 412.331 222.552 411.119 221.46L410.784 221.832C409.57 220.738 408.327 219.687 407.055 218.675L407.367 218.284C406.082 217.262 404.769 216.282 403.427 215.342L403.14 215.752C401.807 214.818 400.445 213.925 399.056 213.071L399.317 212.645C397.925 211.789 396.504 210.973 395.057 210.196L394.82 210.636C393.392 209.869 391.936 209.14 390.453 208.448L390.665 207.995C389.189 207.306 387.688 206.654 386.161 206.038L385.974 206.502C384.474 205.897 382.949 205.328 381.399 204.792L381.563 204.319C380.028 203.789 378.469 203.292 376.887 202.828L376.747 203.308C375.197 202.854 373.625 202.431 372.03 202.039L372.15 201.554C370.575 201.167 368.979 200.811 367.362 200.484L367.263 200.974C365.68 200.654 364.077 200.363 362.454 200.099L362.534 199.605C360.934 199.345 359.314 199.113 357.675 198.906L357.613 199.402C356.01 199.2 354.388 199.024 352.748 198.872L352.794 198.374C351.186 198.225 349.56 198.1 347.917 197.998L347.886 198.497C346.278 198.398 344.653 198.321 343.012 198.266L343.029 197.766C342.21 197.739 341.388 197.717 340.562 197.7H340.552H338.135V198.2H333.303V197.7H328.47V198.2H323.638V197.7H318.805V198.2H313.973V197.7H309.14V198.2H304.308V197.7H299.475V198.2H294.643V197.7H289.81V198.2H284.978V197.7H280.146V198.2H275.313V197.7H270.481V198.2H265.648V197.7H260.816V198.2H255.983V197.7H251.151V198.2H246.318V197.7H241.486V198.2H236.653V197.7H231.821V198.2H226.988V197.7H222.156V198.2H217.323V197.7H214.907H214.407V198.2V200.69H214.907V205.667H214.407V210.644H214.907V215.621H214.407V220.598H214.907V225.576H214.407V230.553H214.907V235.53H214.407V240.507H214.907V245.484H214.407V250.461H214.907V255.438H214.407V260.415H214.907V265.392H214.407V270.37H214.907V275.347H214.407V280.324H214.907V285.301H214.407V290.278H214.907V295.255H214.407V300.232H214.907V305.209H214.407V310.186H214.907V315.164H214.407V320.141H214.907V325.118H214.407V330.095H214.907V335.072H214.407V340.049H214.907V345.026H214.407V350.003H214.907V354.981H214.407V359.958H214.907V364.935H214.407V369.912H214.907V374.889H214.407V379.866H214.907V384.843H214.407V389.82H214.907V394.797H214.407V399.775H214.907V404.752H214.407V409.729H214.907V414.706H214.407V419.683H214.907V424.66H214.407V429.637H214.907V434.614H214.407V439.591H214.907V444.569H214.407V449.546H214.907V454.523H214.407V459.5H214.907V464.477H214.407V469.454H214.907V474.431H214.407V479.408H214.907V484.385H214.407V489.363H214.907V494.34H214.407V499.317H214.907V504.294H214.407V509.271H214.907V514.248H214.407V519.225H214.907V524.202H214.407V529.179H214.907V534.157H214.407V539.134H214.907V544.111H214.407V549.088H214.907V554.065H214.407V559.042H214.907V564.019H214.407V568.996H214.907V573.973H214.407V578.951H214.907V583.928H214.407V588.905H214.907V593.882H214.407V598.859H214.907V603.836H214.407V608.813H214.907V613.79H214.407V618.767H214.907V623.745H214.407V628.722H214.907V633.699H214.407V638.676H214.907V643.653H214.407V648.63H214.907V653.607H214.407V658.584H214.907V663.561H214.407V668.539H214.907V673.516H214.407V678.493H214.907V683.47H214.407V688.447H214.907V693.424H214.407V698.401H214.907V703.378H214.407V708.355H214.907V713.333H214.407V718.31H214.907V723.287H214.407V728.264H214.907V733.241H214.407V738.218H214.907V743.195H214.407V748.172H214.907V753.149H214.407V758.127H214.907V763.104H214.407V768.081H214.907V773.058H214.407V778.035H214.907V783.012H214.407V787.989H214.907V792.966H214.407V797.943H214.907V802.921H214.407V807.898H214.907V812.875H214.407V817.852H214.907V822.829H214.407V827.806H214.907V832.783H214.407V837.76H214.907V842.737H214.407V847.715H214.907V852.692H214.407V857.669H214.907V862.646H214.407V867.623H214.907V872.6H214.407V877.577H214.907V882.554H214.407V887.531H214.907V892.509H214.407V897.486H214.907V902.463H214.407V907.44H214.907V912.417H214.407V917.394H214.907V922.371H214.407V927.348H214.907V932.326H214.407V937.303H214.907V942.28H214.407V947.257H214.907V952.234H214.407V957.211H214.907V962.188H214.407V967.165H214.907V972.142H214.407V977.12H214.907V982.097H214.407V987.074H214.907V992.051H214.407V997.028H214.907V1002.01H214.407V1006.98H214.907V1011.96H214.407V1016.94H214.907V1021.91H214.407V1026.89H214.907V1031.87H214.407V1036.85H214.907V1041.82H214.407V1046.8H214.907V1051.78H214.407V1056.75H214.907V1061.73H214.407V1066.71H214.907V1071.69H214.407V1076.66H214.907V1081.64H214.407V1086.62H214.907V1091.59H214.407V1096.57H214.907V1101.55H214.407V1106.52H214.907V1111.5H214.407V1116.48H214.907V1121.46H214.407V1126.43H214.907V1131.41H214.407V1136.39H214.907V1141.36H214.407V1146.34H214.907V1151.32H214.407V1156.3H214.907V1161.27H214.407V1166.25H214.907V1171.23H214.407V1176.2H214.907V1181.18H214.407V1186.16H214.907V1191.14H214.407V1196.11H214.907V1201.09H214.407V1203.58V1204.08H214.907H217.323V1203.58H222.156V1204.08H226.988V1203.58H231.821V1204.08H236.653V1203.58H241.486V1204.08H246.318V1203.58H251.151V1204.08H255.983V1203.58H260.816V1204.08H265.648V1203.58H270.481V1204.08H275.313V1203.58H280.146V1204.08H284.978V1203.58H289.81V1204.08H294.643V1203.58H299.475V1204.08H304.308V1203.58H309.14V1204.08H313.973V1203.58H318.805V1204.08H323.638V1203.58H328.47V1204.08H333.303V1203.58H338.135V1204.08L340.552 1204.08Z" stroke="#8C8C8C" stroke-dasharray="5 5"/>
</svg>
