<svg width="669" height="1403" viewBox="0 0 669 1403" fill="none" xmlns="http://www.w3.org/2000/svg">
<g opacity="0.1">
<path d="M651.553 330.358C651.503 328.67 651.446 326.988 651.384 325.312L650.884 325.33C650.821 323.656 650.753 321.987 650.677 320.325L651.177 320.302C651.102 318.638 651.02 316.981 650.933 315.329L650.433 315.356C650.344 313.681 650.249 312.013 650.147 310.351L650.646 310.32C650.543 308.635 650.433 306.957 650.317 305.284L649.818 305.319C649.701 303.648 649.578 301.984 649.449 300.326L649.947 300.287C649.818 298.628 649.681 296.975 649.538 295.329L649.04 295.372C648.895 293.697 648.742 292.029 648.583 290.367L649.081 290.319C648.92 288.641 648.752 286.969 648.577 285.304L648.08 285.356C647.905 283.693 647.723 282.036 647.535 280.386L648.031 280.33C647.842 278.678 647.646 277.034 647.443 275.397L646.947 275.458C646.739 273.782 646.524 272.113 646.302 270.451L646.797 270.385C646.574 268.716 646.343 267.056 646.105 265.402L645.61 265.473C645.372 263.822 645.127 262.177 644.874 260.54L645.368 260.464C645.113 258.814 644.851 257.172 644.581 255.538L644.088 255.619C643.813 253.953 643.53 252.294 643.239 250.643L643.732 250.556C643.441 248.903 643.142 247.258 642.835 245.621L642.344 245.713C642.037 244.078 641.723 242.45 641.401 240.83L641.891 240.732C641.563 239.082 641.227 237.439 640.882 235.805L640.393 235.908C640.046 234.261 639.691 232.623 639.327 230.993L639.815 230.884C639.451 229.252 639.079 227.628 638.698 226.012L638.212 226.127C637.83 224.505 637.439 222.891 637.04 221.286L637.526 221.165C637.118 219.525 636.702 217.894 636.277 216.271L635.793 216.398C635.369 214.777 634.936 213.165 634.494 211.562L634.976 211.429C634.534 209.823 634.083 208.227 633.623 206.639L633.142 206.778C632.674 205.16 632.196 203.552 631.71 201.953L632.188 201.807C631.699 200.198 631.2 198.599 630.692 197.008L630.216 197.161C629.709 195.572 629.193 193.993 628.667 192.424L629.141 192.265C628.609 190.674 628.067 189.093 627.516 187.522L627.044 187.687C626.487 186.1 625.921 184.523 625.345 182.955L625.814 182.783C625.237 181.213 624.651 179.652 624.055 178.102L623.588 178.281C622.99 176.723 622.381 175.176 621.763 173.638L622.227 173.451C621.598 171.887 620.959 170.333 620.31 168.789L619.849 168.983C619.201 167.442 618.544 165.91 617.876 164.389L618.333 164.188C617.663 162.661 616.982 161.144 616.291 159.638L615.837 159.846C615.135 158.316 614.423 156.797 613.701 155.288L614.151 155.072C613.428 153.561 612.693 152.06 611.949 150.57L611.501 150.793C610.758 149.305 610.003 147.828 609.239 146.361L609.682 146.13C608.903 144.636 608.113 143.152 607.312 141.68L606.873 141.919C606.074 140.45 605.264 138.991 604.443 137.544L604.878 137.297C604.055 135.847 603.221 134.408 602.377 132.98L601.947 133.234C601.092 131.789 600.226 130.354 599.349 128.932L599.774 128.669C598.895 127.243 598.004 125.828 597.103 124.425L596.682 124.695C595.782 123.295 594.871 121.906 593.948 120.528L594.364 120.25C593.429 118.853 592.483 117.469 591.525 116.096L591.115 116.382C590.159 115.012 589.191 113.653 588.211 112.306L588.616 112.012C587.635 110.662 586.642 109.325 585.638 107.998L585.239 108.3C584.228 106.965 583.205 105.642 582.17 104.331L582.563 104.022C581.526 102.708 580.478 101.406 579.418 100.117L579.032 100.434C577.973 99.147 576.903 97.8717 575.821 96.6085L576.201 96.2833C575.112 95.011 574.01 93.751 572.897 92.5032L572.524 92.8361C571.413 91.5908 570.29 90.3577 569.155 89.1369L569.521 88.7965C568.383 87.5729 567.234 86.3615 566.073 85.1625L565.714 85.5103C564.552 84.3116 563.38 83.1252 562.195 81.9512L562.547 81.596C561.359 80.4195 560.16 79.2554 558.949 78.1037L558.604 78.4661C557.396 77.3171 556.175 76.1805 554.943 75.0562L555.28 74.6868C554.047 73.5615 552.801 72.4487 551.544 71.3482L551.214 71.7244C549.96 70.6262 548.693 69.5403 547.414 68.4669L547.736 68.0839C546.456 67.0098 545.165 65.948 543.862 64.8987L543.548 65.2881C542.252 64.2447 540.944 63.2135 539.624 62.1946L539.93 61.7988C538.607 60.7779 537.273 59.7693 535.927 58.7731L535.629 59.175C534.29 58.1837 532.938 57.2046 531.575 56.2378L531.865 55.8299C530.506 54.8666 529.136 53.9154 527.754 52.9764L527.473 53.39C526.094 52.4529 524.704 51.5279 523.301 50.6152L523.574 50.1961C522.175 49.2856 520.765 48.3872 519.343 47.501L519.078 47.9253C517.669 47.0473 516.249 46.1812 514.817 45.327L515.073 44.8976C513.638 44.0418 512.192 43.198 510.735 42.3661L510.487 42.8004C509.041 41.9748 507.583 41.1611 506.113 40.3592L506.353 39.9203C504.895 39.1243 503.425 38.34 501.944 37.5674L501.713 38.0107C500.235 37.2395 498.746 36.48 497.246 35.7322L497.469 35.2847C495.975 34.5399 494.47 33.8067 492.954 33.0851L492.739 33.5366C491.244 32.8248 489.737 32.1243 488.22 31.4351L488.427 30.9799C486.907 30.2895 485.377 29.6104 483.836 28.9427L483.637 29.4015C482.106 28.7381 480.564 28.086 479.011 27.4451L479.202 26.9829C477.671 26.3509 476.129 25.7298 474.578 25.1196L474.395 25.585C472.846 24.9758 471.286 24.3776 469.716 23.7904L469.891 23.3221C468.321 22.7347 466.741 22.1584 465.15 21.5929L464.983 22.0641C463.428 21.5114 461.863 20.9691 460.288 20.4374L460.448 19.9637C458.871 19.4311 457.284 18.909 455.687 18.3975L455.534 18.8736C453.94 18.3629 452.335 17.8626 450.721 17.3729L450.866 16.8944C449.282 16.414 447.689 15.9436 446.086 15.4834L445.948 15.964C444.354 15.5064 442.75 15.0588 441.137 14.6212L441.268 14.1387C439.653 13.7005 438.028 13.2724 436.394 12.8544L436.27 13.3388C434.66 12.9269 433.041 12.5249 431.413 12.1327L431.53 11.6466C429.92 11.2589 428.301 10.8808 426.674 10.5122L426.563 10.9999C424.938 10.6319 423.303 10.2734 421.66 9.92454L421.764 9.43543C420.123 9.08715 418.473 8.74841 416.815 8.41925L416.717 8.90968C415.102 8.58903 413.477 8.27746 411.845 7.97499L411.936 7.48336C410.301 7.1805 408.657 6.88677 407.005 6.60216L406.921 7.09491C405.271 6.81066 403.612 6.53552 401.945 6.26951L402.024 5.77576C400.384 5.51405 398.736 5.26116 397.079 5.01712L397.007 5.51179C395.371 5.27083 393.727 5.03851 392.076 4.81483L392.143 4.31935C390.489 4.09541 388.828 3.88012 387.158 3.6735L387.096 4.16972C385.429 3.96333 383.753 3.7656 382.069 3.57653L382.125 3.07965C380.489 2.89596 378.845 2.72043 377.193 2.5531L377.143 3.05055C375.494 2.8834 373.836 2.72443 372.172 2.57364L372.217 2.07568C370.55 1.92473 368.876 1.78198 367.195 1.64744L367.155 2.14585C365.489 2.0126 363.816 1.88741 362.135 1.77028L362.17 1.27149C360.525 1.15681 358.872 1.04986 357.212 0.950649L357.182 1.44976C355.524 1.35065 353.858 1.25927 352.186 1.17564L352.211 0.67626C350.536 0.592547 348.855 0.516587 347.166 0.448391L347.146 0.947985C345.483 0.880796 343.812 0.82115 342.134 0.769056L342.15 0.269297C340.499 0.218043 338.842 0.174094 337.178 0.137459L337.167 0.637338C335.504 0.600737 333.835 0.571443 332.159 0.549466L332.166 0.0495092C330.488 0.0275136 328.804 0.0128423 327.113 0.00550478L327.11 0.5055C326.266 0.501834 325.419 0.5 324.571 0.5C323.724 0.5 322.878 0.501827 322.035 0.505481L322.033 0.00548573C320.344 0.0127992 318.663 0.0274237 316.988 0.0493497L316.994 0.549307C315.321 0.571214 313.654 0.600416 311.994 0.636903L311.983 0.137023C310.321 0.173543 308.667 0.217355 307.018 0.26845L307.034 0.76821C305.359 0.820132 303.691 0.87958 302.031 0.946545L302.01 0.446952C300.324 0.514935 298.645 0.590658 296.974 0.674111L296.999 1.17349C295.328 1.25686 293.665 1.34796 292.009 1.44676L291.98 0.947651C290.322 1.04655 288.672 1.15318 287.029 1.26751L287.063 1.7663C285.386 1.88302 283.716 2.00778 282.053 2.14058L282.013 1.64216C280.334 1.77629 278.662 1.9186 276.998 2.06909L277.043 2.56706C275.381 2.71739 273.726 2.87588 272.079 3.04252L272.029 2.54506C270.38 2.71188 268.738 2.88687 267.104 3.07L267.16 3.56689C265.479 3.7553 263.807 3.95235 262.142 4.15802L262.08 3.6618C260.413 3.8678 258.754 4.08245 257.102 4.30573L257.169 4.80122C255.52 5.02424 253.879 5.25587 252.245 5.49611L252.172 5.00144C250.519 5.24461 248.874 5.49659 247.237 5.75737L247.316 6.25114C245.651 6.51638 243.995 6.79073 242.347 7.07417L242.263 6.58141C240.613 6.8652 238.972 7.1581 237.339 7.46009L237.43 7.95175C235.799 8.25336 234.177 8.56405 232.563 8.88381L232.466 8.39335C230.811 8.72138 229.164 9.05894 227.527 9.40603L227.631 9.89516C225.989 10.2431 224.357 10.6006 222.733 10.9676L222.623 10.4799C220.997 10.8475 219.381 11.2246 217.773 11.6113L217.89 12.0974C216.265 12.4883 214.649 12.8889 213.043 13.2994L212.919 12.8149C211.287 13.2319 209.664 13.6589 208.05 14.096L208.181 14.5786C206.57 15.0151 204.969 15.4616 203.377 15.9181L203.239 15.4374C201.639 15.8961 200.049 16.3649 198.468 16.8438L198.613 17.3224C197.001 17.811 195.398 18.3101 193.805 18.8197L193.653 18.3435C192.058 18.8539 190.473 19.3748 188.897 19.9062L189.057 20.3799C187.484 20.9105 185.921 21.4515 184.369 22.003L184.201 21.5318C182.614 22.0957 181.036 22.6704 179.469 23.2561L179.644 23.7244C178.076 24.3105 176.519 24.9076 174.971 25.5155L174.788 25.0501C173.239 25.6591 171.699 26.279 170.17 26.9098L170.361 27.372C168.811 28.0113 167.272 28.6618 165.744 29.3235L165.545 28.8647C164.006 29.5313 162.477 30.2092 160.959 30.8985L161.166 31.3537C159.651 32.0418 158.147 32.7411 156.653 33.4518L156.439 33.0003C154.925 33.7204 153.423 34.452 151.932 35.1952L152.155 35.6427C150.657 36.3895 149.17 37.148 147.694 37.9182L147.463 37.4749C145.984 38.2465 144.517 39.0298 143.06 39.8248L143.3 40.2636C141.834 41.0641 140.379 41.8765 138.935 42.7007L138.687 42.2665C137.232 43.0975 135.788 43.9405 134.355 44.7955L134.612 45.2248C133.182 46.0782 131.764 46.9435 130.357 47.8207L130.093 47.3965C128.673 48.2817 127.266 49.179 125.87 50.0884L126.143 50.5073C124.743 51.4195 123.355 52.3439 121.978 53.2804L121.697 52.867C120.318 53.8055 118.95 54.7561 117.595 55.719L117.884 56.1266C116.524 57.0927 115.176 58.0711 113.839 59.0617L113.542 58.6601C112.198 59.656 110.867 60.6644 109.547 61.6851L109.853 62.0806C108.536 63.0992 107.231 64.1302 105.939 65.1734L105.625 64.7843C104.325 65.8335 103.037 66.8951 101.761 67.969L102.083 68.3516C100.807 69.4251 99.5438 70.5111 98.2926 71.6094L97.9627 71.2337C96.7089 72.3343 95.4672 73.4474 94.2376 74.5728L94.5751 74.9416C93.3465 76.0662 92.13 77.2031 90.9256 78.3525L90.5805 77.9907C89.3731 79.1429 88.1778 80.3075 86.9947 81.4846L87.3474 81.839C86.1667 83.0136 84.9982 84.2005 83.8418 85.3998L83.4819 85.0527C82.3248 86.2526 81.1799 87.4648 80.0471 88.6893L80.4141 89.0289C79.284 90.2505 78.1659 91.4844 77.0599 92.7306L76.6859 92.3987C75.5776 93.6474 74.4814 94.9084 73.3973 96.1817L73.778 96.5058C72.7013 97.7703 71.6366 99.0469 70.5838 100.336L70.1965 100.019C69.1421 101.31 68.0995 102.613 67.0689 103.928L67.4625 104.236C66.4339 105.548 65.4173 106.873 64.4126 108.209L64.013 107.909C63.0147 109.236 62.0282 110.576 61.0534 111.927L61.4589 112.22C60.4863 113.568 59.5253 114.929 58.576 116.301L58.1648 116.016C57.2138 117.391 56.2745 118.777 55.347 120.175L55.7636 120.452C54.8485 121.831 53.9448 123.222 53.0525 124.624L52.6307 124.356C51.7367 125.761 50.8542 127.177 49.983 128.605L50.4099 128.866C49.5406 130.29 48.6827 131.727 47.8362 133.175L47.4046 132.922C46.5686 134.352 45.7438 135.793 44.93 137.245L45.3662 137.489C44.5539 138.939 43.7527 140.399 42.9626 141.87L42.522 141.634C41.7305 143.108 40.95 144.593 40.1806 146.089L40.6253 146.318C39.87 147.787 39.1253 149.266 38.3914 150.757L37.9429 150.536C37.208 152.028 36.4839 153.53 35.7704 155.044L36.2227 155.257C35.5105 156.768 34.8089 158.289 34.118 159.821L33.6622 159.616C32.9819 161.124 32.3119 162.643 31.6522 164.172L32.1113 164.37C31.4543 165.893 30.8076 167.426 30.1711 168.969L29.7089 168.779C29.0714 170.325 28.4441 171.881 27.8272 173.447L28.2924 173.63C27.6858 175.17 27.0892 176.719 26.5025 178.279L26.0345 178.103C25.4504 179.655 24.8762 181.217 24.3118 182.789L24.7824 182.958C24.2189 184.527 23.6652 186.106 23.1213 187.695L22.6482 187.533C22.1097 189.107 21.5807 190.689 21.0614 192.281L21.5367 192.436C21.0242 194.008 20.521 195.588 20.0272 197.178L19.5497 197.029C19.0552 198.621 18.5701 200.222 18.0943 201.833L18.5738 201.974C18.101 203.575 17.6373 205.184 17.183 206.803L16.7016 206.668C16.2556 208.257 15.8185 209.855 15.3903 211.462L15.8734 211.59C15.4458 213.195 15.0271 214.808 14.6173 216.43L14.1325 216.308C13.7222 217.932 13.3208 219.564 12.9283 221.206L13.4145 221.322C13.0306 222.928 12.6551 224.542 12.2882 226.164L11.8005 226.054C11.4349 227.671 11.0778 229.295 10.7292 230.928L11.2182 231.033C10.8699 232.664 10.5302 234.303 10.1989 235.95L9.70867 235.852C9.37989 237.486 9.05943 239.129 8.74727 240.78L9.23857 240.873C8.93219 242.493 8.63383 244.121 8.34347 245.757L7.85117 245.67C7.56049 247.308 7.27783 248.953 7.00318 250.606L7.49642 250.688C7.22208 252.339 6.95573 253.999 6.69739 255.665L6.20329 255.589C5.95003 257.223 5.70446 258.864 5.46657 260.513L5.96144 260.585C5.72526 262.222 5.49664 263.866 5.27561 265.518L4.78003 265.451C4.55877 267.105 4.34509 268.765 4.139 270.433L4.63522 270.495C4.42997 272.156 4.23224 273.824 4.04203 275.5L3.54522 275.444C3.35943 277.08 3.18082 278.724 3.00937 280.375L3.50669 280.426C3.33541 282.075 3.17128 283.731 3.01431 285.394L2.51653 285.347C2.35942 287.011 2.20947 288.682 2.0667 290.36L2.56489 290.402C2.42362 292.063 2.28936 293.73 2.16212 295.404L1.66356 295.366C1.5385 297.011 1.42022 298.662 1.30871 300.32L1.80758 300.354C1.69616 302.011 1.59151 303.674 1.49363 305.343L0.994485 305.314C0.896517 306.985 0.805319 308.662 0.720887 310.346L1.22026 310.371C1.13702 312.031 1.06035 313.698 0.990275 315.37L0.490714 315.35C0.421599 316.999 0.35888 318.655 0.302556 320.317L0.802269 320.334C0.74599 321.994 0.6961 323.661 0.652597 325.334L0.152767 325.321C0.10923 326.995 0.0720864 328.675 0.0413331 330.361L0.54125 330.37C0.525908 331.211 0.512159 332.054 0.5 332.898V335.474H0V340.634H0.5V345.793H0V350.953H0.5V356.113H0V361.272H0.5V366.432H0V371.592H0.5V376.751H0V381.911H0.5V387.071H0V392.23H0.5V397.39H0V402.55H0.5V407.709H0V412.869H0.5V418.029H0V423.188H0.5V428.348H0V433.508H0.5V438.667H0V443.827H0.5V448.987H0V454.146H0.5V459.306H0V464.466H0.5V467.042C0.512139 467.887 0.525863 468.731 0.541174 469.573L0.0412567 469.582C0.0719449 471.27 0.109001 472.952 0.152427 474.628L0.652259 474.615C0.695652 476.289 0.745409 477.958 0.801533 479.62L0.301818 479.637C0.357986 481.301 0.420527 482.958 0.489441 484.61L0.989006 484.589C1.05887 486.263 1.13529 487.931 1.21827 489.593L0.718895 489.618C0.803079 491.303 0.894008 492.983 0.991684 494.656L1.49083 494.626C1.58843 496.298 1.69276 497.963 1.80384 499.621L1.30496 499.655C1.41613 501.315 1.53405 502.968 1.65872 504.615L2.1573 504.577C2.28411 506.252 2.41791 507.921 2.5587 509.582L2.06049 509.625C2.20284 511.305 2.35233 512.978 2.50896 514.644L3.00677 514.597C3.16326 516.262 3.32689 517.92 3.49765 519.571L3.00031 519.622C3.17123 521.275 3.34931 522.92 3.53453 524.559L4.03137 524.503C4.22092 526.18 4.41796 527.85 4.62249 529.512L4.12624 529.573C4.33172 531.243 4.54476 532.906 4.76537 534.561L5.26099 534.495C5.48137 536.149 5.7093 537.796 5.94479 539.435L5.44987 539.506C5.68691 541.156 5.93159 542.798 6.18393 544.433L6.67807 544.357C6.93568 546.026 7.20126 547.688 7.47482 549.341L6.98153 549.423C7.25539 551.079 7.53725 552.726 7.8271 554.366L8.31946 554.279C8.60899 555.917 8.90651 557.547 9.21201 559.17L8.72064 559.262C9.0317 560.914 9.35102 562.558 9.67863 564.194L10.1689 564.096C10.4993 565.746 10.8382 567.388 11.1854 569.021L10.6964 569.125C11.0441 570.76 11.4002 572.387 11.7648 574.006L12.2525 573.896C12.6182 575.52 12.9923 577.135 13.3749 578.742L12.8885 578.857C13.28 580.501 13.6804 582.137 14.0897 583.763L14.5745 583.641C14.9833 585.266 15.4009 586.882 15.8275 588.489L15.3442 588.617C15.7713 590.226 16.2073 591.826 16.6522 593.418L17.1337 593.283C17.5865 594.903 18.0486 596.514 18.5199 598.116L18.0402 598.257C18.5148 599.87 18.9988 601.474 19.4921 603.068L19.9697 602.921C20.4624 604.513 20.9643 606.096 21.4757 607.67L21.0001 607.824C21.5178 609.418 22.045 611.002 22.5818 612.576L23.0551 612.415C23.5978 614.007 24.1503 615.589 24.7125 617.161L24.2417 617.329C24.8049 618.904 25.3778 620.469 25.9606 622.024L26.4288 621.848C27.0137 623.409 27.6085 624.96 28.2132 626.501L27.7477 626.684C28.3634 628.253 28.9893 629.812 29.6255 631.361L30.088 631.171C30.7232 632.717 31.3687 634.253 32.0243 635.779L31.5649 635.976C32.2227 637.507 32.8908 639.027 33.5692 640.538L34.0253 640.333C34.7149 641.868 35.4151 643.392 36.126 644.906L35.6735 645.119C36.3856 646.635 37.1084 648.141 37.8419 649.636L38.2908 649.416C39.023 650.908 39.7659 652.39 40.5195 653.861L40.0745 654.089C40.8424 655.588 41.6213 657.076 42.4114 658.553L42.8522 658.317C43.6411 659.792 44.441 661.255 45.252 662.708L44.8154 662.952C45.6279 664.407 46.4514 665.851 47.286 667.284L47.718 667.032C48.5628 668.482 49.4188 669.921 50.2863 671.348L49.859 671.608C50.7289 673.039 51.6102 674.459 52.5029 675.867L52.9252 675.599C53.8163 677.005 54.7187 678.399 55.6326 679.781L55.2155 680.057C56.1414 681.458 57.079 682.846 58.0283 684.224L58.4399 683.94C59.3881 685.315 60.3479 686.679 61.3195 688.031L60.9134 688.322C61.8869 689.677 62.8721 691.019 63.869 692.35L64.2691 692.05C65.2726 693.39 66.288 694.717 67.3152 696.032L66.9212 696.34C67.9507 697.658 68.9923 698.964 70.0457 700.258L70.4335 699.943C71.485 701.234 72.5485 702.514 73.6239 703.781L73.2426 704.105C74.3259 705.381 75.4213 706.645 76.5287 707.897L76.9032 707.566C78.0084 708.816 79.1256 710.053 80.2549 711.278L79.8874 711.617C81.0192 712.844 82.1632 714.059 83.3193 715.262L83.6798 714.916C84.8356 716.118 86.0034 717.309 87.1834 718.486L86.8302 718.84C88.0126 720.02 89.2072 721.188 90.414 722.344L90.7597 721.982C91.9636 723.135 93.1796 724.275 94.4077 725.403L94.0695 725.771C95.2987 726.9 96.5399 728.016 97.7933 729.12L98.1237 728.744C99.3745 729.846 100.637 730.935 101.912 732.011L101.59 732.393C102.866 733.47 104.154 734.535 105.454 735.588L105.768 735.199C107.061 736.245 108.365 737.279 109.682 738.3L109.375 738.696C110.695 739.719 112.026 740.73 113.369 741.729L113.668 741.328C115.004 742.322 116.353 743.303 117.714 744.272L117.423 744.68C118.779 745.645 120.146 746.599 121.526 747.54L121.807 747.127C123.184 748.066 124.572 748.993 125.972 749.908L125.699 750.326C127.095 751.239 128.504 752.139 129.924 753.027L130.189 752.603C131.596 753.483 133.014 754.351 134.444 755.207L134.187 755.636C135.62 756.493 137.064 757.339 138.52 758.172L138.768 757.738C140.213 758.565 141.669 759.38 143.136 760.184L142.896 760.622C144.353 761.419 145.821 762.205 147.3 762.979L147.532 762.536C149.008 763.308 150.496 764.069 151.994 764.818L151.771 765.265C153.263 766.011 154.767 766.745 156.282 767.468L156.497 767.016C157.991 767.729 159.496 768.43 161.012 769.12L160.804 769.575C162.323 770.267 163.852 770.946 165.392 771.615L165.591 771.156C167.121 771.82 168.662 772.473 170.213 773.115L170.022 773.577C171.552 774.209 173.092 774.831 174.643 775.442L174.826 774.976C176.374 775.586 177.933 776.185 179.502 776.772L179.327 777.241C180.895 777.828 182.475 778.405 184.064 778.971L184.232 778.5C185.786 779.053 187.35 779.595 188.923 780.127L188.763 780.601C190.34 781.134 191.926 781.656 193.522 782.168L193.675 781.692C195.268 782.203 196.872 782.703 198.486 783.193L198.341 783.672C199.923 784.152 201.516 784.623 203.118 785.083L203.256 784.602C204.849 785.06 206.451 785.508 208.064 785.945L207.933 786.428C209.547 786.866 211.171 787.294 212.805 787.712L212.928 787.228C214.537 787.64 216.155 788.042 217.783 788.434L217.665 788.92C219.274 789.308 220.892 789.686 222.519 790.054L222.63 789.567C224.254 789.935 225.888 790.293 227.531 790.642L227.427 791.131C229.067 791.479 230.715 791.818 232.373 792.147L232.47 791.656C234.085 791.977 235.709 792.288 237.341 792.591L237.25 793.082C238.884 793.385 240.526 793.679 242.178 793.963L242.263 793.471C243.912 793.755 245.569 794.03 247.236 794.296L247.157 794.789C248.796 795.051 250.443 795.304 252.098 795.548L252.171 795.053C253.806 795.294 255.449 795.526 257.1 795.749L257.033 796.245C258.686 796.469 260.346 796.684 262.015 796.89L262.077 796.394C263.744 796.6 265.419 796.798 267.102 796.987L267.046 797.484C268.681 797.667 270.324 797.843 271.975 798.01L272.025 797.513C273.674 797.68 275.33 797.838 276.994 797.989L276.949 798.487C278.615 798.638 280.288 798.781 281.969 798.915L282.009 798.417C283.673 798.55 285.346 798.675 287.025 798.792L286.99 799.291C288.635 799.405 290.287 799.512 291.946 799.611L291.976 799.112C293.634 799.211 295.298 799.302 296.97 799.386L296.945 799.885C298.619 799.969 300.299 800.045 301.987 800.113L302.007 799.613C303.67 799.68 305.34 799.74 307.016 799.792L307.001 800.292C308.651 800.343 310.307 800.387 311.97 800.424L311.981 799.924C313.643 799.96 315.312 799.99 316.987 800.011L316.98 800.511C318.657 800.533 320.34 800.548 322.031 800.555L322.033 800.055C322.877 800.059 323.723 800.061 324.571 800.061H327.053V800.561H332.018V800.061H336.982V800.561H341.947V800.061H344.43C344.938 800.061 345.445 800.063 345.951 800.067C346.272 800.07 346.592 800.074 346.912 800.078L346.905 800.578C348.557 800.601 350.191 800.647 351.809 800.717L351.831 800.218C353.485 800.289 355.121 800.385 356.739 800.507L356.702 801.005C358.355 801.129 359.989 801.279 361.604 801.455L361.658 800.958C363.31 801.139 364.943 801.347 366.555 801.583L366.482 802.078C368.119 802.318 369.735 802.587 371.329 802.886L371.421 802.394C373.053 802.7 374.662 803.036 376.25 803.404L376.137 803.891C377.746 804.263 379.332 804.668 380.894 805.106L381.029 804.625C382.626 805.072 384.199 805.553 385.747 806.069L385.589 806.544C387.153 807.065 388.693 807.622 390.206 808.215L390.388 807.749C391.931 808.353 393.446 808.995 394.936 809.674L394.728 810.129C396.225 810.812 397.695 811.533 399.138 812.292L399.371 811.85C400.833 812.62 402.267 813.431 403.673 814.281L403.414 814.709C404.818 815.558 406.193 816.448 407.539 817.379L407.823 816.967C409.178 817.904 410.504 818.882 411.801 819.903L411.492 820.295C412.775 821.306 414.03 822.357 415.256 823.45L415.589 823.077C416.813 824.169 418.008 825.303 419.174 826.479L418.818 826.831C419.964 827.986 421.081 829.182 422.169 830.42L422.544 830.09C423.623 831.317 424.673 832.585 425.695 833.893L425.301 834.201C426.299 835.479 427.269 836.796 428.212 838.153L428.623 837.868C429.552 839.205 430.455 840.581 431.33 841.996L430.905 842.259C431.757 843.635 432.583 845.048 433.383 846.5L433.821 846.258C434.607 847.682 435.368 849.143 436.104 850.639L435.655 850.86C436.37 852.314 437.061 853.802 437.728 855.326L438.186 855.125C438.836 856.61 439.464 858.127 440.069 859.678L439.603 859.859C440.188 861.361 440.752 862.893 441.295 864.458L441.767 864.294C442.298 865.825 442.808 867.386 443.298 868.978L442.82 869.125C443.296 870.673 443.752 872.25 444.188 873.857L444.671 873.726C445.096 875.291 445.502 876.883 445.889 878.504L445.403 878.62C445.777 880.186 446.133 881.777 446.471 883.396L446.961 883.293C447.293 884.882 447.608 886.495 447.905 888.134L447.414 888.223C447.703 889.82 447.977 891.441 448.234 893.086L448.728 893.009C448.976 894.602 449.21 896.218 449.427 897.856L448.932 897.922C449.145 899.529 449.343 901.158 449.526 902.809L450.023 902.754C450.202 904.367 450.367 906.001 450.517 907.657L450.019 907.702C450.164 909.308 450.296 910.935 450.415 912.581L450.913 912.545C451.03 914.174 451.134 915.823 451.224 917.492L450.724 917.519C450.811 919.125 450.885 920.749 450.947 922.392L451.446 922.374C451.507 924 451.556 925.645 451.592 927.308L451.092 927.319C451.128 928.935 451.151 930.57 451.163 932.221L451.663 932.218C451.666 932.649 451.668 933.081 451.67 933.515C451.671 933.913 451.672 934.312 451.672 934.712V937.13H451.172V941.966H451.672V946.801H451.172V951.636H451.672V956.472H451.172V961.307H451.672V966.143H451.172V970.978H451.672V975.814H451.172V980.649H451.672V985.485H451.172V990.32H451.672V995.156H451.172V999.991H451.672V1004.83H451.172V1009.66H451.672V1014.5H451.172V1019.33H451.672V1024.17H451.172V1029H451.672V1033.84H451.172V1038.68H451.672V1043.51H451.172V1048.35H451.672V1053.18H451.172V1058.02H451.672V1062.85H451.172V1067.69H451.672V1070.11C451.672 1070.94 451.669 1071.77 451.663 1072.6L451.163 1072.6C451.151 1074.25 451.128 1075.88 451.092 1077.49L451.592 1077.5C451.556 1079.17 451.507 1080.81 451.447 1082.43L450.947 1082.42C450.885 1084.06 450.811 1085.68 450.725 1087.28L451.224 1087.31C451.134 1088.98 451.03 1090.63 450.913 1092.25L450.414 1092.22C450.296 1093.86 450.164 1095.49 450.018 1097.09L450.516 1097.14C450.366 1098.79 450.201 1100.42 450.022 1102.03L449.525 1101.98C449.341 1103.63 449.142 1105.26 448.928 1106.86L449.424 1106.93C449.205 1108.57 448.971 1110.18 448.722 1111.77L448.228 1111.69C447.97 1113.34 447.695 1114.96 447.404 1116.55L447.896 1116.64C447.597 1118.28 447.281 1119.89 446.947 1121.48L446.458 1121.37C446.117 1122.99 445.759 1124.58 445.383 1126.14L445.869 1126.26C445.48 1127.88 445.071 1129.47 444.644 1131.03L444.162 1130.9C443.723 1132.5 443.263 1134.08 442.784 1135.62L443.262 1135.77C442.769 1137.36 442.255 1138.92 441.721 1140.45L441.249 1140.28C440.702 1141.84 440.134 1143.37 439.544 1144.87L440.009 1145.06C439.401 1146.6 438.769 1148.11 438.114 1149.59L437.657 1149.39C436.985 1150.91 436.288 1152.4 435.568 1153.85L436.016 1154.07C435.274 1155.56 434.508 1157.02 433.716 1158.44L433.279 1158.19C432.473 1159.64 431.641 1161.05 430.783 1162.42L431.207 1162.68C430.325 1164.09 429.417 1165.46 428.481 1166.79L428.072 1166.51C427.123 1167.86 426.147 1169.17 425.143 1170.44L425.535 1170.75C424.508 1172.05 423.453 1173.31 422.369 1174.54L421.995 1174.2C420.902 1175.43 419.781 1176.62 418.631 1177.77L418.985 1178.13C417.816 1179.3 416.618 1180.42 415.391 1181.51L415.059 1181.14C413.832 1182.22 412.575 1183.27 411.289 1184.28L411.598 1184.67C410.301 1185.69 408.975 1186.66 407.62 1187.6L407.336 1187.19C405.991 1188.11 404.617 1189 403.216 1189.85L403.475 1190.28C402.072 1191.13 400.64 1191.94 399.181 1192.72L398.947 1192.28C397.508 1193.04 396.043 1193.77 394.55 1194.46L394.76 1194.91C393.276 1195.6 391.766 1196.25 390.23 1196.86L390.045 1196.4C388.537 1197 387.004 1197.57 385.447 1198.11L385.609 1198.58C384.068 1199.11 382.502 1199.61 380.913 1200.07L380.772 1199.59C379.217 1200.05 377.638 1200.48 376.036 1200.87L376.156 1201.36C374.576 1201.75 372.974 1202.11 371.35 1202.44L371.249 1201.95C369.661 1202.28 368.052 1202.57 366.422 1202.84L366.504 1203.34C364.898 1203.6 363.272 1203.84 361.627 1204.06L361.562 1203.56C359.952 1203.77 358.323 1203.96 356.675 1204.12L356.724 1204.62C355.11 1204.78 353.479 1204.91 351.829 1205.03L351.795 1204.53C350.181 1204.64 348.549 1204.73 346.901 1204.79L346.921 1205.29C346.099 1205.33 345.273 1205.35 344.443 1205.38C343.606 1205.4 342.772 1205.42 341.943 1205.43L341.936 1204.93C340.272 1204.95 338.625 1204.94 336.994 1204.91L336.984 1205.41C335.316 1205.38 333.665 1205.32 332.033 1205.23L332.06 1204.73C330.393 1204.64 328.745 1204.52 327.117 1204.37L327.071 1204.87C325.403 1204.72 323.756 1204.53 322.128 1204.32L322.193 1203.82C320.541 1203.6 318.91 1203.35 317.301 1203.07L317.214 1203.56C315.567 1203.27 313.942 1202.95 312.339 1202.59L312.448 1202.1C310.824 1201.74 309.224 1201.34 307.647 1200.91L307.515 1201.39C305.904 1200.95 304.318 1200.47 302.756 1199.96L302.913 1199.48C301.337 1198.96 299.786 1198.4 298.261 1197.8L298.078 1198.27C296.526 1197.66 295 1197.01 293.5 1196.32L293.709 1195.87C292.204 1195.17 290.727 1194.44 289.276 1193.67L289.041 1194.11C287.573 1193.33 286.133 1192.5 284.721 1191.64L284.983 1191.21C283.576 1190.35 282.198 1189.44 280.848 1188.49L280.561 1188.9C279.204 1187.95 277.876 1186.95 276.578 1185.91L276.89 1185.52C275.606 1184.49 274.351 1183.42 273.125 1182.31L272.789 1182.68C271.566 1181.57 270.372 1180.42 269.208 1179.22L269.566 1178.87C268.422 1177.7 267.307 1176.49 266.22 1175.23L265.842 1175.56C264.766 1174.32 263.718 1173.03 262.697 1171.71L263.094 1171.4C262.098 1170.11 261.129 1168.77 260.187 1167.4L259.774 1167.68C258.847 1166.33 257.945 1164.94 257.071 1163.51L257.497 1163.25C256.646 1161.86 255.82 1160.43 255.019 1158.97L254.58 1159.21C253.794 1157.77 253.033 1156.3 252.296 1154.79L252.746 1154.57C252.029 1153.1 251.337 1151.6 250.667 1150.07L250.209 1150.27C249.557 1148.77 248.927 1147.24 248.319 1145.68L248.785 1145.5C248.197 1143.98 247.63 1142.44 247.084 1140.86L246.612 1141.03C246.077 1139.48 245.563 1137.91 245.07 1136.31L245.548 1136.16C245.068 1134.6 244.608 1133.01 244.167 1131.39L243.685 1131.53C243.256 1129.95 242.846 1128.35 242.454 1126.72L242.94 1126.6C242.562 1125.02 242.201 1123.42 241.858 1121.79L241.368 1121.89C241.031 1120.29 240.712 1118.67 240.41 1117.02L240.902 1116.93C240.607 1115.32 240.33 1113.69 240.069 1112.03L239.575 1112.11C239.322 1110.51 239.084 1108.88 238.862 1107.23L239.358 1107.16C239.14 1105.54 238.938 1103.9 238.751 1102.24L238.254 1102.29C238.072 1100.67 237.904 1099.02 237.751 1097.36L238.248 1097.31C238.1 1095.69 237.964 1094.05 237.843 1092.4L237.345 1092.43C237.225 1090.79 237.119 1089.13 237.027 1087.45L237.526 1087.42C237.437 1085.8 237.361 1084.17 237.298 1082.51L236.798 1082.53C236.736 1080.89 236.686 1079.24 236.649 1077.56L237.148 1077.55C237.112 1075.92 237.088 1074.28 237.076 1072.61L236.576 1072.62C236.571 1071.95 236.568 1071.28 236.567 1070.61H234.599V1070.11H229.662V1070.61H224.725V1070.11H219.789V1070.61H214.852V1070.11H209.916V1070.61H204.979V1070.11H200.043V1070.61H195.106V1070.11H190.17V1070.61H185.233V1070.11H180.297V1070.61H175.36V1070.11H170.424V1070.61H165.487V1070.11H160.55V1070.61H155.614V1070.11H150.677V1070.61H145.741V1070.11H140.804V1070.61H135.868V1070.11H130.931V1070.61H125.995V1070.11H121.058V1070.61H116.122V1070.11H111.185V1070.61H106.248V1070.11H101.312V1070.61H96.3754V1070.11H91.4389V1070.61H86.5023V1070.11H81.5658V1070.61H76.6293V1070.11H71.6927V1070.61H66.7562V1070.11H61.8196V1070.61H56.8831V1070.11H51.9466V1070.61H47.01V1070.11H42.0735V1070.61H37.137V1070.11H32.2004V1070.61H27.2639V1070.11H22.3273V1070.61H20.3592C20.3597 1071.29 20.3614 1071.96 20.3641 1072.64L19.8641 1072.65C19.8709 1074.33 19.8845 1076.02 19.9049 1077.7L20.4049 1077.69C20.4252 1079.37 20.4524 1081.04 20.4864 1082.7L19.9865 1082.71C20.0205 1084.38 20.0613 1086.04 20.1089 1087.69L20.6087 1087.67C20.6569 1089.35 20.7122 1091.02 20.7744 1092.69L20.2748 1092.7C20.3379 1094.39 20.4083 1096.07 20.4858 1097.75L20.9852 1097.73C21.0627 1099.4 21.1473 1101.07 21.2391 1102.73L20.7398 1102.76C20.8317 1104.42 20.9308 1106.07 21.037 1107.72L21.536 1107.69C21.6442 1109.37 21.7598 1111.04 21.8828 1112.71L21.3842 1112.74C21.5085 1114.43 21.6404 1116.1 21.7799 1117.77L22.2782 1117.73C22.4176 1119.4 22.5645 1121.06 22.719 1122.71L22.2212 1122.76C22.3759 1124.41 22.5381 1126.06 22.708 1127.7L23.2053 1127.65C23.3794 1129.33 23.5614 1131 23.7514 1132.67L23.2546 1132.73C23.4452 1134.4 23.6439 1136.07 23.8505 1137.72L24.3467 1137.66C24.5531 1139.32 24.7676 1140.97 24.99 1142.61L24.4945 1142.68C24.7188 1144.33 24.9513 1145.98 25.1918 1147.62L25.6865 1147.55C25.9316 1149.22 26.1852 1150.88 26.4472 1152.54L25.9533 1152.62C26.2156 1154.27 26.4864 1155.92 26.7656 1157.57L27.2585 1157.48C27.5374 1159.12 27.8247 1160.75 28.1204 1162.38L27.6285 1162.47C27.9302 1164.13 28.2408 1165.78 28.5601 1167.42L29.0509 1167.32C29.3722 1168.97 29.7024 1170.62 30.0414 1172.25L29.5519 1172.35C29.8913 1173.99 30.2397 1175.62 30.597 1177.24L31.0853 1177.13C31.4445 1178.76 31.8126 1180.38 32.1898 1182L31.7029 1182.11C32.0878 1183.76 32.482 1185.39 32.8856 1187.02L33.3709 1186.9C33.774 1188.53 34.1864 1190.14 34.6081 1191.75L34.1244 1191.88C34.5467 1193.49 34.9783 1195.09 35.4193 1196.68L35.9012 1196.55C36.3511 1198.18 36.8107 1199.79 37.2801 1201.4L36.8002 1201.54C37.2716 1203.15 37.7527 1204.76 38.2437 1206.35L38.7216 1206.2C39.2119 1207.8 39.7119 1209.38 40.2217 1210.96L39.7461 1211.11C40.2636 1212.71 40.7912 1214.3 41.3289 1215.88L41.8022 1215.71C42.3441 1217.31 42.8962 1218.89 43.4585 1220.46L42.9877 1220.63C43.5509 1222.2 44.1243 1223.77 44.708 1225.32L45.1761 1225.15C45.7635 1226.71 46.3613 1228.27 46.9694 1229.81L46.5042 1229.99C47.1213 1231.56 47.7492 1233.12 48.3877 1234.67L48.8499 1234.48C49.4874 1236.02 50.1355 1237.56 50.7943 1239.08L50.3353 1239.28C50.998 1240.81 51.6715 1242.34 52.3557 1243.85L52.8113 1243.64C53.5044 1245.18 54.2087 1246.7 54.9239 1248.21L54.472 1248.42C55.1885 1249.94 55.9161 1251.44 56.6547 1252.93L57.1028 1252.71C57.8418 1254.21 58.5919 1255.69 59.3531 1257.16L58.9089 1257.39C59.6825 1258.89 60.4676 1260.37 61.264 1261.84L61.7039 1261.61C62.4989 1263.08 63.3053 1264.54 64.1231 1265.99L63.6876 1266.23C64.5081 1267.69 65.3399 1269.13 66.1832 1270.56L66.614 1270.31C67.4665 1271.75 68.3306 1273.19 69.2065 1274.61L68.7806 1274.87C69.6582 1276.3 70.5474 1277.72 71.4484 1279.12L71.8692 1278.85C72.7694 1280.25 73.6814 1281.64 74.6051 1283.02L74.1897 1283.3C75.1245 1284.7 76.0712 1286.08 77.03 1287.45L77.4399 1287.17C78.3967 1288.53 79.3656 1289.89 80.3463 1291.24L79.9423 1291.53C80.926 1292.88 81.9218 1294.22 82.9296 1295.55L83.3277 1295.25C84.3404 1296.58 85.3652 1297.9 86.4022 1299.21L86.0103 1299.52C87.0493 1300.83 88.1005 1302.13 89.1639 1303.42L89.5494 1303.1C90.6115 1304.38 91.6858 1305.66 92.7723 1306.92L92.3934 1307.25C93.4861 1308.51 94.5911 1309.77 95.7083 1311.02L96.0804 1310.68C97.1953 1311.92 98.3225 1313.15 99.4618 1314.37L99.0968 1314.71C100.239 1315.93 101.393 1317.14 102.56 1318.34L102.918 1317.99C104.083 1319.18 105.26 1320.36 106.45 1321.53L106.1 1321.89C107.292 1323.06 108.496 1324.22 109.713 1325.37L110.056 1325.01C111.269 1326.15 112.494 1327.28 113.732 1328.4L113.397 1328.77C114.635 1329.89 115.885 1331 117.148 1332.09L117.476 1331.72C118.736 1332.81 120.008 1333.89 121.293 1334.96L120.973 1335.34C122.257 1336.41 123.553 1337.47 124.861 1338.51L125.173 1338.12C126.474 1339.16 127.787 1340.18 129.113 1341.2L128.809 1341.59C130.137 1342.61 131.477 1343.61 132.829 1344.6L133.124 1344.2C134.468 1345.19 135.823 1346.16 137.191 1347.12L136.903 1347.53C138.267 1348.48 139.642 1349.43 141.029 1350.36L141.308 1349.95C142.693 1350.88 144.089 1351.8 145.497 1352.71L145.226 1353.13C146.628 1354.03 148.042 1354.92 149.467 1355.8L149.729 1355.38C151.143 1356.25 152.569 1357.11 154.005 1357.96L153.751 1358.39C155.191 1359.24 156.642 1360.08 158.104 1360.9L158.35 1360.47C159.799 1361.29 161.259 1362.09 162.731 1362.89L162.493 1363.33C163.956 1364.12 165.43 1364.9 166.915 1365.66L167.144 1365.22C168.627 1365.99 170.12 1366.74 171.625 1367.48L171.403 1367.93C172.899 1368.67 174.406 1369.4 175.923 1370.11L176.136 1369.66C177.636 1370.37 179.146 1371.06 180.667 1371.75L180.461 1372.2C181.985 1372.89 183.519 1373.56 185.064 1374.23L185.261 1373.77C186.793 1374.42 188.336 1375.07 189.89 1375.71L189.7 1376.17C191.235 1376.8 192.779 1377.41 194.334 1378.02L194.516 1377.55C196.068 1378.16 197.631 1378.75 199.204 1379.34L199.03 1379.8C200.601 1380.39 202.181 1380.96 203.772 1381.52L203.939 1381.05C205.496 1381.6 207.064 1382.14 208.641 1382.66L208.482 1383.14C210.062 1383.67 211.652 1384.19 213.251 1384.69L213.403 1384.22C215 1384.72 216.606 1385.22 218.223 1385.71L218.079 1386.19C219.663 1386.66 221.257 1387.13 222.859 1387.59L222.996 1387.11C224.593 1387.56 226.198 1388.01 227.813 1388.44L227.683 1388.92C229.3 1389.36 230.926 1389.79 232.562 1390.2L232.685 1389.72C234.295 1390.12 235.914 1390.52 237.543 1390.91L237.426 1391.4C239.038 1391.79 240.658 1392.16 242.287 1392.53L242.397 1392.04C244.024 1392.41 245.66 1392.76 247.305 1393.11L247.201 1393.6C248.842 1393.95 250.492 1394.28 252.15 1394.61L252.247 1394.12C253.864 1394.44 255.49 1394.75 257.124 1395.05L257.033 1395.54C258.67 1395.84 260.314 1396.13 261.967 1396.42L262.052 1395.93C263.702 1396.21 265.362 1396.48 267.029 1396.75L266.951 1397.24C268.591 1397.5 270.24 1397.75 271.896 1398L271.969 1397.5C273.605 1397.74 275.25 1397.97 276.903 1398.2L276.836 1398.69C278.49 1398.91 280.153 1399.13 281.823 1399.33L281.884 1398.84C283.552 1399.04 285.228 1399.24 286.912 1399.43L286.856 1399.93C288.493 1400.11 290.138 1400.28 291.79 1400.45L291.841 1399.95C293.491 1400.12 295.149 1400.28 296.815 1400.43L296.77 1400.93C298.437 1401.08 300.111 1401.22 301.793 1401.35L301.833 1400.86C303.499 1400.99 305.172 1401.11 306.853 1401.23L306.818 1401.73C308.465 1401.84 310.119 1401.95 311.779 1402.05L311.809 1401.55C313.468 1401.65 315.134 1401.74 316.807 1401.82L316.782 1402.32C318.457 1402.41 320.139 1402.48 321.827 1402.55L321.848 1402.05C323.512 1402.12 325.183 1402.18 326.861 1402.23L326.845 1402.73C328.497 1402.78 330.155 1402.83 331.82 1402.86L331.831 1402.36C333.494 1402.4 335.164 1402.43 336.841 1402.45L336.834 1402.95C338.512 1402.97 340.197 1402.99 341.888 1402.99L341.89 1402.49C342.735 1402.5 343.581 1402.5 344.43 1402.5C345.276 1402.5 346.122 1402.5 346.965 1402.49L346.967 1402.99C348.656 1402.99 350.337 1402.97 352.012 1402.95L352.006 1402.45C353.679 1402.43 355.346 1402.4 357.006 1402.36L357.017 1402.86C358.679 1402.83 360.333 1402.78 361.982 1402.73L361.966 1402.23C363.641 1402.18 365.309 1402.12 366.969 1402.05L366.99 1402.55C368.676 1402.49 370.355 1402.41 372.026 1402.33L372.002 1401.83C373.672 1401.74 375.335 1401.65 376.991 1401.55L377.02 1402.05C378.678 1401.95 380.328 1401.85 381.971 1401.73L381.937 1401.23C383.614 1401.12 385.284 1400.99 386.947 1400.86L386.987 1401.36C388.666 1401.22 390.338 1401.08 392.002 1400.93L391.957 1400.43C393.619 1400.28 395.274 1400.12 396.921 1399.96L396.972 1400.45C398.62 1400.29 400.262 1400.11 401.896 1399.93L401.84 1399.43C403.521 1399.24 405.194 1399.05 406.858 1398.84L406.92 1399.34C408.587 1399.13 410.246 1398.92 411.898 1398.69L411.831 1398.2C413.48 1397.98 415.122 1397.74 416.755 1397.5L416.828 1398C418.481 1397.76 420.126 1397.5 421.763 1397.24L421.684 1396.75C423.349 1396.48 425.005 1396.21 426.653 1395.93L426.737 1396.42C428.387 1396.13 430.029 1395.84 431.661 1395.54L431.57 1395.05C433.201 1394.75 434.823 1394.44 436.437 1394.12L436.534 1394.61C438.189 1394.28 439.836 1393.94 441.473 1393.59L441.369 1393.1C443.011 1392.76 444.643 1392.4 446.267 1392.03L446.377 1392.52C448.003 1392.15 449.619 1391.78 451.227 1391.39L451.11 1390.9C452.735 1390.51 454.351 1390.11 455.957 1389.7L456.081 1390.19C457.714 1389.77 459.336 1389.34 460.95 1388.9L460.819 1388.42C462.43 1387.98 464.031 1387.54 465.623 1387.08L465.761 1387.56C467.361 1387.1 468.951 1386.64 470.532 1386.16L470.387 1385.68C471.999 1385.19 473.602 1384.69 475.195 1384.18L475.347 1384.66C476.942 1384.15 478.527 1383.63 480.103 1383.09L479.943 1382.62C481.516 1382.09 483.079 1381.55 484.631 1381L484.799 1381.47C486.386 1380.9 487.964 1380.33 489.531 1379.74L489.356 1379.28C490.924 1378.69 492.481 1378.09 494.029 1377.48L494.212 1377.95C495.761 1377.34 497.301 1376.72 498.83 1376.09L498.639 1375.63C500.189 1374.99 501.728 1374.34 503.256 1373.68L503.455 1374.14C504.994 1373.47 506.523 1372.79 508.041 1372.1L507.834 1371.65C509.349 1370.96 510.853 1370.26 512.347 1369.55L512.561 1370C514.075 1369.28 515.577 1368.55 517.068 1367.8L516.845 1367.36C518.343 1366.61 519.83 1365.85 521.306 1365.08L521.537 1365.53C523.016 1364.75 524.483 1363.97 525.94 1363.18L525.7 1362.74C527.166 1361.94 528.621 1361.12 530.065 1360.3L530.313 1360.73C531.768 1359.9 533.212 1359.06 534.645 1358.2L534.388 1357.78C535.818 1356.92 537.236 1356.06 538.643 1355.18L538.907 1355.6C540.327 1354.72 541.734 1353.82 543.13 1352.91L542.857 1352.49C544.257 1351.58 545.645 1350.66 547.022 1349.72L547.303 1350.13C548.682 1349.19 550.05 1348.24 551.405 1347.28L551.116 1346.87C552.476 1345.91 553.824 1344.93 555.161 1343.94L555.458 1344.34C556.802 1343.34 558.133 1342.34 559.453 1341.31L559.147 1340.92C560.464 1339.9 561.769 1338.87 563.061 1337.83L563.375 1338.22C564.675 1337.17 565.964 1336.1 567.239 1335.03L566.917 1334.65C568.193 1333.57 569.456 1332.49 570.707 1331.39L571.037 1331.77C572.291 1330.67 573.533 1329.55 574.762 1328.43L574.425 1328.06C575.654 1326.93 576.87 1325.8 578.074 1324.65L578.42 1325.01C579.627 1323.86 580.822 1322.69 582.005 1321.52L581.653 1321.16C582.833 1319.99 584.002 1318.8 585.158 1317.6L585.518 1317.95C586.675 1316.75 587.82 1315.54 588.953 1314.31L588.586 1313.97C589.716 1312.75 590.834 1311.52 591.94 1310.27L592.314 1310.6C593.422 1309.35 594.519 1308.09 595.603 1306.82L595.222 1306.49C596.299 1305.23 597.363 1303.95 598.416 1302.66L598.804 1302.98C599.858 1301.69 600.901 1300.39 601.931 1299.07L601.538 1298.76C602.566 1297.45 603.583 1296.13 604.587 1294.79L604.987 1295.09C605.985 1293.76 606.972 1292.42 607.947 1291.07L607.541 1290.78C608.514 1289.43 609.475 1288.07 610.424 1286.7L610.835 1286.98C611.786 1285.61 612.726 1284.22 613.653 1282.82L613.236 1282.55C614.151 1281.17 615.055 1279.78 615.948 1278.38L616.369 1278.64C617.263 1277.24 618.146 1275.82 619.017 1274.39L618.59 1274.13C619.459 1272.71 620.317 1271.27 621.164 1269.83L621.595 1270.08C622.431 1268.65 623.256 1267.21 624.07 1265.76L623.634 1265.51C624.446 1264.06 625.247 1262.6 626.037 1261.13L626.478 1261.37C627.27 1259.89 628.05 1258.41 628.819 1256.91L628.375 1256.68C629.13 1255.21 629.875 1253.73 630.609 1252.24L631.057 1252.46C631.792 1250.97 632.516 1249.47 633.23 1247.96L632.777 1247.74C633.49 1246.23 634.191 1244.71 634.882 1243.18L635.338 1243.38C636.018 1241.88 636.688 1240.36 637.348 1238.83L636.889 1238.63C637.546 1237.11 638.192 1235.57 638.829 1234.03L639.291 1234.22C639.929 1232.68 640.556 1231.12 641.173 1229.55L640.708 1229.37C641.314 1227.83 641.911 1226.28 642.498 1224.72L642.966 1224.9C643.55 1223.34 644.124 1221.78 644.688 1220.21L644.218 1220.04C644.781 1218.47 645.335 1216.89 645.879 1215.3L646.352 1215.47C646.89 1213.89 647.419 1212.31 647.939 1210.72L647.463 1210.56C647.976 1208.99 648.479 1207.41 648.973 1205.82L649.45 1205.97C649.945 1204.38 650.43 1202.78 650.906 1201.17L650.426 1201.03C650.899 1199.43 651.363 1197.82 651.817 1196.2L652.298 1196.33C652.744 1194.74 653.182 1193.14 653.61 1191.54L653.127 1191.41C653.554 1189.81 653.973 1188.19 654.383 1186.57L654.867 1186.69C655.278 1185.07 655.679 1183.44 656.072 1181.79L655.585 1181.68C655.969 1180.07 656.345 1178.46 656.712 1176.84L657.2 1176.95C657.565 1175.33 657.922 1173.7 658.271 1172.07L657.782 1171.97C658.13 1170.34 658.47 1168.7 658.801 1167.05L659.291 1167.15C659.62 1165.51 659.941 1163.87 660.253 1162.22L659.761 1162.13C660.068 1160.51 660.366 1158.88 660.657 1157.24L661.149 1157.33C661.44 1155.69 661.722 1154.05 661.997 1152.39L661.504 1152.31C661.778 1150.66 662.044 1149 662.303 1147.33L662.797 1147.41C663.05 1145.78 663.296 1144.14 663.533 1142.49L663.039 1142.42C663.275 1140.78 663.503 1139.13 663.724 1137.48L664.22 1137.55C664.441 1135.9 664.655 1134.23 664.861 1132.57L664.365 1132.51C664.57 1130.84 664.768 1129.18 664.958 1127.5L665.455 1127.56C665.641 1125.92 665.819 1124.28 665.991 1122.63L665.493 1122.57C665.665 1120.92 665.829 1119.27 665.986 1117.61L666.483 1117.65C666.641 1115.99 666.791 1114.32 666.933 1112.64L666.435 1112.6C666.576 1110.94 666.711 1109.27 666.838 1107.6L667.336 1107.63C667.461 1105.99 667.58 1104.34 667.691 1102.68L667.192 1102.65C667.304 1100.99 667.409 1099.33 667.506 1097.66L668.005 1097.69C668.103 1096.02 668.195 1094.34 668.279 1092.65L667.78 1092.63C667.863 1090.97 667.94 1089.3 668.01 1087.63L668.509 1087.65C668.578 1086 668.641 1084.34 668.697 1082.68L668.198 1082.67C668.254 1081.01 668.304 1079.34 668.347 1077.67L668.847 1077.68C668.891 1076.01 668.928 1074.33 668.959 1072.64L668.459 1072.63C668.474 1071.79 668.488 1070.95 668.5 1070.1C668.5 1070.1 668.5 1070.1 668.5 1070.1L668.5 1067.69H669V1062.85H668.5V1058.02H669V1053.18H668.5V1048.35H669V1043.51H668.5V1038.68H669V1033.84H668.5V1029H669V1024.17H668.5V1019.33H669V1014.5H668.5V1009.66H669V1004.83H668.5V999.991H669V995.156H668.5V990.32H669V985.485H668.5V980.649H669V975.814H668.5V970.978H669V966.143H668.5V961.307H669V956.472H668.5V951.636H669V946.801H668.5V941.966H669V937.13H668.5L668.5 934.719C668.5 934.718 668.5 934.717 668.5 934.715C668.491 934.115 668.482 933.515 668.472 932.916C668.467 932.673 668.463 932.431 668.459 932.188L668.959 932.179C668.928 930.494 668.891 928.814 668.847 927.141L668.347 927.154C668.304 925.481 668.254 923.815 668.197 922.155L668.697 922.138C668.64 920.477 668.577 918.821 668.508 917.172L668.009 917.193C667.938 915.521 667.861 913.855 667.778 912.195L668.277 912.17C668.192 910.487 668.101 908.81 668.003 907.14L667.503 907.169C667.405 905.5 667.3 903.837 667.188 902.181L667.687 902.147C667.575 900.49 667.457 898.839 667.331 897.194L666.832 897.232C666.705 895.559 666.57 893.893 666.428 892.233L666.926 892.19C666.783 890.513 666.633 888.842 666.475 887.178L665.977 887.226C665.819 885.563 665.655 883.908 665.483 882.26L665.98 882.208C665.808 880.558 665.629 878.915 665.442 877.278L664.945 877.335C664.754 875.66 664.556 873.992 664.35 872.332L664.846 872.27C664.639 870.603 664.425 868.943 664.203 867.29L663.707 867.356C663.485 865.705 663.256 864.061 663.019 862.425L663.514 862.353C663.275 860.705 663.028 859.064 662.774 857.431L662.28 857.508C662.021 855.842 661.754 854.183 661.478 852.532L661.971 852.45C661.696 850.797 661.412 849.153 661.12 847.516L660.628 847.603C660.337 845.968 660.037 844.341 659.73 842.721L660.221 842.628C659.908 840.978 659.587 839.336 659.257 837.702L658.767 837.801C658.434 836.154 658.093 834.515 657.744 832.885L658.233 832.78C657.883 831.148 657.525 829.524 657.158 827.908L656.671 828.019C656.302 826.397 655.926 824.784 655.541 823.179L656.027 823.062C655.633 821.422 655.231 819.79 654.819 818.167L654.334 818.289C653.923 816.668 653.503 815.056 653.075 813.452L653.558 813.323C653.128 811.717 652.69 810.12 652.242 808.531L651.761 808.667C651.306 807.049 650.841 805.441 650.367 803.841L650.846 803.699C650.369 802.09 649.883 800.489 649.387 798.898L648.91 799.047C648.415 797.458 647.91 795.878 647.396 794.308L647.871 794.152C647.351 792.562 646.821 790.98 646.281 789.408L645.808 789.57C645.263 787.982 644.708 786.404 644.143 784.835L644.614 784.666C644.048 783.095 643.472 781.534 642.887 779.982L642.419 780.159C641.831 778.601 641.234 777.052 640.626 775.514L641.091 775.33C640.473 773.765 639.844 772.21 639.206 770.665L638.744 770.856C638.106 769.313 637.458 767.781 636.8 766.259L637.259 766.061C636.598 764.533 635.927 763.015 635.246 761.508L634.79 761.714C634.098 760.183 633.395 758.662 632.682 757.152L633.134 756.939C632.419 755.426 631.694 753.925 630.958 752.433L630.51 752.655C629.775 751.166 629.03 749.688 628.273 748.22L628.718 747.991C627.948 746.496 627.166 745.012 626.373 743.538L625.933 743.775C625.142 742.305 624.34 740.845 623.527 739.397L623.963 739.152C623.148 737.701 622.322 736.261 621.485 734.832L621.054 735.084C620.207 733.638 619.348 732.203 618.479 730.779L618.905 730.518C618.033 729.091 617.15 727.676 616.255 726.271L615.834 726.54C614.941 725.139 614.036 723.749 613.121 722.37L613.537 722.093C612.609 720.696 611.67 719.311 610.718 717.938L610.307 718.222C609.358 716.851 608.396 715.492 607.423 714.144L607.828 713.851C606.853 712.501 605.867 711.162 604.868 709.835L604.469 710.136C603.464 708.8 602.447 707.477 601.418 706.165L601.811 705.856C600.781 704.542 599.738 703.24 598.683 701.95L598.296 702.266C597.243 700.978 596.179 699.702 595.102 698.439L595.483 698.115C594.399 696.842 593.302 695.581 592.194 694.333L591.82 694.665C590.714 693.419 589.596 692.186 588.466 690.965L588.833 690.625C587.701 689.401 586.556 688.189 585.399 686.99L585.04 687.337C583.883 686.138 582.715 684.951 581.535 683.777L581.888 683.422C580.705 682.246 579.51 681.081 578.303 679.929L577.958 680.291C576.754 679.142 575.538 678.005 574.31 676.881L574.647 676.512C573.418 675.386 572.177 674.273 570.924 673.173L570.594 673.549C569.343 672.45 568.081 671.364 566.806 670.291L567.128 669.908C565.853 668.834 564.565 667.772 563.266 666.723L562.952 667.112C561.66 666.068 560.356 665.037 559.04 664.018L559.346 663.623C558.027 662.602 556.697 661.594 555.354 660.597L555.056 660.999C553.72 660.008 552.373 659.029 551.013 658.062L551.303 657.654C549.948 656.691 548.582 655.74 547.204 654.801L546.922 655.214C545.547 654.277 544.16 653.353 542.761 652.44L543.034 652.021C541.639 651.111 540.232 650.213 538.813 649.326L538.548 649.75C537.143 648.873 535.726 648.007 534.298 647.153L534.554 646.724C533.123 645.868 531.681 645.024 530.227 644.193L529.978 644.627C528.535 643.801 527.081 642.987 525.615 642.186L525.855 641.747C524.4 640.951 522.934 640.167 521.456 639.395L521.225 639.838C519.75 639.067 518.265 638.307 516.768 637.56L516.991 637.112C515.5 636.368 513.999 635.635 512.486 634.913L512.27 635.364C510.778 634.653 509.275 633.952 507.762 633.263L507.969 632.808C506.453 632.118 504.926 631.439 503.388 630.772L503.189 631.23C501.66 630.567 500.122 629.915 498.572 629.274L498.763 628.812C497.235 628.18 495.697 627.559 494.149 626.949L493.966 627.414C492.42 626.805 490.863 626.207 489.297 625.62L489.472 625.151C487.905 624.564 486.328 623.988 484.741 623.422L484.573 623.893C483.021 623.341 481.46 622.798 479.888 622.267L480.048 621.793C478.475 621.26 476.891 620.738 475.297 620.227L475.144 620.703C473.553 620.192 471.952 619.692 470.341 619.202L470.486 618.724C468.905 618.243 467.315 617.773 465.715 617.312L465.576 617.793C463.986 617.335 462.385 616.888 460.776 616.45L460.907 615.967C459.295 615.529 457.674 615.101 456.043 614.683L455.919 615.167C454.312 614.755 452.695 614.353 451.07 613.961L451.187 613.475C449.581 613.087 447.965 612.708 446.341 612.34L446.23 612.827C444.608 612.459 442.977 612.101 441.337 611.752L441.441 611.263C439.803 610.914 438.156 610.575 436.501 610.246L436.403 610.736C434.79 610.415 433.169 610.104 431.54 609.801L431.631 609.309C429.999 609.006 428.359 608.712 426.711 608.428L426.625 608.92C424.979 608.636 423.324 608.361 421.66 608.094L421.739 607.601C420.102 607.339 418.456 607.086 416.803 606.841L416.73 607.336C415.097 607.095 413.457 606.862 411.808 606.638L411.876 606.143C410.225 605.919 408.567 605.703 406.9 605.497L406.839 605.993C405.174 605.786 403.502 605.588 401.821 605.399L401.877 604.902C400.244 604.718 398.603 604.542 396.954 604.375L396.904 604.872C395.257 604.705 393.603 604.546 391.942 604.395L391.987 603.897C390.324 603.746 388.653 603.603 386.974 603.468L386.934 603.966C385.272 603.833 383.601 603.708 381.924 603.59L381.959 603.092C380.316 602.977 378.666 602.87 377.009 602.77L376.979 603.269C375.324 603.17 373.662 603.079 371.992 602.995L372.017 602.495C370.346 602.412 368.668 602.336 366.983 602.267L366.963 602.767C365.302 602.7 363.634 602.64 361.96 602.588L361.975 602.088C360.328 602.036 358.673 601.992 357.012 601.956L357.001 602.456C355.342 602.419 353.675 602.39 352.002 602.368L352.009 601.868C350.335 601.846 348.654 601.831 346.966 601.824L346.964 602.324C346.121 602.32 345.276 602.318 344.43 602.318H341.947V601.818H336.982V602.318H332.018V601.818H327.053V602.318H324.571C323.735 602.318 322.904 602.312 322.077 602.301L322.084 601.801C320.424 601.777 318.781 601.731 317.156 601.66L317.134 602.16C315.472 602.088 313.828 601.991 312.201 601.868L312.238 601.37C310.578 601.245 308.937 601.094 307.315 600.916L307.26 601.413C305.6 601.231 303.96 601.021 302.34 600.783L302.413 600.288C300.769 600.046 299.145 599.775 297.543 599.474L297.45 599.965C295.812 599.658 294.194 599.319 292.599 598.948L292.712 598.461C291.096 598.086 289.503 597.678 287.932 597.237L287.797 597.719C286.193 597.268 284.613 596.784 283.057 596.264L283.216 595.79C281.644 595.265 280.098 594.705 278.577 594.108L278.395 594.574C276.846 593.966 275.323 593.321 273.826 592.638L274.034 592.183C272.53 591.497 271.054 590.772 269.604 590.008L269.371 590.45C267.903 589.676 266.462 588.862 265.049 588.007L265.308 587.579C263.898 586.726 262.516 585.832 261.163 584.897L260.879 585.308C259.518 584.367 258.185 583.385 256.881 582.36L257.19 581.967C255.9 580.953 254.639 579.897 253.406 578.799L253.073 579.172C251.843 578.076 250.641 576.938 249.469 575.757L249.824 575.405C248.672 574.245 247.549 573.044 246.454 571.801L246.079 572.132C244.994 570.9 243.937 569.628 242.909 568.314L243.303 568.006C242.299 566.723 241.322 565.401 240.372 564.039L239.962 564.324C239.027 562.982 238.118 561.601 237.236 560.181L237.661 559.917C236.803 558.536 235.971 557.117 235.165 555.66L234.727 555.902C233.935 554.472 233.169 553.007 232.427 551.504L232.876 551.283C232.155 549.823 231.458 548.329 230.785 546.799L230.328 547C229.672 545.509 229.038 543.985 228.428 542.427L228.894 542.244C228.303 540.737 227.734 539.198 227.187 537.627L226.715 537.791C226.179 536.254 225.664 534.686 225.17 533.088L225.648 532.94C225.168 531.386 224.707 529.802 224.267 528.188L223.784 528.32C223.355 526.747 222.945 525.147 222.554 523.519L223.04 523.402C222.662 521.83 222.302 520.231 221.96 518.605L221.471 518.708C221.135 517.113 220.817 515.492 220.516 513.846L221.008 513.756C220.715 512.152 220.439 510.523 220.179 508.869L219.685 508.947C219.434 507.347 219.198 505.724 218.978 504.078L219.474 504.012C219.258 502.398 219.058 500.761 218.872 499.102L218.375 499.157C218.194 497.536 218.028 495.894 217.876 494.23L218.374 494.185C218.227 492.571 218.093 490.938 217.974 489.283L217.475 489.319C217.357 487.683 217.252 486.026 217.161 484.349L217.66 484.322C217.573 482.709 217.498 481.076 217.435 479.425L216.936 479.444C216.874 477.81 216.825 476.157 216.788 474.486L217.288 474.475C217.253 472.851 217.229 471.209 217.217 469.549L216.717 469.552C216.711 468.721 216.708 467.886 216.708 467.046V464.466H217.208V459.306H216.708V454.146H217.208V448.987H216.708V443.827H217.208V438.667H216.708V433.508H217.208V428.348H216.708V423.188H217.208V418.029H216.708V412.869H217.208V407.709H216.708V402.55H217.208V397.39H216.708V392.23H217.208V387.071H216.708V381.911H217.208V376.751H216.708V371.592H217.208V366.432H216.708V361.272H217.208V356.113H216.708V350.953H217.208V345.793H216.708V340.634H217.208V335.474H216.708V332.894C216.708 332.057 216.711 331.224 216.717 330.396L217.217 330.4C217.229 328.746 217.253 327.111 217.289 325.493L216.789 325.482C216.826 323.816 216.875 322.17 216.937 320.542L217.437 320.561C217.5 318.916 217.575 317.291 217.663 315.684L217.164 315.657C217.256 313.986 217.361 312.335 217.481 310.704L217.979 310.741C218.1 309.092 218.234 307.464 218.383 305.857L217.885 305.811C218.038 304.154 218.206 302.519 218.389 300.905L218.885 300.962C219.072 299.308 219.275 297.677 219.493 296.07L218.997 296.003C219.22 294.362 219.458 292.745 219.712 291.151L220.206 291.23C220.468 289.584 220.747 287.964 221.043 286.368L220.551 286.277C220.856 284.636 221.178 283.022 221.517 281.433L222.006 281.538C222.352 279.918 222.717 278.326 223.099 276.76L222.613 276.641C223.009 275.023 223.423 273.432 223.857 271.87L224.339 272.004C224.785 270.398 225.252 268.821 225.738 267.274L225.261 267.124C225.762 265.533 226.283 263.973 226.826 262.444L227.297 262.611C227.852 261.048 228.428 259.518 229.027 258.019L228.562 257.833C229.179 256.289 229.819 254.777 230.482 253.299L230.938 253.503C231.62 251.984 232.325 250.5 233.055 249.051L232.608 248.826C233.359 247.335 234.135 245.88 234.936 244.461L235.371 244.707C236.187 243.263 237.029 241.856 237.896 240.487L237.474 240.219C238.364 238.813 239.282 237.445 240.227 236.115L240.635 236.405C241.593 235.057 242.578 233.748 243.591 232.479L243.2 232.167C244.236 230.869 245.301 229.611 246.393 228.393L246.765 228.727C247.866 227.5 248.996 226.313 250.154 225.166L249.802 224.811C250.979 223.646 252.184 222.522 253.419 221.438L253.749 221.814C254.984 220.73 256.247 219.687 257.54 218.683L257.233 218.288C258.536 217.276 259.869 216.305 261.229 215.373L261.512 215.785C262.863 214.86 264.242 213.974 265.649 213.127L265.391 212.698C266.8 211.85 268.236 211.04 269.7 210.268L269.933 210.71C271.376 209.949 272.847 209.225 274.343 208.537L274.134 208.083C275.623 207.398 277.137 206.75 278.676 206.136L278.861 206.601C280.373 205.998 281.91 205.43 283.471 204.894L283.309 204.421C284.854 203.892 286.423 203.394 288.015 202.929L288.155 203.409C289.715 202.953 291.297 202.527 292.902 202.132L292.782 201.646C294.366 201.256 295.972 200.895 297.598 200.563L297.699 201.053C299.29 200.728 300.903 200.43 302.536 200.159L302.454 199.666C304.063 199.399 305.692 199.158 307.341 198.943L307.405 199.438C309.018 199.228 310.65 199.042 312.301 198.88L312.252 198.382C313.869 198.223 315.505 198.088 317.157 197.975L317.191 198.474C318.809 198.363 320.444 198.274 322.095 198.207L322.075 197.707C322.898 197.673 323.725 197.645 324.557 197.622C325.4 197.598 326.239 197.582 327.075 197.571L327.081 198.071C328.757 198.051 330.418 198.057 332.062 198.09L332.072 197.59C333.753 197.623 335.416 197.685 337.064 197.775L337.037 198.274C338.714 198.365 340.374 198.486 342.016 198.637L342.061 198.139C343.74 198.293 345.401 198.477 347.042 198.693L346.977 199.189C348.64 199.408 350.284 199.659 351.908 199.942L351.994 199.45C353.653 199.739 355.291 200.062 356.908 200.419L356.8 200.908C358.436 201.269 360.05 201.665 361.641 202.097L361.772 201.614C363.395 202.054 364.996 202.531 366.573 203.045L366.418 203.52C368.008 204.038 369.574 204.593 371.116 205.187L371.296 204.72C372.863 205.324 374.405 205.966 375.922 206.648L375.717 207.104C377.239 207.788 378.735 208.512 380.205 209.276L380.435 208.833C381.922 209.606 383.382 210.42 384.816 211.276L384.559 211.705C385.988 212.558 387.389 213.452 388.763 214.388L389.045 213.975C390.425 214.915 391.779 215.898 393.104 216.923L392.798 217.319C394.109 218.333 395.392 219.389 396.647 220.487L396.976 220.111C398.229 221.207 399.454 222.344 400.65 223.524L400.299 223.88C401.475 225.04 402.623 226.24 403.744 227.482L404.115 227.147C405.226 228.379 406.309 229.65 407.365 230.962L406.975 231.276C408.007 232.559 409.013 233.881 409.991 235.243L410.397 234.952C411.362 236.295 412.301 237.677 413.212 239.097L412.792 239.367C413.68 240.751 414.544 242.171 415.381 243.629L415.815 243.38C416.638 244.814 417.437 246.283 418.21 247.788L417.765 248.016C418.517 249.48 419.245 250.978 419.949 252.511L420.404 252.302C421.09 253.796 421.753 255.322 422.393 256.881L421.93 257.071C422.552 258.587 423.153 260.134 423.73 261.712L424.2 261.54C424.766 263.088 425.311 264.665 425.834 266.272L425.359 266.427C425.868 267.993 426.358 269.587 426.826 271.211L427.306 271.072C427.762 272.651 428.197 274.257 428.613 275.89L428.129 276.014C428.533 277.6 428.918 279.213 429.284 280.852L429.772 280.743C430.132 282.353 430.473 283.989 430.796 285.649L430.305 285.745C430.619 287.358 430.915 288.996 431.194 290.658L431.687 290.576C431.958 292.193 432.213 293.833 432.451 295.496L431.956 295.567C432.189 297.197 432.406 298.851 432.606 300.526L433.103 300.467C433.298 302.1 433.478 303.755 433.643 305.432L433.145 305.48C433.305 307.112 433.45 308.764 433.58 310.436L434.079 310.397C434.207 312.051 434.321 313.725 434.421 315.418L433.921 315.447C434.017 317.077 434.099 318.724 434.167 320.391L434.666 320.37C434.734 322.022 434.787 323.692 434.828 325.38L434.328 325.392C434.367 327.033 434.393 328.692 434.406 330.367L434.906 330.363C434.911 331.038 434.914 331.715 434.915 332.394H436.884V332.894H441.82V332.394H446.757V332.894H451.693V332.394H456.63V332.894H461.567V332.394H466.503V332.894H471.44V332.394H476.376V332.894H481.313V332.394H486.249V332.894H491.186V332.394H496.122V332.894H501.059V332.394H505.995V332.894H510.932V332.394H515.869V332.894H520.805V332.394H525.742V332.894H530.678V332.394H535.615V332.894H540.551V332.394H545.488V332.894H550.424V332.394H555.361V332.894H560.297V332.394H565.234V332.894H570.17V332.394H575.107V332.894H580.044V332.394H584.98V332.894H589.917V332.394H594.853V332.894H599.79V332.394H604.726V332.894H609.663V332.394H614.599V332.894H619.536V332.394H624.472V332.894H629.409V332.394H634.345V332.894H639.282V332.394H644.219V332.894H649.155V332.394H651.11C651.101 332.066 651.092 331.738 651.083 331.411C651.073 331.065 651.063 330.718 651.053 330.372L651.553 330.358Z" stroke="#F1F1F2" stroke-dasharray="5 5"/>
</g>
</svg>
