<svg width="1085" height="1404" viewBox="0 0 1085 1404" fill="none" xmlns="http://www.w3.org/2000/svg">
<g opacity="0.25">
<path d="M762.421 1.04486L762.434 1.04563H762.448C763.294 1.04563 764.137 1.04746 764.979 1.05112L764.981 0.55112C766.666 0.558433 768.344 0.573054 770.016 0.594975L770.009 1.09493C771.679 1.11683 773.342 1.14603 774.999 1.18251L775.01 0.682628C776.668 0.719139 778.319 0.762939 779.964 0.81402L779.948 1.31378C781.62 1.36569 783.284 1.42512 784.941 1.49207L784.961 0.992477C786.644 1.06044 788.319 1.13615 789.988 1.21958L789.963 1.71896C791.629 1.80231 793.289 1.89338 794.941 1.99217L794.971 1.49306C796.625 1.59193 798.272 1.69853 799.912 1.81284L799.877 2.31163C801.551 2.42832 803.217 2.55305 804.877 2.68581L804.916 2.1874C806.592 2.3215 808.26 2.46378 809.921 2.61423L809.876 3.1122C811.535 3.26249 813.186 3.42095 814.83 3.58756L814.88 3.0901C816.526 3.25689 818.163 3.43184 819.794 3.61494L819.738 4.11182C821.415 4.30019 823.084 4.4972 824.746 4.70283L824.807 4.20661C826.471 4.41258 828.127 4.62719 829.775 4.85043L829.707 5.34591C831.353 5.56889 832.991 5.80049 834.621 6.0407L834.694 5.54604C836.344 5.78917 837.985 6.0411 839.618 6.30183L839.539 6.79558C841.201 7.06079 842.853 7.33511 844.497 7.61853L844.582 7.12579C846.229 7.40955 847.866 7.70243 849.496 8.0044L849.404 8.49603C851.032 8.79761 852.65 9.10827 854.26 9.428L854.358 8.93757C856.009 9.26558 857.652 9.60312 859.286 9.95019L859.182 10.4393C860.82 10.7872 862.449 11.1447 864.069 11.5117L864.179 11.0241C865.801 11.3916 867.414 11.7688 869.018 12.1554L868.901 12.6415C870.523 13.0324 872.135 13.4331 873.738 13.8435L873.862 13.3591C875.49 13.7761 877.11 14.2032 878.719 14.6403L878.588 15.1228C880.196 15.5593 881.793 16.0059 883.382 16.4624L883.52 15.9818C885.116 16.4406 886.702 16.9095 888.279 17.3884L888.134 17.8668C889.743 18.3555 891.342 18.8548 892.931 19.3645L893.084 18.8883C894.675 19.3988 896.257 19.9199 897.828 20.4514L897.668 20.925C899.237 21.4557 900.796 21.9969 902.345 22.5485L902.513 22.0774C904.097 22.6415 905.67 23.2164 907.233 23.8022L907.058 24.2704C908.622 24.8567 910.176 25.454 911.72 26.0621L911.903 25.5969C913.449 26.2061 914.984 26.8262 916.51 27.4573L916.318 27.9193C917.864 28.5589 919.399 29.2097 920.923 29.8717L921.123 29.4131C922.658 30.08 924.183 30.7583 925.697 31.4479L925.489 31.9029C927 32.5913 928.5 33.291 929.99 34.002L930.205 33.5508C931.714 34.2713 933.212 35.0033 934.699 35.747L934.476 36.1942C935.97 36.9415 937.453 37.7005 938.924 38.4711L939.156 38.0281C940.631 38.8002 942.094 39.584 943.546 40.3795L943.305 40.818C944.767 41.6191 946.218 42.4321 947.657 43.257L947.906 42.8231C949.357 43.6548 950.797 44.4985 952.224 45.3541L951.967 45.783C953.392 46.637 954.806 47.503 956.208 48.3809L956.473 47.9572C957.888 48.8431 959.291 49.7413 960.682 50.6515L960.408 51.0699C961.804 51.9829 963.187 52.9081 964.559 53.8455L964.841 53.4327C966.215 54.372 967.577 55.3235 968.928 56.2873L968.638 56.6943C969.993 57.6614 971.336 58.6408 972.667 59.6325L972.966 59.2315C974.305 60.2285 975.631 61.2379 976.945 62.2597L976.638 62.6544C977.95 63.674 979.249 64.7061 980.536 65.7504L980.851 65.3621C982.146 66.4124 983.429 67.4752 984.699 68.5504L984.376 68.9321C985.646 70.0068 986.903 71.094 988.149 72.1936L988.48 71.8187C989.728 72.9206 990.963 74.0349 992.187 75.1617L991.848 75.5295C993.071 76.6554 994.281 77.7937 995.48 78.9443L995.826 78.5837C997.027 79.7373 998.216 80.9033 999.393 82.0817L999.039 82.435C1000.21 83.6109 1001.38 84.7993 1002.53 86L1002.89 85.6541C1004.04 86.8554 1005.18 88.0691 1006.3 89.2951L1005.93 89.6333C1007.06 90.8564 1008.17 92.0918 1009.27 93.3395L1009.64 93.009C1010.74 94.2593 1011.83 95.5218 1012.91 96.7967L1012.53 97.1193C1013.6 98.3852 1014.65 99.6632 1015.7 100.953L1016.09 100.639C1017.13 101.931 1018.17 103.235 1019.19 104.552L1018.8 104.859C1019.82 106.172 1020.83 107.498 1021.82 108.836L1022.23 108.538C1023.22 109.867 1024.19 111.208 1025.16 112.56L1024.75 112.851C1025.72 114.201 1026.67 115.563 1027.61 116.937L1028.02 116.654C1028.97 118.03 1029.9 119.418 1030.82 120.817L1030.4 121.091C1031.31 122.472 1032.2 123.865 1033.08 125.269L1033.51 125.002C1034.39 126.409 1035.27 127.827 1036.13 129.256L1035.7 129.515C1036.56 130.941 1037.41 132.378 1038.25 133.827L1038.68 133.577C1039.5 135.008 1040.32 136.45 1041.12 137.904L1040.69 138.146C1041.49 139.596 1042.28 141.058 1043.06 142.531L1043.5 142.297C1044.29 143.773 1045.06 145.259 1045.82 146.757L1045.37 146.983C1046.12 148.452 1046.85 149.933 1047.57 151.423L1048.02 151.205C1048.75 152.698 1049.46 154.202 1050.17 155.717L1049.71 155.927C1050.41 157.439 1051.1 158.962 1051.79 160.495L1052.24 160.292C1052.91 161.801 1053.57 163.32 1054.22 164.85L1053.76 165.045C1054.41 166.569 1055.04 168.103 1055.67 169.647L1056.13 169.459C1056.76 171.006 1057.37 172.563 1057.98 174.13L1057.51 174.31C1058.11 175.85 1058.69 177.399 1059.27 178.959L1059.74 178.786C1060.31 180.339 1060.87 181.901 1061.43 183.474L1060.95 183.64C1061.51 185.21 1062.05 186.79 1062.58 188.379L1063.06 188.22C1063.58 189.793 1064.1 191.375 1064.61 192.967L1064.13 193.118C1064.63 194.69 1065.12 196.271 1065.6 197.861L1066.08 197.716C1066.57 199.308 1067.04 200.909 1067.5 202.52L1067.02 202.658C1067.48 204.258 1067.93 205.867 1068.38 207.484L1068.86 207.353C1069.29 208.942 1069.72 210.54 1070.13 212.146L1069.65 212.271C1070.06 213.876 1070.47 215.489 1070.87 217.111L1071.35 216.992C1071.75 218.616 1072.14 220.248 1072.52 221.889L1072.03 222.002C1072.4 223.606 1072.77 225.219 1073.12 226.84L1073.61 226.733C1073.96 228.349 1074.31 229.973 1074.64 231.606L1074.15 231.706C1074.49 233.337 1074.81 234.975 1075.13 236.622L1075.62 236.527C1075.94 238.16 1076.25 239.801 1076.55 241.45L1076.05 241.54C1076.35 243.159 1076.63 244.786 1076.91 246.421L1077.4 246.337C1077.68 247.974 1077.95 249.618 1078.21 251.27L1077.72 251.348C1077.98 252.999 1078.23 254.657 1078.48 256.323L1078.97 256.25C1079.21 257.882 1079.44 259.521 1079.67 261.167L1079.17 261.235C1079.39 262.87 1079.61 264.513 1079.82 266.163L1080.31 266.101C1080.52 267.753 1080.72 269.412 1080.91 271.078L1080.42 271.136C1080.61 272.794 1080.79 274.46 1080.97 276.133L1081.46 276.081C1081.64 277.716 1081.8 279.357 1081.96 281.006L1081.46 281.053C1081.62 282.7 1081.77 284.354 1081.91 286.015L1082.41 285.972C1082.55 287.634 1082.69 289.303 1082.82 290.979L1082.32 291.017C1082.45 292.675 1082.57 294.339 1082.68 296.01L1083.18 295.976C1083.29 297.619 1083.4 299.268 1083.49 300.923L1082.99 300.953C1083.09 302.607 1083.18 304.267 1083.27 305.934L1083.76 305.909C1083.85 307.577 1083.93 309.252 1084 310.933L1083.5 310.954C1083.56 312.611 1083.63 314.275 1083.68 315.944L1084.18 315.927C1084.24 317.574 1084.29 319.227 1084.33 320.886L1083.83 320.898C1083.87 322.556 1083.91 324.219 1083.94 325.889L1084.44 325.88C1084.46 327.551 1084.49 329.228 1084.5 330.911L1084 330.916C1084.01 331.757 1084.02 332.599 1084.02 333.443V335.941H1084.52V340.941H1084.02V345.942H1084.52V350.943H1084.02V355.943H1084.52V360.943H1084.02V365.944H1084.52V370.944H1084.02V375.945H1084.52V380.945H1084.02V385.946H1084.52V390.947H1084.02V395.947H1084.52V400.947H1084.02V405.948H1084.52V410.948H1084.02V415.949H1084.52V420.949H1084.02V425.95H1084.52V430.95H1084.02V435.951H1084.52V440.951H1084.02V445.952H1084.52V450.952H1084.02V455.953H1084.52V460.953H1084.02V465.954H1084.52V470.954H1084.02V475.955H1084.52V480.955H1084.02V485.956H1084.52V490.956H1084.02V495.957H1084.52V500.957H1084.02V505.958H1084.52V510.958H1084.02V515.959H1084.52V520.959H1084.02V525.96H1084.52V530.96H1084.02V535.961H1084.52V540.961H1084.02V545.962H1084.52V550.962H1084.02V555.963H1084.52V560.963H1084.02V565.964H1084.52V570.964H1084.02V575.965H1084.52V580.965H1084.02V585.966H1084.52V590.966H1084.02V595.966H1084.52V600.967H1084.02V605.968H1084.52V610.968H1084.02V615.968H1084.52V620.969H1084.02V625.969H1084.52V630.97H1084.02V635.97H1084.52V640.971H1084.02V645.971H1084.52V650.972H1084.02V655.972H1084.52V660.973H1084.02V665.973H1084.52V670.974H1084.02V675.974H1084.52V680.975H1084.02V685.975H1084.52V690.976H1084.02V695.976H1084.52V700.977H1084.02V705.977H1084.52V710.978H1084.02V715.978H1084.52V720.979H1084.02V725.979H1084.52V730.98H1084.02V735.98H1084.52V740.981H1084.02V745.981H1084.52V750.982H1084.02V755.982H1084.52V760.983H1084.02V765.983H1084.52V770.984H1084.02V775.984H1084.52V780.985H1084.02V785.985H1084.52V790.986H1084.02V795.986H1084.52V800.987H1084.02V805.987H1084.52V810.987H1084.02V815.988H1084.52V820.989H1084.02V825.989H1084.52V830.99H1084.02V835.99H1084.52V840.99H1084.02V845.991H1084.52V850.991H1084.02V855.992H1084.52V860.992H1084.02V865.993H1084.52V870.993H1084.02V875.994H1084.52V880.994H1084.02V885.995H1084.52V890.995H1084.02V895.996H1084.52V900.996H1084.02V905.997H1084.52V910.997H1084.02V915.998H1084.52V920.998H1084.02V925.999H1084.52V930.999H1084.02V936H1084.52V941H1084.02V946.001H1084.52V951.001H1084.02V956.002H1084.52V961.002H1084.02V966.003H1084.52V971.003H1084.02V976.004H1084.52V981.004H1084.02V986.005H1084.52V991.005H1084.02V996.006H1084.52V1001.01H1084.02V1006.01H1084.52V1011.01H1084.02V1016.01H1084.52V1021.01H1084.02V1026.01H1084.52V1031.01H1084.02V1036.01H1084.52V1041.01H1084.02V1046.01H1084.52V1051.01H1084.02V1056.01H1084.52V1061.01H1084.02V1066.01H1084.52V1071.01H1084.02V1076.01H1084.52V1081.01H1084.02V1086.01H1084.52V1091.01H1084.02V1096.02H1084.52V1101.02H1084.02V1106.02H1084.52V1111.02H1084.02V1116.02H1084.52V1121.02H1084.02V1126.02H1084.52V1131.02H1084.02V1136.02H1084.52V1141.02H1084.02V1146.02H1084.52V1151.02H1084.02V1156.02H1084.52V1161.02H1084.02V1166.02H1084.52V1171.02H1084.02V1176.02H1084.52V1181.02H1084.02V1186.02H1084.52V1191.02H1084.02V1196.03H1084.52V1201.03H1084.02V1206.03H1084.52V1211.03H1084.02V1216.03H1084.52V1221.03H1084.02V1226.03H1084.52V1231.03H1084.02V1236.03H1084.52V1241.03H1084.02V1246.03H1084.52V1251.03H1084.02V1256.03H1084.52V1261.03H1084.02V1266.03H1084.52V1271.03H1084.02V1276.03H1084.52V1281.03H1084.02V1286.03H1084.52V1291.03H1084.02V1296.03H1084.52V1301.04H1084.02V1306.04H1084.52V1311.04H1084.02V1316.04H1084.52V1321.04H1084.02V1326.04H1084.52V1331.04H1084.02V1336.04H1084.52V1341.04H1084.02V1346.04H1084.52V1351.04H1084.02V1356.04H1084.52V1361.04H1084.02V1366.04H1084.52V1371.04H1084.02V1376.04H1084.52V1381.04H1084.02V1386.04H1084.52V1391.04H1084.02V1396.04H1084.52V1401.05H1084.02V1403.05H1082.05V1403.55H1077.11V1403.05H1072.17V1403.55H1067.23V1403.05H1062.29V1403.55H1057.35V1403.05H1052.41V1403.55H1047.47V1403.05H1042.52V1403.55H1037.58V1403.05H1032.64V1403.55H1027.7V1403.05H1022.76V1403.55H1017.82V1403.05H1012.88V1403.55H1007.94V1403.05H1003V1403.55H998.057V1403.05H993.116V1403.55H988.175V1403.05H983.234V1403.55H978.293V1403.05H973.352V1403.55H968.411V1403.05H963.47V1403.55H958.529V1403.05H953.588V1403.55H948.647V1403.05H943.707V1403.55H938.766V1403.05H933.825V1403.55H928.884V1403.05H923.943V1403.55H919.002V1403.05H914.061V1403.55H909.12V1403.05H904.179V1403.55H899.238V1403.05H894.297V1403.55H889.357V1403.05H884.416V1403.55H879.475V1403.05H874.534V1403.55H869.593V1403.05H867.622V1401.04H867.122V1396.04H867.622V1391.04H867.122V1386.04H867.622V1381.04H867.122V1376.04H867.622V1371.04H867.122V1366.04H867.622V1361.04H867.122V1356.04H867.622V1351.04H867.122V1346.04H867.622V1341.04H867.122V1336.04H867.622V1331.04H867.122V1326.04H867.622V1321.04H867.122V1316.04H867.622V1311.04H867.122V1306.04H867.622V1301.03H867.122V1296.03H867.622V1291.03H867.122V1286.03H867.622V1281.03H867.122V1276.03H867.622V1271.03H867.122V1266.03H867.622V1261.03H867.122V1256.03H867.622V1251.03H867.122V1246.03H867.622V1241.03H867.122V1236.03H867.622V1231.03H867.122V1226.03H867.622V1221.03H867.122V1216.03H867.622V1211.03H867.122V1206.03H867.622V1201.02H867.122V1196.02H867.622V1191.02H867.122V1186.02H867.622V1181.02H867.122V1176.02H867.622V1171.02H867.122V1166.02H867.622V1161.02H867.122V1156.02H867.622V1151.02H867.122V1146.02H867.622V1141.02H867.122V1136.02H867.622V1131.02H867.122V1126.02H867.622V1121.02H867.122V1116.02H867.622V1111.02H867.122V1106.02H867.622V1101.02H867.122V1096.01H867.622V1091.01H867.122V1086.01H867.622V1081.01H867.122V1076.01H867.622V1071.01H867.122V1066.01H867.622V1061.01H867.122V1056.01H867.622V1051.01H867.122V1046.01H867.622V1041.01H867.122V1036.01H867.622V1031.01H867.122V1026.01H867.622V1021.01H867.122V1016.01H867.622V1011.01H867.122V1006.01H867.622V1001.01H867.122V996.005H867.622V991.004H867.122V986.004H867.622V981.003H867.122V976.003H867.622V971.002H867.122V966.002H867.622V961.001H867.122V956.001H867.622V951H867.122V946H867.622V940.999H867.122V935.999H867.622V930.998H867.122V925.998H867.622V920.997H867.122V915.997H867.622V910.996H867.122V905.996H867.622V900.995H867.122V895.995H867.622V890.995H867.122V885.994H867.622V880.994H867.122V875.993H867.622V870.992H867.122V865.992H867.622V860.992H867.122V855.991H867.622V850.991H867.122V845.99H867.622V840.99H867.122V835.989H867.622V830.989H867.122V825.988H867.622V820.988H867.122V815.987H867.622V810.987H867.122V805.986H867.622V800.986H867.122V795.985H867.622V790.985H867.122V785.984H867.622V780.984H867.122V775.983H867.622V770.983H867.122V765.982H867.622V760.982H867.122V755.981H867.622V750.981H867.122V745.98H867.622V740.98H867.122V735.979H867.622V730.979H867.122V725.978H867.622V720.978H867.122V715.977H867.622V710.977H867.122V705.976H867.622V700.976H867.122V695.975H867.622V690.975H867.122V685.974H867.622V680.974H867.122V675.973H867.622V670.973H867.122V665.972H867.622V660.972H867.122V655.971H867.622V650.971H867.122V645.971H867.622V640.97H867.122V635.97H867.622V630.969H867.122V625.969H867.622V620.968H867.122V615.968H867.622V610.967H867.122V605.967H867.622V600.966H867.122V595.966H867.622V590.965H867.122V585.965H867.622V580.964H867.122V575.964H867.622V570.963H867.122V565.963H867.622V560.962H867.122V555.962H867.622V550.961H867.122V545.961H867.622V540.96H867.122V535.96H867.622V530.959H867.122V525.959H867.622V520.958H867.122V515.958H867.622V510.957H867.122V505.957H867.622V500.956H867.122V495.956H867.622V490.955H867.122V485.955H867.622V480.954H867.122V475.954H867.622V470.953H867.122V465.953H867.622V460.952H867.122V455.952H867.622V450.951H867.122V445.951H867.622V440.95H867.122V435.95H867.622V430.949H867.122V425.949H867.622V420.948H867.122V415.948H867.622V410.948H867.122V405.947H867.622V400.947H867.122V395.946H867.622V390.946H867.122V385.945H867.622V380.945H867.122V375.944H867.622V370.944H867.122V365.943H867.622V360.943H867.122V355.942H867.622V350.942H867.122V345.941H867.622V340.941H867.122V335.94H867.622V333.44C867.622 332.608 867.62 331.78 867.614 330.957L867.114 330.96C867.103 329.315 867.081 327.687 867.048 326.076L867.547 326.065C867.513 324.41 867.468 322.772 867.41 321.152L866.911 321.17C866.853 319.533 866.783 317.913 866.701 316.312L867.201 316.286C867.116 314.626 867.019 312.984 866.909 311.361L866.41 311.395C866.299 309.756 866.175 308.136 866.038 306.535L866.536 306.493C866.395 304.842 866.241 303.212 866.073 301.602L865.575 301.654C865.404 300.01 865.218 298.387 865.018 296.786L865.514 296.724C865.31 295.092 865.092 293.483 864.859 291.895L864.364 291.967C864.123 290.324 863.866 288.704 863.594 287.107L864.087 287.023C863.809 285.39 863.514 283.781 863.203 282.196L862.713 282.293C862.396 280.679 862.063 279.09 861.713 277.527L862.201 277.418C861.838 275.795 861.457 274.198 861.058 272.628L860.574 272.751C860.166 271.146 859.74 269.569 859.294 268.02L859.775 267.882C859.318 266.29 858.841 264.727 858.345 263.193L857.869 263.347C857.362 261.78 856.835 260.243 856.287 258.736L856.757 258.566C856.188 257.001 855.598 255.469 854.986 253.969L854.523 254.158C853.898 252.624 853.249 251.125 852.579 249.659L853.034 249.451C852.343 247.941 851.628 246.467 850.89 245.027L850.445 245.255C849.692 243.787 848.914 242.354 848.112 240.959L848.545 240.71C847.719 239.273 846.867 237.874 845.989 236.513L845.569 236.784C844.675 235.4 843.755 234.055 842.809 232.75L843.214 232.456C842.242 231.116 841.242 229.817 840.215 228.559L839.827 228.875C838.787 227.6 837.718 226.368 836.621 225.178L836.989 224.84C835.868 223.624 834.718 222.452 833.539 221.323L833.193 221.684C832.01 220.55 830.796 219.46 829.554 218.413L829.876 218.03C828.617 216.969 827.328 215.953 826.01 214.98L825.713 215.382C824.4 214.413 823.057 213.487 821.685 212.605L821.956 212.184C820.577 211.297 819.169 210.454 817.732 209.654L817.489 210.09C816.069 209.299 814.621 208.551 813.144 207.844L813.36 207.393C811.887 206.688 810.387 206.025 808.859 205.402L808.671 205.865C807.171 205.254 805.644 204.682 804.09 204.15L804.252 203.677C802.713 203.15 801.149 202.661 799.558 202.21L799.422 202.691C797.867 202.25 796.288 201.845 794.684 201.477L794.795 200.99C793.213 200.626 791.608 200.298 789.979 200.004L789.89 200.496C788.301 200.209 786.689 199.956 785.055 199.735L785.122 199.239C783.513 199.022 781.884 198.836 780.234 198.682L780.187 199.18C778.578 199.029 776.949 198.908 775.3 198.817L775.328 198.318C773.714 198.229 772.082 198.168 770.431 198.135L770.421 198.634C768.81 198.602 767.181 198.596 765.535 198.617L765.528 198.117C764.708 198.127 763.883 198.144 763.054 198.168C762.225 198.191 761.401 198.219 760.581 198.253L760.602 198.753C758.956 198.821 757.327 198.911 755.715 199.023L755.68 198.524C754.033 198.639 752.404 198.776 750.792 198.937L750.842 199.434C749.198 199.598 747.573 199.787 745.967 200L745.901 199.504C744.259 199.722 742.636 199.966 741.033 200.237L741.116 200.73C739.49 201.004 737.884 201.306 736.299 201.635L736.197 201.146C734.577 201.482 732.979 201.848 731.401 202.243L731.523 202.728C729.926 203.128 728.351 203.559 726.798 204.021L726.656 203.541C725.071 204.013 723.51 204.516 721.973 205.052L722.137 205.524C720.585 206.066 719.057 206.641 717.554 207.25L717.366 206.787C715.836 207.407 714.331 208.062 712.852 208.754L713.063 209.207C711.577 209.902 710.117 210.633 708.684 211.401L708.448 210.961C706.995 211.74 705.57 212.556 704.172 213.412L704.433 213.838C703.038 214.692 701.67 215.585 700.33 216.517L700.044 216.107C698.696 217.045 697.376 218.024 696.084 219.042L696.393 219.435C695.114 220.444 693.862 221.493 692.639 222.583L692.307 222.21C691.085 223.298 689.892 224.428 688.728 225.598L689.082 225.95C687.937 227.101 686.82 228.291 685.732 229.522L685.357 229.191C684.277 230.412 683.225 231.673 682.202 232.973L682.595 233.283C681.594 234.554 680.621 235.864 679.675 237.213L679.265 236.926C678.332 238.256 677.426 239.624 676.546 241.031L676.97 241.296C676.114 242.665 675.283 244.071 674.478 245.514L674.042 245.271C673.251 246.688 672.485 248.141 671.745 249.63L672.192 249.853C671.472 251.3 670.776 252.781 670.103 254.297L669.646 254.095C668.991 255.573 668.358 257.083 667.749 258.627L668.214 258.811C667.623 260.306 667.054 261.832 666.507 263.391L666.035 263.225C665.5 264.75 664.985 266.305 664.491 267.891L664.968 268.04C664.488 269.582 664.027 271.154 663.587 272.754L663.105 272.622C662.676 274.181 662.266 275.769 661.875 277.384L662.361 277.502C661.983 279.062 661.623 280.649 661.281 282.262L660.792 282.159C660.457 283.742 660.139 285.35 659.838 286.984L660.33 287.075C660.037 288.667 659.761 290.283 659.501 291.925L659.008 291.847C658.756 293.434 658.521 295.045 658.301 296.679L658.797 296.746C658.582 298.348 658.381 299.972 658.196 301.619L657.699 301.563C657.519 303.172 657.353 304.802 657.201 306.454L657.699 306.5C657.552 308.101 657.419 309.723 657.3 311.365L656.801 311.329C656.683 312.953 656.578 314.598 656.488 316.263L656.987 316.29C656.899 317.891 656.825 319.512 656.763 321.151L656.263 321.132C656.201 322.754 656.152 324.394 656.116 326.053L656.616 326.064C656.58 327.677 656.556 329.307 656.544 330.954L656.044 330.951C656.039 331.776 656.036 332.606 656.036 333.44V335.941H656.536V340.941H656.036V345.942H656.536V350.943H656.036V355.943H656.536V360.943H656.036V365.944H656.536V370.944H656.036V375.945H656.536V380.945H656.036V385.946H656.536V390.947H656.036V395.947H656.536V400.947H656.036V405.948H656.536V410.948H656.036V415.949H656.536V420.949H656.036V425.95H656.536V430.95H656.036V435.951H656.536V440.951H656.036V445.952H656.536V450.952H656.036V455.953H656.536V460.953H656.036V465.954H656.536V470.954H656.036V475.955H656.536V480.955H656.036V485.956H656.536V490.956H656.036V495.957H656.536V500.957H656.036V505.958H656.536V510.958H656.036V515.959H656.536V520.959H656.036V525.96H656.536V530.96H656.036V535.961H656.536V540.961H656.036V545.962H656.536V550.962H656.036V555.963H656.536V560.963H656.036V565.964H656.536V570.964H656.036V575.965H656.536V580.965H656.036V585.966H656.536V590.966H656.036V595.966H656.536V600.967H656.036V605.968H656.536V610.968H656.036V615.968H656.536V620.969H656.036V625.969H656.536V630.97H656.036V635.97H656.536V640.971H656.036V645.971H656.536V650.972H656.036V655.972H656.536V660.973H656.036V665.973H656.536V670.974H656.036V675.974H656.536V680.975H656.036V685.975H656.536V690.976H656.036V695.976H656.536V700.977H656.036V705.977H656.536V710.978H656.036V715.978H656.536V720.979H656.036V725.979H656.536V730.98H656.036V735.98H656.536V740.981H656.036V745.981H656.536V750.982H656.036V755.982H656.536V760.983H656.036V765.983H656.536V770.984H656.036V775.984H656.536V780.985H656.036V785.985H656.536V790.986H656.036V795.986H656.536V800.987H656.036V805.987H656.536V810.987H656.036V815.988H656.536V820.989H656.036V825.989H656.536V830.99H656.036V835.99H656.536V840.99H656.036V845.991H656.536V850.991H656.036V855.992H656.536V860.992H656.036V865.993H656.536V870.993H656.036V875.994H656.536V880.994H656.036V885.995H656.536V890.995H656.036V895.996H656.536V900.996H656.036V905.997H656.536V910.997H656.036V915.998H656.536V920.998H656.036V925.999H656.536V930.999H656.036V936H656.536V941H656.036V946.001H656.536V951.001H656.036V956.002H656.536V961.002H656.036V966.003H656.536V971.003H656.036V976.004H656.536V981.004H656.036V986.005H656.536V991.005H656.036V996.006H656.536V1001.01H656.036V1006.01H656.536V1011.01H656.036V1016.01H656.536V1021.01H656.036V1026.01H656.536V1031.01H656.036V1036.01H656.536V1041.01H656.036V1046.01H656.536V1051.01H656.036V1056.01H656.536V1061.01H656.036V1066.01H656.536V1071.01H656.036V1076.01H656.536V1081.01H656.036V1086.01H656.536V1091.01H656.036V1096.02H656.536V1101.02H656.036V1106.02H656.536V1111.02H656.036V1116.02H656.536V1121.02H656.036V1126.02H656.536V1131.02H656.036V1136.02H656.536V1141.02H656.036V1146.02H656.536V1151.02H656.036V1156.02H656.536V1161.02H656.036V1166.02H656.536V1171.02H656.036V1176.02H656.536V1181.02H656.036V1186.02H656.536V1191.02H656.036V1196.03H656.536V1201.03H656.036V1206.03H656.536V1211.03H656.036V1216.03H656.536V1221.03H656.036V1226.03H656.536V1231.03H656.036V1236.03H656.536V1241.03H656.036V1246.03H656.536V1251.03H656.036V1256.03H656.536V1261.03H656.036V1266.03H656.536V1271.03H656.036V1276.03H656.536V1281.03H656.036V1286.03H656.536V1291.03H656.036V1296.03H656.536V1301.04H656.036V1306.04H656.536V1311.04H656.036V1316.04H656.536V1321.04H656.036V1326.04H656.536V1331.04H656.036V1336.04H656.536V1341.04H656.036V1346.04H656.536V1351.04H656.036V1356.04H656.536V1361.04H656.036V1366.04H656.536V1371.04H656.036V1376.04H656.536V1381.04H656.036V1386.04H656.536V1391.04H656.036V1396.04H656.536V1401.05H656.036V1403.05H654.002V1403.55H648.934V1403.05H643.867V1403.55H638.799V1403.05H633.731V1403.55H628.664V1403.05H623.596V1403.55H618.529V1403.05H613.461V1403.55H608.393V1403.05H603.326V1403.55H598.258V1403.05H593.191V1403.55H588.123V1403.05H583.055V1403.55H577.988V1403.05H572.92V1403.55H567.853V1403.05H562.785V1403.55H557.717V1403.05H552.65V1403.55H547.582V1403.05H542.515V1403.55H537.447V1403.05H532.379V1403.55H527.312V1403.05H522.244V1403.55H517.177V1403.05H512.109V1403.55H507.041V1403.05H501.974V1403.55H496.906V1403.05H491.839V1403.55H486.771V1403.05H481.703V1403.55H476.636V1403.05H471.568V1403.55H466.501V1403.05H461.433V1403.55H456.365V1403.05H451.298V1403.55H446.23V1403.05H441.163V1403.55H436.095V1403.05H434.061V1401.04H433.561V1396.04H434.061V1391.04H433.561V1386.04H434.061V1381.04H433.561V1376.04H434.061V1371.04H433.561V1366.04H434.061V1361.04H433.561V1356.04H434.061V1351.04H433.561V1346.04H434.061V1341.04H433.561V1336.04H434.061V1331.04H433.561V1326.04H434.061V1321.04H433.561V1316.04H434.061V1311.04H433.561V1306.04H434.061V1301.03H433.561V1296.03H434.061V1291.03H433.561V1286.03H434.061V1281.03H433.561V1276.03H434.061V1271.03H433.561V1266.03H434.061V1261.03H433.561V1256.03H434.061V1251.03H433.561V1246.03H434.061V1241.03H433.561V1236.03H434.061V1231.03H433.561V1226.03H434.061V1221.03H433.561V1216.03H434.061V1211.03H433.561V1206.03H434.061V1201.02H433.561V1196.02H434.061V1191.02H433.561V1186.02H434.061V1181.02H433.561V1176.02H434.061V1171.02H433.561V1166.02H434.061V1161.02H433.561V1156.02H434.061V1151.02H433.561V1146.02H434.061V1141.02H433.561V1136.02H434.061V1131.02H433.561V1126.02H434.061V1121.02H433.561V1116.02H434.061V1111.02H433.561V1106.02H434.061V1101.02H433.561V1096.01H434.061V1091.01H433.561V1086.01H434.061V1081.01H433.561V1076.01H434.061V1071.01H433.561V1066.01H434.061V1061.01H433.561V1056.01H434.061V1051.01H433.561V1046.01H434.061V1041.01H433.561V1036.01H434.061V1031.01H433.561V1026.01H434.061V1021.01H433.561V1016.01H434.061V1011.01H433.561V1006.01H434.061V1001.01H433.561V996.005H434.061V991.004H433.561V986.004H434.061V981.003H433.561V976.003H434.061V971.002H433.561V966.002H434.061V961.001H433.561V956.001H434.061V951H433.561V946H434.061V940.999H433.561V935.999H434.061V930.998H433.561V925.998H434.061V920.997H433.561V915.997H434.061V910.996H433.561V905.996H434.061V900.995H433.561V895.995H434.061V890.995H433.561V885.994H434.061V880.994H433.561V875.993H434.061V870.992H433.561V865.992H434.061V860.992H433.561V855.991H434.061V850.991H433.561V845.99H434.061V840.99H433.561V835.989H434.061V830.989H433.561V825.988H434.061V820.988H433.561V815.987H434.061V810.987H433.561V805.986H434.061V800.986H433.561V795.985H434.061V790.985H433.561V785.984H434.061V780.984H433.561V775.983H434.061V770.983H433.561V765.982H434.061V760.982H433.561V755.981H434.061V750.981H433.561V745.98H434.061V740.98H433.561V735.979H434.061V730.979H433.561V725.978H434.061V720.978H433.561V715.977H434.061V710.977H433.561V705.976H434.061V700.976H433.561V695.975H434.061V690.975H433.561V685.974H434.061V680.974H433.561V675.973H434.061V670.973H433.561V665.972H434.061V660.972H433.561V655.971H434.061V650.971H433.561V645.971H434.061V640.97H433.561V635.97H434.061V630.969H433.561V625.969H434.061V620.968H433.561V615.968H434.061V610.967H433.561V605.967H434.061V600.966H433.561V595.966H434.061V590.965H433.561V585.965H434.061V580.964H433.561V575.964H434.061V570.963H433.561V565.963H434.061V560.962H433.561V555.962H434.061V550.961H433.561V545.961H434.061V540.96H433.561V535.96H434.061V530.959H433.561V525.959H434.061V520.958H433.561V515.958H434.061V510.957H433.561V505.957H434.061V500.956H433.561V495.956H434.061V490.955H433.561V485.955H434.061V480.954H433.561V475.954H434.061V470.953H433.561V465.953H434.061V460.952H433.561V455.952H434.061V450.951H433.561V445.951H434.061V440.95H433.561V435.95H434.061V430.949H433.561V425.949H434.061V420.948H433.561V415.948H434.061V410.948H433.561V405.947H434.061V400.947H433.561V395.946H434.061V390.946H433.561V385.945H434.061V380.945H433.561V375.944H434.061V370.944H433.561V365.943H434.061V360.943H433.561V355.942H434.061V350.942H433.561V345.941H434.061V340.941H433.561V335.94H434.061V333.44C434.061 332.593 434.058 331.75 434.051 330.911L433.551 330.915C433.538 329.241 433.512 327.583 433.474 325.944L433.973 325.932C433.933 324.245 433.88 322.577 433.813 320.926L433.313 320.947C433.246 319.282 433.164 317.635 433.069 316.007L433.568 315.978C433.469 314.286 433.356 312.614 433.227 310.961L432.729 311C432.599 309.329 432.455 307.679 432.295 306.049L432.793 306C432.629 304.325 432.45 302.672 432.255 301.039L431.759 301.098C431.559 299.424 431.343 297.772 431.11 296.143L431.605 296.072C431.369 294.411 431.115 292.772 430.845 291.156L430.352 291.239C430.074 289.578 429.779 287.941 429.466 286.328L429.957 286.233C429.635 284.573 429.295 282.939 428.937 281.331L428.449 281.439C428.084 279.802 427.7 278.19 427.298 276.605L427.783 276.482C427.368 274.849 426.934 273.244 426.481 271.665L426 271.803C425.534 270.181 425.046 268.587 424.539 267.023L425.014 266.868C424.493 265.262 423.95 263.686 423.386 262.139L422.916 262.311C422.341 260.733 421.743 259.187 421.123 257.672L421.586 257.483C420.949 255.924 420.288 254.399 419.604 252.905L419.15 253.113C418.448 251.581 417.722 250.082 416.972 248.618L417.417 248.39C416.647 246.886 415.851 245.417 415.031 243.984L414.597 244.232C413.762 242.774 412.902 241.353 412.016 239.969L412.437 239.7C411.529 238.28 410.593 236.898 409.631 235.554L409.225 235.845C408.249 234.482 407.247 233.16 406.218 231.876L406.608 231.563C405.556 230.25 404.476 228.978 403.368 227.745L402.996 228.08C401.879 226.837 400.734 225.635 399.561 224.474L399.913 224.119C398.719 222.938 397.498 221.799 396.248 220.702L395.918 221.078C394.666 219.978 393.386 218.921 392.078 217.905L392.384 217.51C391.062 216.483 389.712 215.499 388.334 214.557L388.051 214.97C386.68 214.032 385.281 213.136 383.856 212.282L384.113 211.853C382.682 210.996 381.224 210.18 379.74 209.405L379.509 209.849C378.041 209.083 376.547 208.357 375.028 207.672L375.234 207.216C373.719 206.533 372.178 205.889 370.613 205.284L370.433 205.751C368.893 205.156 367.329 204.599 365.741 204.08L365.896 203.605C364.321 203.09 362.722 202.612 361.101 202.171L360.97 202.653C359.379 202.221 357.767 201.823 356.133 201.461L356.242 200.973C354.626 200.615 352.989 200.291 351.332 200L351.246 200.493C349.624 200.209 347.981 199.957 346.319 199.738L346.385 199.242C344.745 199.026 343.086 198.84 341.408 198.686L341.362 199.184C339.722 199.033 338.064 198.912 336.388 198.82L336.415 198.321C334.769 198.231 333.107 198.169 331.428 198.135L331.418 198.635C329.774 198.602 328.115 198.596 326.441 198.617L326.435 198.117C325.6 198.127 324.761 198.144 323.918 198.168C323.088 198.191 322.261 198.219 321.438 198.253L321.459 198.752C319.809 198.82 318.175 198.909 316.559 199.02L316.525 198.521C314.874 198.634 313.24 198.77 311.624 198.929L311.673 199.427C310.024 199.589 308.393 199.775 306.782 199.987L306.717 199.491C305.07 199.707 303.442 199.948 301.834 200.215L301.916 200.709C300.285 200.98 298.674 201.278 297.084 201.604L296.983 201.115C295.358 201.448 293.754 201.81 292.172 202.201L292.292 202.686C290.689 203.082 289.108 203.508 287.55 203.965L287.409 203.486C285.819 203.952 284.252 204.451 282.708 204.982L282.871 205.455C281.311 205.991 279.777 206.561 278.267 207.165L278.081 206.7C276.544 207.315 275.032 207.965 273.546 208.651L273.755 209.105C272.261 209.794 270.793 210.52 269.352 211.283L269.118 210.841C267.657 211.614 266.223 212.425 264.817 213.275L265.075 213.703C263.671 214.552 262.294 215.44 260.946 216.366L260.662 215.954C259.304 216.888 257.975 217.861 256.674 218.875L256.982 219.269C255.692 220.274 254.431 221.318 253.2 222.404L252.869 222.029C251.637 223.114 250.435 224.239 249.261 225.405L249.613 225.76C248.459 226.908 247.332 228.095 246.234 229.324L245.862 228.99C244.772 230.209 243.711 231.468 242.678 232.767L243.07 233.078C242.06 234.348 241.077 235.657 240.122 237.006L239.714 236.717C238.773 238.047 237.858 239.415 236.97 240.822L237.393 241.088C236.528 242.458 235.689 243.865 234.877 245.309L234.441 245.064C233.643 246.483 232.869 247.937 232.121 249.428L232.568 249.652C231.841 251.101 231.138 252.585 230.46 254.104L230.003 253.9C229.342 255.378 228.705 256.889 228.09 258.434L228.555 258.619C227.958 260.117 227.384 261.647 226.832 263.209L226.36 263.042C225.82 264.571 225.3 266.13 224.802 267.72L225.279 267.869C224.794 269.415 224.329 270.991 223.885 272.596L223.403 272.462C222.971 274.024 222.557 275.614 222.164 277.232L222.649 277.35C222.268 278.915 221.905 280.506 221.561 282.124L221.072 282.02C220.734 283.607 220.413 285.221 220.11 286.86L220.601 286.951C220.307 288.545 220.028 290.165 219.767 291.81L219.273 291.731C219.02 293.324 218.783 294.939 218.562 296.579L219.057 296.645C218.84 298.252 218.638 299.881 218.452 301.533L217.955 301.477C217.773 303.089 217.606 304.724 217.453 306.379L217.951 306.425C217.803 308.031 217.669 309.657 217.549 311.305L217.051 311.268C216.932 312.897 216.827 314.547 216.735 316.216L217.235 316.244C217.147 317.849 217.071 319.473 217.009 321.117L216.509 321.098C216.447 322.724 216.398 324.369 216.361 326.033L216.861 326.044C216.825 327.661 216.802 329.295 216.79 330.948L216.29 330.944C216.284 331.771 216.281 332.603 216.281 333.44V335.941H216.781V340.941H216.281V345.942H216.781V350.943H216.281V355.943H216.781V360.943H216.281V365.944H216.781V370.944H216.281V375.945H216.781V380.945H216.281V385.946H216.781V390.947H216.281V395.947H216.781V400.947H216.281V405.948H216.781V410.948H216.281V415.949H216.781V420.949H216.281V425.95H216.781V430.95H216.281V435.951H216.781V440.951H216.281V445.952H216.781V450.952H216.281V455.953H216.781V460.953H216.281V465.954H216.781V470.954H216.281V475.955H216.781V480.955H216.281V485.956H216.781V490.956H216.281V495.957H216.781V500.957H216.281V505.958H216.781V510.958H216.281V515.959H216.781V520.959H216.281V525.96H216.781V530.96H216.281V535.961H216.781V540.961H216.281V545.962H216.781V550.962H216.281V555.963H216.781V560.963H216.281V565.964H216.781V570.964H216.281V575.965H216.781V580.965H216.281V585.966H216.781V590.966H216.281V595.966H216.781V600.967H216.281V605.968H216.781V610.968H216.281V615.968H216.781V620.969H216.281V625.969H216.781V630.97H216.281V635.97H216.781V640.971H216.281V645.971H216.781V650.972H216.281V655.972H216.781V660.973H216.281V665.973H216.781V670.974H216.281V675.974H216.781V680.975H216.281V685.975H216.781V690.976H216.281V695.976H216.781V700.977H216.281V705.977H216.781V710.978H216.281V715.978H216.781V720.979H216.281V725.979H216.781V730.98H216.281V735.98H216.781V740.981H216.281V745.981H216.781V750.982H216.281V755.982H216.781V760.983H216.281V765.983H216.781V770.984H216.281V775.984H216.781V780.985H216.281V785.985H216.781V790.986H216.281V795.986H216.781V800.987H216.281V805.987H216.781V810.987H216.281V815.988H216.781V820.989H216.281V825.989H216.781V830.99H216.281V835.99H216.781V840.99H216.281V845.991H216.781V850.991H216.281V855.992H216.781V860.992H216.281V865.993H216.781V870.993H216.281V875.994H216.781V880.994H216.281V885.995H216.781V890.995H216.281V895.996H216.781V900.996H216.281V905.997H216.781V910.997H216.281V915.998H216.781V920.998H216.281V925.999H216.781V930.999H216.281V936H216.781V941H216.281V946.001H216.781V951.001H216.281V956.002H216.781V961.002H216.281V966.003H216.781V971.003H216.281V976.004H216.781V981.004H216.281V986.005H216.781V991.005H216.281V996.006H216.781V1001.01H216.281V1006.01H216.781V1011.01H216.281V1016.01H216.781V1021.01H216.281V1026.01H216.781V1031.01H216.281V1036.01H216.781V1041.01H216.281V1046.01H216.781V1051.01H216.281V1056.01H216.781V1061.01H216.281V1066.01H216.781V1071.01H216.281V1076.01H216.781V1081.01H216.281V1086.01H216.781V1091.01H216.281V1096.02H216.781V1101.02H216.281V1106.02H216.781V1111.02H216.281V1116.02H216.781V1121.02H216.281V1126.02H216.781V1131.02H216.281V1136.02H216.781V1141.02H216.281V1146.02H216.781V1151.02H216.281V1156.02H216.781V1161.02H216.281V1166.02H216.781V1171.02H216.281V1176.02H216.781V1181.02H216.281V1186.02H216.781V1191.02H216.281V1196.03H216.781V1201.03H216.281V1206.03H216.781V1211.03H216.281V1216.03H216.781V1221.03H216.281V1226.03H216.781V1231.03H216.281V1236.03H216.781V1241.03H216.281V1246.03H216.781V1251.03H216.281V1256.03H216.781V1261.03H216.281V1266.03H216.781V1271.03H216.281V1276.03H216.781V1281.03H216.281V1286.03H216.781V1291.03H216.281V1296.03H216.781V1301.04H216.281V1306.04H216.781V1311.04H216.281V1316.04H216.781V1321.04H216.281V1326.04H216.781V1331.04H216.281V1336.04H216.781V1341.04H216.281V1346.04H216.781V1351.04H216.281V1356.04H216.781V1361.04H216.281V1366.04H216.781V1371.04H216.281V1376.04H216.781V1381.04H216.281V1386.04H216.781V1391.04H216.281V1396.04H216.781V1401.05H216.281V1403.05H214.317V1403.55H209.39V1403.05H204.464V1403.55H199.537V1403.05H194.61V1403.55H189.683V1403.05H184.756V1403.55H179.829V1403.05H174.903V1403.55H169.976V1403.05H165.049V1403.55H160.122V1403.05H155.195V1403.55H150.268V1403.05H145.342V1403.55H140.415V1403.05H135.488V1403.55H130.561V1403.05H125.634V1403.55H120.707V1403.05H115.781V1403.55H110.854V1403.05H105.927V1403.55H101V1403.05H96.0732V1403.55H91.1464V1403.05H86.2196V1403.55H81.2927V1403.05H76.3659V1403.55H71.4391V1403.05H66.5122V1403.55H61.5854V1403.05H56.6586V1403.55H51.7317V1403.05H46.8049V1403.55H41.8781V1403.05H36.9512V1403.55H32.0244V1403.05H27.0976V1403.55H22.1707V1403.05H17.2439V1403.55H12.3171V1403.05H7.39025V1403.55H2.46342V1403.05H0.5V1401.04H0V1396.04H0.5V1391.04H0V1386.04H0.5V1381.04H0V1376.04H0.5V1371.04H0V1366.04H0.5V1361.04H0V1356.04H0.5V1351.04H0V1346.04H0.5V1341.04H0V1336.04H0.5V1331.04H0V1326.04H0.5V1321.04H0V1316.04H0.5V1311.04H0V1306.04H0.5V1301.03H0V1296.03H0.5V1291.03H0V1286.03H0.5V1281.03H0V1276.03H0.5V1271.03H0V1266.03H0.5V1261.03H0V1256.03H0.5V1251.03H0V1246.03H0.5V1241.03H0V1236.03H0.5V1231.03H0V1226.03H0.5V1221.03H0V1216.03H0.5V1211.03H0V1206.03H0.5V1201.02H0V1196.02H0.5V1191.02H0V1186.02H0.5V1181.02H0V1176.02H0.5V1171.02H0V1166.02H0.5V1161.02H0V1156.02H0.5V1151.02H0V1146.02H0.5V1141.02H0V1136.02H0.5V1131.02H0V1126.02H0.5V1121.02H0V1116.02H0.5V1111.02H0V1106.02H0.5V1101.02H0V1096.01H0.5V1091.01H0V1086.01H0.5V1081.01H0V1076.01H0.5V1071.01H0V1066.01H0.5V1061.01H0V1056.01H0.5V1051.01H0V1046.01H0.5V1041.01H0V1036.01H0.5V1031.01H0V1026.01H0.5V1021.01H0V1016.01H0.5V1011.01H0V1006.01H0.5V1001.01H0V996.005H0.5V991.004H0V986.004H0.5V981.003H0V976.003H0.5V971.002H0V966.002H0.5V961.001H0V956.001H0.5V951H0V946H0.5V940.999H0V935.999H0.5V930.998H0V925.998H0.5V920.997H0V915.997H0.5V910.996H0V905.996H0.5V900.995H0V895.995H0.5V890.995H0V885.994H0.5V880.994H0V875.993H0.5V870.992H0V865.992H0.5V860.992H0V855.991H0.5V850.991H0V845.99H0.5V840.99H0V835.989H0.5V830.989H0V825.988H0.5V820.988H0V815.987H0.5V810.987H0V805.986H0.5V800.986H0V795.985H0.5V790.985H0V785.984H0.5V780.984H0V775.983H0.5V770.983H0V765.982H0.5V760.982H0V755.981H0.5V750.981H0V745.98H0.5V740.98H0V735.979H0.5V730.979H0V725.978H0.5V720.978H0V715.977H0.5V710.977H0V705.976H0.5V700.976H0V695.975H0.5V690.975H0V685.974H0.5V680.974H0V675.973H0.5V670.973H0V665.972H0.5V660.972H0V655.971H0.5V650.971H0V645.971H0.5V640.97H0V635.97H0.5V630.969H0V625.969H0.5V620.968H0V615.968H0.5V610.967H0V605.967H0.5V600.966H0V595.966H0.5V590.965H0V585.965H0.5V580.964H0V575.964H0.5V570.963H0V565.963H0.5V560.962H0V555.962H0.5V550.961H0V545.961H0.5V540.96H0V535.96H0.5V530.959H0V525.959H0.5V520.958H0V515.958H0.5V510.957H0V505.957H0.5V500.956H0V495.956H0.5V490.955H0V485.955H0.5V480.954H0V475.954H0.5V470.953H0V465.953H0.5V460.952H0V455.952H0.5V450.951H0V445.951H0.5V440.95H0V435.95H0.5V430.949H0V425.949H0.5V420.948H0V415.948H0.5V410.948H0V405.947H0.5V400.947H0V395.946H0.5V390.946H0V385.945H0.5V380.945H0V375.944H0.5V370.944H0V365.943H0.5V360.943H0V355.942H0.5V350.942H0V345.941H0.5V340.941H0V335.94H0.5V333.443C0.512123 332.6 0.52583 331.758 0.541123 330.918L0.0412052 330.909C0.0718623 329.224 0.108885 327.546 0.152276 325.874L0.652108 325.887C0.695465 324.215 0.745184 322.55 0.801268 320.891L0.301554 320.875C0.357682 319.214 0.420179 317.56 0.489049 315.912L0.988614 315.933C1.05844 314.262 1.13481 312.597 1.21775 310.939L0.718371 310.914C0.802497 309.231 0.893365 307.556 0.990976 305.886L1.49012 305.915C1.58765 304.247 1.69192 302.586 1.80292 300.931L1.30405 300.897C1.41515 299.241 1.53299 297.591 1.65759 295.947L2.15616 295.985C2.2829 294.313 2.41663 292.648 2.55735 290.989L2.05914 290.947C2.20139 289.27 2.35077 287.601 2.5073 285.938L3.0051 285.985C3.16147 284.323 3.32498 282.669 3.49563 281.021L2.99829 280.97C3.16909 279.321 3.34704 277.679 3.53214 276.043L4.02896 276.099C4.2184 274.426 4.41533 272.759 4.61974 271.1L4.12349 271.039C4.32881 269.372 4.54169 267.713 4.76211 266.061L5.25772 266.127C5.47792 264.477 5.70567 262.834 5.94097 261.198L5.44606 261.127C5.68296 259.48 5.92751 257.84 6.1797 256.208L6.67384 256.284C6.93121 254.619 7.19655 252.961 7.46986 251.311L6.97658 251.229C7.25019 249.577 7.53178 247.933 7.82136 246.297L8.31371 246.384C8.60297 244.749 8.9002 243.122 9.20542 241.503L8.71407 241.411C9.02491 239.762 9.34401 238.121 9.67139 236.488L10.1616 236.586C10.4917 234.94 10.8302 233.302 11.1771 231.672L10.6881 231.568C11.0354 229.936 11.3911 228.312 11.7553 226.697L12.2431 226.807C12.6084 225.186 12.9823 223.574 13.3646 221.97L12.8782 221.854C13.2693 220.214 13.6692 218.582 14.078 216.959L14.5628 217.081C14.9711 215.46 15.3883 213.848 15.8143 212.245L15.331 212.116C15.7576 210.511 16.1931 208.914 16.6374 207.326L17.1189 207.46C17.5714 205.843 18.033 204.235 18.5038 202.637L18.0242 202.495C18.4982 200.886 18.9815 199.286 19.4742 197.695L19.9518 197.842C20.4438 196.254 20.9451 194.674 21.4557 193.104L20.9802 192.949C21.4974 191.359 22.024 189.778 22.5603 188.206L23.0335 188.367C23.5754 186.779 24.1271 185.201 24.6886 183.632L24.2178 183.464C24.7801 181.892 25.3523 180.331 25.9342 178.779L26.4023 178.955C26.9866 177.397 27.5807 175.849 28.1847 174.31L27.7193 174.128C28.334 172.562 28.959 171.007 29.5942 169.461L30.0566 169.651C30.6909 168.108 31.3353 166.576 31.9899 165.053L31.5306 164.856C32.1875 163.328 32.8547 161.81 33.5322 160.303L33.9883 160.508C34.6767 158.976 35.3758 157.455 36.0856 155.945L35.633 155.732C36.344 154.219 37.0656 152.716 37.7978 151.225L38.2467 151.445C38.9777 149.956 39.7194 148.477 40.4717 147.009L40.0267 146.781C40.7934 145.285 41.5712 143.8 42.36 142.326L42.8008 142.562C43.5883 141.091 44.3868 139.63 45.1963 138.181L44.7598 137.937C45.5708 136.485 46.3928 135.044 47.226 133.614L47.658 133.866C48.5013 132.419 49.3559 130.983 50.2219 129.559L49.7947 129.299C50.6629 127.871 51.5426 126.454 52.4337 125.049L52.8559 125.317C53.7453 123.914 54.646 122.523 55.5582 121.143L55.1411 120.868C56.0653 119.47 57.0012 118.083 57.9488 116.709L58.3605 116.993C59.3068 115.62 60.2647 114.26 61.2344 112.911L60.8284 112.619C61.7999 111.267 62.7831 109.927 63.7781 108.6L64.1782 108.899C65.1798 107.563 66.1932 106.238 67.2185 104.925L66.8244 104.617C67.8519 103.302 68.8913 101.998 69.9427 100.707L70.3304 101.023C71.3799 99.7336 72.4412 98.4566 73.5145 97.1917L73.1332 96.8682C74.2142 95.5942 75.3073 94.3324 76.4125 93.0829L76.787 93.4141C77.8899 92.1672 79.0048 90.9324 80.1317 89.71L79.7641 89.3711C80.8936 88.1458 82.0352 86.9329 83.1889 85.7322L83.5494 86.0787C84.7027 84.8784 85.8681 83.6906 87.0455 82.515L86.6923 82.1612C87.8722 80.9832 89.0642 79.8177 90.2684 78.6645L90.6142 79.0256C91.8155 77.8752 93.0289 76.7372 94.2543 75.6116L93.9161 75.2434C95.1426 74.1168 96.3811 73.0027 97.6318 71.901L97.9623 72.2762C99.2104 71.1767 100.471 70.0897 101.743 69.0151L101.42 68.6331C102.693 67.5578 103.978 66.4949 105.275 65.4445L105.59 65.833C106.88 64.7886 108.182 63.7565 109.495 62.7367L109.189 62.3417C110.505 61.3198 111.833 60.3103 113.174 59.3131L113.472 59.7143C114.806 58.7222 116.152 57.7423 117.509 56.7747L117.219 56.3676C118.571 55.4035 119.936 54.4516 121.312 53.5119L121.594 53.9249C122.967 52.9871 124.353 52.0615 125.75 51.1481L125.476 50.7296C126.87 49.8186 128.275 48.9197 129.692 48.033L129.957 48.4568C131.36 47.5783 132.776 46.7118 134.202 45.8572L133.945 45.4283C135.375 44.572 136.816 43.7278 138.269 42.8956L138.517 43.3294C139.959 42.5036 141.411 41.6896 142.876 40.8875L142.635 40.449C144.089 39.6528 145.554 38.8682 147.029 38.0954L147.261 38.5384C148.734 37.767 150.219 37.0073 151.714 36.2593L151.491 35.8122C152.98 35.0673 154.48 34.3341 155.991 33.6125L156.207 34.0637C157.698 33.3519 159.199 32.6513 160.712 31.9621L160.504 31.5072C162.019 30.8167 163.545 30.1377 165.082 29.4699L165.282 29.9285C166.808 29.2653 168.345 28.6133 169.893 27.9725L169.702 27.5105C171.229 26.8786 172.766 26.2576 174.313 25.6476L174.496 26.1128C176.041 25.5037 177.597 24.9057 179.162 24.3185L178.987 23.8504C180.552 23.2633 182.128 22.6872 183.714 22.122L183.882 22.593C185.432 22.0405 186.993 21.4985 188.563 20.9669L188.403 20.4933C189.976 19.9609 191.559 19.4391 193.152 18.9277L193.304 19.4038C194.895 18.8933 196.495 18.3932 198.105 17.9037L197.96 17.4253C199.539 16.9452 201.128 16.4752 202.727 16.0154L202.865 16.4959C204.455 16.0385 206.054 15.5912 207.663 15.1539L207.532 14.6714C209.143 14.2335 210.763 13.8056 212.393 13.3879L212.518 13.8722C214.123 13.4608 215.738 13.0591 217.361 12.6673L217.244 12.1812C218.85 11.7938 220.464 11.4159 222.088 11.0477L222.198 11.5353C223.82 11.1675 225.45 10.8093 227.089 10.4607L226.985 9.97164C228.622 9.6237 230.267 9.2853 231.921 8.95646L232.018 9.44686C233.63 9.12648 235.25 8.81518 236.879 8.51297L236.788 8.02136C238.419 7.71876 240.058 7.42528 241.706 7.14092L241.791 7.63364C243.436 7.34964 245.091 7.07474 246.753 6.80897L246.675 6.31524C248.31 6.05382 249.954 5.80122 251.606 5.55746L251.679 6.05211C253.31 5.81138 254.95 5.57928 256.598 5.35582L256.53 4.86035C258.18 4.63663 259.837 4.42155 261.503 4.21513L261.564 4.71133C263.228 4.50518 264.899 4.30767 266.579 4.11881L266.523 3.62195C268.155 3.43844 269.795 3.2631 271.442 3.09594L271.492 3.59339C273.138 3.42641 274.791 3.2676 276.451 3.11697L276.406 2.61902C278.068 2.46822 279.738 2.32562 281.416 2.19122L281.456 2.68963C283.117 2.55653 284.786 2.43149 286.462 2.31451L286.427 1.81572C288.069 1.70116 289.717 1.59432 291.373 1.49522L291.403 1.99433C293.057 1.89532 294.718 1.80404 296.387 1.7205L296.362 1.22113C298.032 1.13751 299.709 1.06163 301.394 0.993508L301.414 1.4931C303.073 1.42599 304.74 1.36641 306.413 1.31438L306.397 0.814624C308.044 0.763427 309.697 0.719527 311.357 0.682934L311.368 1.18281C313.026 1.14625 314.691 1.11699 316.363 1.09504L316.357 0.595084C318.03 0.573114 319.71 0.55846 321.397 0.551132L321.399 1.05113C322.242 1.04747 323.086 1.04563 323.932 1.04563H323.946L323.961 1.04482C324.805 0.996548 325.65 0.951496 326.494 0.90966L326.47 0.410272C328.161 0.326469 329.852 0.255548 331.543 0.19747L331.56 0.697175C333.251 0.639082 334.941 0.593856 336.631 0.561458L336.621 0.0615492C338.315 0.0290689 340.008 0.00946111 341.7 0.00268474L341.702 0.502681C343.393 0.495908 345.083 0.501972 346.772 0.52083L346.778 0.020861C348.472 0.0397722 350.164 0.071531 351.856 0.116096L351.843 0.615923C353.534 0.660466 355.223 0.717823 356.912 0.787952L356.932 0.288383C358.625 0.35867 360.315 0.441767 362.005 0.537633L361.976 1.03683C363.665 1.13264 365.352 1.24123 367.037 1.36255L367.073 0.863838C368.762 0.985455 370.45 1.11985 372.136 1.26698L372.093 1.76508C373.777 1.91208 375.46 2.0718 377.141 2.24422L377.192 1.74683C378.877 1.91961 380.559 2.10511 382.24 2.30329L382.181 2.79985C383.861 2.99791 385.538 3.20866 387.214 3.43204L387.28 2.93643C388.958 3.16025 390.635 3.39674 392.309 3.64587L392.235 4.14042C393.908 4.38928 395.578 4.65077 397.245 4.92483L397.326 4.43145C398.997 4.70609 400.666 4.99334 402.332 5.29317L402.243 5.78526C403.907 6.08474 405.569 6.39679 407.227 6.72136L407.323 6.23066C408.985 6.55581 410.644 6.8935 412.3 7.24369L412.197 7.73288C413.851 8.08266 415.502 8.44495 417.15 8.81968L417.261 8.33212C418.912 8.70751 420.56 9.09537 422.205 9.49566L422.087 9.98148C423.729 10.3812 425.369 10.7934 427.005 11.218L427.13 10.734C428.769 11.1592 430.405 11.5968 432.037 12.0468L431.904 12.5288C433.533 12.9782 435.16 13.4399 436.782 13.9139L436.923 13.4339C438.548 13.9086 440.169 14.3956 441.787 14.8949L441.639 15.3726C443.254 15.8712 444.866 16.3819 446.474 16.9049L446.628 16.4294C448.238 16.9531 449.844 17.489 451.446 18.0371L451.284 18.5102C452.883 19.0574 454.479 19.6168 456.07 20.1882L456.239 19.7177C457.832 20.2899 459.421 20.8742 461.005 21.4707L460.829 21.9386C462.411 22.534 463.989 23.1415 465.562 23.7609L465.745 23.2957C467.32 23.9159 468.891 24.5481 470.456 25.1922L470.266 25.6546C471.829 26.2977 473.388 26.9526 474.941 27.6195L475.139 27.1601C476.694 27.8277 478.245 28.5073 479.791 29.1987L479.587 29.6551C481.129 30.3451 482.667 31.0469 484.2 31.7605L484.411 31.3073C485.945 32.0216 487.474 32.7478 488.999 33.4858L488.781 33.9358C490.302 34.6723 491.818 35.4205 493.329 36.1805L493.554 35.7338C495.065 36.4942 496.572 37.2663 498.073 38.05L497.842 38.4933C499.339 39.2753 500.832 40.069 502.319 40.8743L502.557 40.4346C504.045 41.2406 505.528 42.0582 507.005 42.8873L506.76 43.3233C508.234 44.1503 509.702 44.9888 511.164 45.8389L511.415 45.4066C512.878 46.257 514.335 47.1189 515.786 47.9922L515.528 48.4206C516.976 49.292 518.418 50.1747 519.853 51.0687L520.118 50.6443C521.554 51.5387 522.985 52.4445 524.409 53.3616L524.138 53.782C525.559 54.6964 526.973 55.6221 528.381 56.5591L528.658 56.1428C530.066 57.0802 531.469 58.0288 532.865 58.9886L532.581 59.4006C533.974 60.358 535.36 61.3264 536.739 62.306L537.029 61.8983C538.408 62.8775 539.781 63.8678 541.147 64.8691L540.851 65.2724C541.533 65.7722 542.213 66.2748 542.892 66.7802L543.19 67.0023L543.488 66.7806C544.168 66.2762 544.848 65.7746 545.531 65.2757L545.236 64.872C546.603 63.8727 547.977 62.8843 549.357 61.9069L549.646 62.3149C551.026 61.3373 552.413 60.3707 553.806 59.4151L553.524 59.0028C554.921 58.0448 556.324 57.098 557.733 56.1623L558.01 56.5789C559.419 55.6437 560.833 54.7197 562.255 53.8069L561.984 53.3862C563.409 52.4708 564.841 51.5667 566.278 50.6738L566.542 51.0985C567.978 50.2061 569.421 49.3249 570.869 48.4551L570.612 48.0265C572.063 47.1547 573.521 46.2943 574.984 45.4453L575.235 45.8778C576.698 45.0292 578.166 44.1921 579.64 43.3664L579.396 42.9302C580.873 42.1025 582.356 41.2862 583.845 40.4816L584.083 40.9214C585.57 40.1174 587.063 39.325 588.561 38.5441L588.33 38.1007C589.831 37.3182 591.338 36.5473 592.85 35.788L593.075 36.2348C594.586 35.476 596.102 34.7288 597.624 33.9934L597.406 33.5432C598.93 32.8063 600.46 32.0811 601.994 31.3677L602.205 31.8211C603.738 31.1084 605.276 30.4075 606.819 29.7184L606.615 29.2619C608.161 28.5713 609.712 27.8926 611.267 27.2258L611.464 27.6853C613.018 27.0192 614.576 26.3649 616.14 25.7226L615.95 25.2601C617.515 24.6167 619.086 23.9851 620.661 23.3656L620.844 23.8308C622.417 23.212 623.994 22.6051 625.576 22.0102L625.4 21.5422C626.985 20.9462 628.574 20.3624 630.167 19.7905L630.336 20.2611C631.927 19.6901 633.522 19.1311 635.121 18.5842L634.959 18.1111C636.561 17.5633 638.166 17.0277 639.776 16.5042L639.931 16.9797C641.538 16.457 643.149 15.9464 644.764 15.448L644.617 14.9702C646.234 14.4711 647.856 13.9841 649.48 13.5095L649.621 13.9894C651.243 13.5155 652.869 13.0537 654.498 12.6043L654.365 12.1223C655.997 11.6723 657.632 11.2345 659.271 10.8091L659.396 11.2931C661.032 10.8683 662.671 10.456 664.314 10.0559L664.195 9.57014C665.84 9.16957 667.487 8.78139 669.138 8.40563L669.249 8.89316C670.897 8.51805 672.548 8.15535 674.201 7.80509L674.098 7.31594C675.754 6.96527 677.412 6.62706 679.073 6.30133L679.17 6.79199C680.828 6.46685 682.489 6.15417 684.153 5.85401L684.064 5.36195C685.729 5.06145 687.398 4.77347 689.068 4.49805L689.15 4.99139C690.817 4.71655 692.486 4.45423 694.158 4.20449L694.084 3.70998C695.758 3.45997 697.434 3.22254 699.112 2.99773L699.179 3.4933C700.854 3.26893 702.531 3.05714 704.21 2.85799L704.151 2.36147C705.831 2.1622 707.513 1.97555 709.198 1.80158L709.249 2.29893C710.93 2.12532 712.612 1.96435 714.296 1.81605L714.252 1.31798C715.938 1.16956 717.626 1.03381 719.315 0.910789L719.351 1.40947C721.036 1.28675 722.722 1.17671 724.411 1.07939L724.382 0.58022C726.071 0.482848 727.761 0.398192 729.453 0.326295L729.474 0.825843C731.162 0.754106 732.852 0.695089 734.542 0.648833L734.528 0.149021C736.22 0.102742 737.912 0.0692177 739.606 0.0484886L739.612 0.548451C741.301 0.52778 742.991 0.519852 744.682 0.524707L744.683 0.0247092C746.375 0.0295674 748.068 0.0472049 749.761 0.0776626L749.752 0.577582C751.441 0.607964 753.131 0.65112 754.822 0.707092L754.839 0.207365C756.529 0.263323 758.22 0.332071 759.911 0.413651L759.887 0.913071C760.731 0.953796 761.576 0.997723 762.421 1.04486Z" stroke="#8C8C8C" stroke-dasharray="5 5"/>
</g>
</svg>
