<svg width="1160" height="25" viewBox="0 0 1160 25" fill="none" xmlns="http://www.w3.org/2000/svg">
<line opacity="0.25" x1="1" y1="5.5" x2="1159" y2="5.4999" stroke="#8C8C8C"/>
<path d="M32.03 21H36.08L36.25 20.14H34.71L35.92 13.94H35.04L33 15.59L33.51 16.27L34.28 15.64C34.59 15.39 34.7 15.23 34.7 15.23H34.72C34.72 15.23 34.67 15.44 34.62 15.66L33.74 20.14H32.18L32.03 21ZM37.5266 18.58H40.4366L40.5966 17.72H37.6866L37.5266 18.58ZM41.5627 20.14C42.0327 20.79 42.8427 21.12 43.6527 21.12C45.2427 21.12 46.5427 19.92 46.5427 18.47C46.5427 17.27 45.6727 16.44 44.4627 16.44C43.9127 16.44 43.5327 16.63 43.5327 16.63H43.5127C43.5127 16.63 43.5927 16.4 43.6327 16.27L44.0827 14.8H46.7927L46.9527 13.94H43.3627L42.3227 17.43L42.8927 17.65C42.8927 17.65 43.4427 17.3 44.1527 17.3C44.9527 17.3 45.5227 17.76 45.5227 18.51C45.5227 19.43 44.6527 20.18 43.6727 20.18C42.9827 20.18 42.4827 19.83 42.2027 19.47L41.5627 20.14ZM51.2363 20.71C51.2863 20.45 51.2963 20.24 51.2963 20.24H51.3163C51.5763 20.83 52.1663 21.12 52.8363 21.12C54.2263 21.12 55.5863 19.81 55.5863 17.9C55.5863 16.63 54.8863 15.82 53.6863 15.82C52.8963 15.82 52.2763 16.25 51.9263 16.77H51.9063C51.9063 16.77 51.9763 16.57 52.0163 16.37L52.0863 15.94H51.1963L49.8263 23H50.7863L51.2363 20.71ZM51.5963 18.98C51.5963 17.8 52.4163 16.67 53.4463 16.67C54.1663 16.67 54.5963 17.16 54.5963 17.97C54.5963 19.42 53.5963 20.28 52.7263 20.28C51.9563 20.28 51.5963 19.69 51.5963 18.98ZM56.0422 21.42H56.9522L61.0222 13.56L60.1022 13.56L56.0422 21.42ZM61.7082 20.2C62.4982 19.27 62.8682 17.76 63.0282 17L63.0782 16.73H64.6082L63.9382 20.2H61.7082ZM59.6882 22.2H60.5982L60.8282 21H64.5682L64.3382 22.2H65.2282L65.6182 20.2H64.8982L65.7282 15.94L62.3082 15.94L62.1182 16.94C61.9782 17.65 61.6082 19.21 60.6382 20.2H60.0682L59.6882 22.2Z" fill="#8C8C8C"/>
<path d="M132.01 20.16C132.56 20.81 133.41 21.12 134.26 21.12C135.85 21.12 136.99 19.91 136.99 18.6C136.99 17.33 135.95 16.89 135.28 16.83L137.63 14.57L137.75 13.94H133.53L133.37 14.8H135.69C136.08 14.8 136.3 14.77 136.3 14.77V14.79C136.3 14.79 136.04 14.98 135.76 15.25L133.91 17.06L134.03 17.59H134.58C135.38 17.59 135.99 17.92 135.99 18.64C135.99 19.51 135.18 20.18 134.26 20.18C133.48 20.18 132.94 19.83 132.62 19.47L132.01 20.16ZM138.493 18.58H141.403L141.563 17.72H138.653L138.493 18.58ZM142.53 20.14C143 20.79 143.81 21.12 144.62 21.12C146.21 21.12 147.51 19.92 147.51 18.47C147.51 17.27 146.64 16.44 145.43 16.44C144.88 16.44 144.5 16.63 144.5 16.63H144.48C144.48 16.63 144.56 16.4 144.6 16.27L145.05 14.8L147.76 14.8L147.92 13.94L144.33 13.94L143.29 17.43L143.86 17.65C143.86 17.65 144.41 17.3 145.12 17.3C145.92 17.3 146.49 17.76 146.49 18.51C146.49 19.43 145.62 20.18 144.64 20.18C143.95 20.18 143.45 19.83 143.17 19.47L142.53 20.14ZM152.203 20.71C152.253 20.45 152.263 20.24 152.263 20.24H152.283C152.543 20.83 153.133 21.12 153.803 21.12C155.193 21.12 156.553 19.81 156.553 17.9C156.553 16.63 155.853 15.82 154.653 15.82C153.863 15.82 153.243 16.25 152.893 16.77H152.873C152.873 16.77 152.943 16.57 152.983 16.37L153.053 15.94H152.163L150.793 23H151.753L152.203 20.71ZM152.563 18.98C152.563 17.8 153.383 16.67 154.413 16.67C155.133 16.67 155.563 17.16 155.563 17.97C155.563 19.42 154.563 20.28 153.693 20.28C152.923 20.28 152.563 19.69 152.563 18.98ZM157.009 21.42H157.919L161.989 13.56H161.069L157.009 21.42ZM162.675 20.2C163.465 19.27 163.835 17.76 163.995 17L164.045 16.73H165.575L164.905 20.2H162.675ZM160.655 22.2H161.565L161.795 21H165.535L165.305 22.2H166.195L166.585 20.2H165.865L166.695 15.94H163.275L163.085 16.94C162.945 17.65 162.575 19.21 161.605 20.2H161.035L160.655 22.2Z" fill="#8C8C8C"/>
<path d="M264.03 21H268.08L268.25 20.14H266.71L267.92 13.94H267.04L265 15.59L265.51 16.27L266.28 15.64C266.59 15.39 266.7 15.23 266.7 15.23H266.72C266.72 15.23 266.67 15.44 266.62 15.66L265.74 20.14H264.18L264.03 21ZM269.712 18.79C269.712 20.17 270.262 21.12 271.792 21.12C274.202 21.12 274.992 17.96 274.992 16.15C274.992 14.77 274.462 13.82 272.912 13.82C270.502 13.82 269.712 16.98 269.712 18.79ZM270.722 18.77C270.722 17.22 271.362 14.73 272.882 14.73C273.692 14.73 273.972 15.31 273.972 16.19C273.972 17.6 273.402 20.21 271.822 20.21C271.012 20.21 270.722 19.63 270.722 18.77ZM279.472 20.71C279.522 20.45 279.532 20.24 279.532 20.24H279.552C279.812 20.83 280.402 21.12 281.072 21.12C282.462 21.12 283.822 19.81 283.822 17.9C283.822 16.63 283.122 15.82 281.922 15.82C281.132 15.82 280.512 16.25 280.162 16.77H280.142C280.142 16.77 280.212 16.57 280.252 16.37L280.322 15.94H279.432L278.062 23H279.022L279.472 20.71ZM279.832 18.98C279.832 17.8 280.652 16.67 281.682 16.67C282.402 16.67 282.832 17.16 282.832 17.97C282.832 19.42 281.832 20.28 280.962 20.28C280.192 20.28 279.832 19.69 279.832 18.98ZM284.278 21.42H285.188L289.258 13.56H288.338L284.278 21.42ZM289.944 20.2C290.734 19.27 291.104 17.76 291.264 17L291.314 16.73H292.844L292.174 20.2L289.944 20.2ZM287.924 22.2H288.834L289.064 21L292.804 21L292.574 22.2H293.464L293.854 20.2H293.134L293.964 15.94H290.544L290.354 16.94C290.214 17.65 289.844 19.21 288.874 20.2H288.304L287.924 22.2Z" fill="#8C8C8C"/>
<path d="M464.07 21H468.61L468.78 20.14H465.32C465.46 19.46 466.21 19 467.07 18.48C468.22 17.79 469.54 17.03 469.54 15.64C469.54 14.49 468.64 13.82 467.52 13.82C466.4 13.82 465.59 14.47 465.11 15.09L465.81 15.65C466.19 15.13 466.78 14.75 467.43 14.75C468.06 14.75 468.52 15.11 468.52 15.74C468.52 16.64 467.58 17.13 466.54 17.76C465.34 18.5 464.09 19.33 464.07 21ZM470.542 18.79C470.542 20.17 471.092 21.12 472.622 21.12C475.032 21.12 475.822 17.96 475.822 16.15C475.822 14.77 475.292 13.82 473.742 13.82C471.332 13.82 470.542 16.98 470.542 18.79ZM471.552 18.77C471.552 17.22 472.192 14.73 473.712 14.73C474.522 14.73 474.802 15.31 474.802 16.19C474.802 17.6 474.232 20.21 472.652 20.21C471.842 20.21 471.552 19.63 471.552 18.77ZM480.302 20.71C480.352 20.45 480.362 20.24 480.362 20.24H480.382C480.642 20.83 481.232 21.12 481.902 21.12C483.292 21.12 484.652 19.81 484.652 17.9C484.652 16.63 483.952 15.82 482.752 15.82C481.962 15.82 481.342 16.25 480.992 16.77H480.972C480.972 16.77 481.042 16.57 481.082 16.37L481.152 15.94H480.262L478.892 23H479.852L480.302 20.71ZM480.662 18.98C480.662 17.8 481.482 16.67 482.512 16.67C483.232 16.67 483.662 17.16 483.662 17.97C483.662 19.42 482.662 20.28 481.792 20.28C481.022 20.28 480.662 19.69 480.662 18.98ZM485.108 21.42H486.018L490.088 13.56H489.168L485.108 21.42ZM490.774 20.2C491.564 19.27 491.934 17.76 492.094 17L492.144 16.73H493.674L493.004 20.2L490.774 20.2ZM488.754 22.2H489.664L489.894 21L493.634 21L493.404 22.2H494.294L494.684 20.2H493.964L494.794 15.94L491.374 15.94L491.184 16.94C491.044 17.65 490.674 19.21 489.704 20.2H489.134L488.754 22.2Z" fill="#8C8C8C"/>
<path d="M864.14 19.11H867.55L867.18 21H868.16L868.53 19.11H869.48L869.65 18.28H868.69L869.53 13.94H868.31L864.26 18.49L864.14 19.11ZM865.46 18.28V18.26L867.91 15.58C868.14 15.32 868.37 14.99 868.37 14.99H868.39C868.39 14.99 868.28 15.37 868.22 15.7L867.72 18.28H865.46ZM870.894 18.79C870.894 20.17 871.444 21.12 872.974 21.12C875.384 21.12 876.174 17.96 876.174 16.15C876.174 14.77 875.644 13.82 874.094 13.82C871.684 13.82 870.894 16.98 870.894 18.79ZM871.904 18.77C871.904 17.22 872.544 14.73 874.064 14.73C874.874 14.73 875.154 15.31 875.154 16.19C875.154 17.6 874.584 20.21 873.004 20.21C872.194 20.21 871.904 19.63 871.904 18.77ZM880.654 20.71C880.704 20.45 880.714 20.24 880.714 20.24H880.734C880.994 20.83 881.584 21.12 882.254 21.12C883.644 21.12 885.004 19.81 885.004 17.9C885.004 16.63 884.304 15.82 883.104 15.82C882.314 15.82 881.694 16.25 881.344 16.77H881.324C881.324 16.77 881.394 16.57 881.434 16.37L881.504 15.94H880.614L879.244 23H880.204L880.654 20.71ZM881.014 18.98C881.014 17.8 881.834 16.67 882.864 16.67C883.584 16.67 884.014 17.16 884.014 17.97C884.014 19.42 883.014 20.28 882.144 20.28C881.374 20.28 881.014 19.69 881.014 18.98ZM885.459 21.42H886.369L890.439 13.56H889.519L885.459 21.42ZM891.125 20.2C891.915 19.27 892.285 17.76 892.445 17L892.495 16.73H894.025L893.355 20.2L891.125 20.2ZM889.105 22.2H890.015L890.245 21L893.985 21L893.755 22.2H894.645L895.035 20.2H894.315L895.145 15.94L891.725 15.94L891.535 16.94C891.395 17.65 891.025 19.21 890.055 20.2H889.485L889.105 22.2Z" fill="#8C8C8C"/>
<path d="M634.11 20.14C634.58 20.79 635.39 21.12 636.2 21.12C637.79 21.12 639.09 19.92 639.09 18.47C639.09 17.27 638.22 16.44 637.01 16.44C636.46 16.44 636.08 16.63 636.08 16.63H636.06C636.06 16.63 636.14 16.4 636.18 16.27L636.63 14.8H639.34L639.5 13.94H635.91L634.87 17.43L635.44 17.65C635.44 17.65 635.99 17.3 636.7 17.3C637.5 17.3 638.07 17.76 638.07 18.51C638.07 19.43 637.2 20.18 636.22 20.18C635.53 20.18 635.03 19.83 634.75 19.47L634.11 20.14ZM643.784 20.71C643.834 20.45 643.844 20.24 643.844 20.24H643.864C644.124 20.83 644.714 21.12 645.384 21.12C646.774 21.12 648.134 19.81 648.134 17.9C648.134 16.63 647.434 15.82 646.234 15.82C645.444 15.82 644.824 16.25 644.474 16.77H644.454C644.454 16.77 644.524 16.57 644.564 16.37L644.634 15.94H643.744L642.374 23H643.334L643.784 20.71ZM644.144 18.98C644.144 17.8 644.964 16.67 645.994 16.67C646.714 16.67 647.144 17.16 647.144 17.97C647.144 19.42 646.144 20.28 645.274 20.28C644.504 20.28 644.144 19.69 644.144 18.98ZM648.589 21.42H649.499L653.569 13.56H652.649L648.589 21.42ZM654.255 20.2C655.045 19.27 655.415 17.76 655.575 17L655.625 16.73H657.155L656.485 20.2H654.255ZM652.235 22.2H653.145L653.375 21H657.115L656.885 22.2H657.775L658.165 20.2H657.445L658.275 15.94H654.855L654.665 16.94C654.525 17.65 654.155 19.21 653.185 20.2H652.615L652.235 22.2Z" fill="#8C8C8C"/>
<path d="M1098.11 20.14C1098.58 20.79 1099.39 21.12 1100.2 21.12C1101.79 21.12 1103.09 19.92 1103.09 18.47C1103.09 17.27 1102.22 16.44 1101.01 16.44C1100.46 16.44 1100.08 16.63 1100.08 16.63H1100.06C1100.06 16.63 1100.14 16.4 1100.18 16.27L1100.63 14.8H1103.34L1103.5 13.94H1099.91L1098.87 17.43L1099.44 17.65C1099.44 17.65 1099.99 17.3 1100.7 17.3C1101.5 17.3 1102.07 17.76 1102.07 18.51C1102.07 19.43 1101.2 20.18 1100.22 20.18C1099.53 20.18 1099.03 19.83 1098.75 19.47L1098.11 20.14ZM1107.78 20.71C1107.83 20.45 1107.84 20.24 1107.84 20.24H1107.86C1108.12 20.83 1108.71 21.12 1109.38 21.12C1110.77 21.12 1112.13 19.81 1112.13 17.9C1112.13 16.63 1111.43 15.82 1110.23 15.82C1109.44 15.82 1108.82 16.25 1108.47 16.77H1108.45C1108.45 16.77 1108.52 16.57 1108.56 16.37L1108.63 15.94H1107.74L1106.37 23H1107.33L1107.78 20.71ZM1108.14 18.98C1108.14 17.8 1108.96 16.67 1109.99 16.67C1110.71 16.67 1111.14 17.16 1111.14 17.97C1111.14 19.42 1110.14 20.28 1109.27 20.28C1108.5 20.28 1108.14 19.69 1108.14 18.98ZM1112.59 21.42H1113.5L1117.57 13.56H1116.65L1112.59 21.42ZM1118.26 20.2C1119.05 19.27 1119.42 17.76 1119.58 17L1119.63 16.73H1121.16L1120.49 20.2H1118.26ZM1116.24 22.2H1117.15L1117.38 21H1121.12L1120.89 22.2H1121.78L1122.17 20.2H1121.45L1122.28 15.94H1118.86L1118.67 16.94C1118.53 17.65 1118.16 19.21 1117.19 20.2H1116.62L1116.24 22.2Z" fill="#8C8C8C"/>
<line opacity="0.25" x1="100.5" y1="2.18557e-08" x2="100.5" y2="11" stroke="#8C8C8C"/>
<line opacity="0.25" x1="0.5" y1="2.18557e-08" x2="0.5" y2="11" stroke="#8C8C8C"/>
<line opacity="0.25" x1="200.5" y1="2.18557e-08" x2="200.5" y2="11" stroke="#8C8C8C"/>
<line opacity="0.25" x1="359.5" y1="2.18557e-08" x2="359.5" y2="11" stroke="#8C8C8C"/>
<line opacity="0.25" x1="600.5" y1="2.18557e-08" x2="600.5" y2="11" stroke="#8C8C8C"/>
<line opacity="0.25" x1="699.5" y1="2.18557e-08" x2="699.5" y2="11" stroke="#8C8C8C"/>
<line opacity="0.25" x1="1060.5" y1="2.18557e-08" x2="1060.5" y2="11" stroke="#8C8C8C"/>
<line opacity="0.25" x1="1159.5" y1="2.18557e-08" x2="1159.5" y2="11" stroke="#8C8C8C"/>
</svg>
